{"glyphs":{" ":{"ha":472,"x_min":0,"x_max":0,"o":""},"ء":{"ha":730,"x_min":90,"x_max":668,"o":"m 90 121 q 222 149 165 140 q 151 224 178 175 q 125 334 125 274 q 212 527 125 455 q 446 599 298 599 q 558 588 507 599 q 642 558 610 576 l 600 403 q 468 432 548 432 q 365 400 404 432 q 326 301 326 369 q 348 228 326 260 q 406 180 370 195 q 536 198 450 188 q 668 211 621 208 l 668 43 q 383 20 571 43 q 90 -24 195 -3 l 90 121 z "},"ا":{"ha":485,"x_min":139,"x_max":346,"o":"m 139 1055 l 346 1055 l 346 0 l 139 0 l 139 1055 z "},"ﺎ":{"ha":513,"x_min":139,"x_max":526,"o":"m 519 167 q 526 161 526 167 l 526 7 q 519 0 526 0 l 139 0 l 139 1055 l 346 1055 l 346 167 l 519 167 z "},"ح":{"ha":949,"x_min":62,"x_max":859,"o":"m 379 -453 q 150 -374 237 -453 q 62 -164 62 -295 q 92 -29 62 -90 q 178 82 121 33 q 326 175 235 132 q 568 260 416 218 q 534 372 547 326 q 468 494 513 454 q 349 534 423 534 q 142 471 258 534 l 68 624 q 222 680 135 659 q 392 701 310 701 q 714 433 668 701 q 769 241 738 302 q 859 136 801 180 l 753 0 q 640 117 685 54 q 405 40 473 74 q 301 -41 337 5 q 265 -153 265 -87 q 309 -247 265 -211 q 421 -283 353 -283 q 625 -254 514 -283 l 648 -406 q 379 -453 513 -453 z "},"ﺣ":{"ha":851,"x_min":-14,"x_max":761,"o":"m -7 0 q -14 7 -14 0 l -14 161 q -7 167 -14 167 l 553 167 l 553 168 q 469 366 498 217 q 413 497 450 459 q 302 534 376 534 q 211 522 254 534 q 118 482 168 510 l 56 635 q 346 701 180 701 q 562 639 485 701 q 664 433 640 576 q 761 167 700 227 l 761 0 l -7 0 z "},"ﺤ":{"ha":844,"x_min":-14,"x_max":859,"o":"m -7 0 q -14 7 -14 0 l -14 161 q -7 167 -14 167 l 554 167 q 469 366 499 218 q 413 497 450 459 q 302 534 376 534 q 211 522 254 534 q 118 482 168 510 l 56 635 q 346 701 180 701 q 562 639 485 701 q 664 433 640 576 q 761 167 700 227 l 851 167 q 859 161 859 167 l 859 7 q 851 0 859 0 l -7 0 z "},"ﺢ":{"ha":896,"x_min":62,"x_max":909,"o":"m 895 0 q 740 28 798 0 q 640 117 681 57 q 405 40 473 74 q 301 -41 337 5 q 265 -153 265 -87 q 309 -247 265 -211 q 421 -283 353 -283 q 625 -254 514 -283 l 648 -406 q 379 -453 513 -453 q 150 -374 237 -453 q 62 -164 62 -295 q 92 -28 62 -90 q 179 84 122 34 q 326 176 236 134 q 570 260 416 218 q 534 372 550 315 q 468 495 512 455 q 349 534 423 534 q 142 471 258 534 l 68 624 q 222 680 135 659 q 392 701 310 701 q 714 433 668 701 q 785 238 736 309 q 895 167 833 167 l 903 167 q 909 161 909 167 l 909 7 q 903 0 909 0 l 895 0 z "},"د":{"ha":827,"x_min":62,"x_max":736,"o":"m 62 167 l 526 167 q 457 374 498 295 q 352 510 416 453 q 197 606 289 568 l 275 800 q 573 570 461 726 q 736 161 686 414 l 736 0 l 62 0 l 62 167 z "},"ر":{"ha":608,"x_min":-56,"x_max":490,"o":"m 200 -334 q 70 -317 129 -334 q -56 -256 10 -300 l 28 -121 q 93 -153 64 -144 q 160 -161 121 -161 q 250 -119 216 -161 q 283 -12 283 -77 l 283 688 l 490 688 l 490 -22 q 411 -250 490 -165 q 200 -334 332 -334 z "},"ﺮ":{"ha":664,"x_min":-56,"x_max":677,"o":"m 671 167 q 677 161 677 167 l 677 7 q 671 0 677 0 l 490 0 l 490 -22 q 411 -250 490 -165 q 200 -334 332 -334 q 70 -317 129 -334 q -56 -256 10 -300 l 28 -121 q 93 -153 64 -144 q 160 -161 121 -161 q 250 -119 216 -161 q 283 -12 283 -77 l 283 688 l 490 688 l 490 167 l 671 167 z "},"س":{"ha":1960,"x_min":90,"x_max":1842,"o":"m 1057 167 q 1158 205 1126 167 q 1190 328 1190 244 l 1190 579 l 1397 579 l 1397 311 q 1393 249 1397 277 q 1462 185 1428 203 q 1549 167 1496 167 l 1634 167 l 1634 688 l 1842 688 l 1842 0 l 1553 0 q 1335 104 1435 0 q 1103 0 1257 0 l 937 0 q 529 -334 912 -334 l 468 -334 q 266 -285 352 -334 q 135 -148 180 -236 q 90 56 90 -59 q 109 216 90 134 q 161 363 128 298 l 345 363 q 310 207 323 288 q 297 54 297 125 q 348 -107 297 -47 q 482 -167 399 -167 l 524 -167 q 681 -109 631 -167 q 732 54 732 -51 l 732 579 l 939 579 l 939 167 l 1057 167 z "},"ﺳ":{"ha":1394,"x_min":-14,"x_max":1276,"o":"m -7 0 q -14 7 -14 0 l -14 161 q -7 167 -14 167 l 167 167 l 167 579 l 374 579 l 374 167 l 492 167 q 593 205 561 167 q 625 328 625 243 l 625 579 l 832 579 l 832 311 q 828 249 832 277 q 896 185 862 203 q 983 167 930 167 l 1069 167 l 1069 688 l 1276 688 l 1276 0 l 987 0 q 770 104 870 0 q 538 0 692 0 l -7 0 z "},"ﺴ":{"ha":1450,"x_min":-14,"x_max":1464,"o":"m 1457 167 q 1464 161 1464 167 l 1464 7 q 1457 0 1464 0 l 987 0 q 770 104 870 0 q 538 0 692 0 l -7 0 q -14 7 -14 0 l -14 161 q -7 167 -14 167 l 167 167 l 167 579 l 374 579 l 374 167 l 492 167 q 593 205 561 167 q 625 328 625 243 l 625 579 l 832 579 l 832 311 q 828 249 832 277 q 896 185 862 203 q 983 167 930 167 l 1069 167 l 1069 688 l 1276 688 l 1276 167 l 1457 167 z "},"ﺲ":{"ha":2016,"x_min":90,"x_max":2029,"o":"m 2022 167 q 2029 161 2029 167 l 2029 7 q 2022 0 2029 0 l 1553 0 q 1335 104 1435 0 q 1103 0 1257 0 l 937 0 q 529 -334 912 -334 l 468 -334 q 266 -285 352 -334 q 135 -148 180 -236 q 90 56 90 -59 q 109 216 90 134 q 161 363 128 298 l 345 363 q 310 207 323 288 q 297 54 297 125 q 348 -107 297 -47 q 482 -167 399 -167 l 524 -167 q 681 -109 631 -167 q 732 54 732 -51 l 732 579 l 939 579 l 939 167 l 1057 167 q 1158 205 1126 167 q 1190 328 1190 244 l 1190 579 l 1397 579 l 1397 311 q 1393 249 1397 277 q 1462 185 1428 203 q 1549 167 1496 167 l 1634 167 l 1634 688 l 1842 688 l 1842 167 l 2022 167 z "},"ص":{"ha":1764,"x_min":90,"x_max":1659,"o":"m 468 -334 q 266 -285 352 -334 q 135 -148 180 -236 q 90 56 90 -59 q 109 216 90 134 q 161 363 128 298 l 345 363 q 310 207 323 288 q 297 54 297 125 q 348 -107 297 -47 q 482 -167 399 -167 l 524 -167 q 681 -109 631 -167 q 732 54 732 -51 l 732 688 l 939 688 l 939 444 q 1315 701 1065 701 q 1573 611 1486 701 q 1659 334 1659 522 l 1659 0 l 937 0 q 823 -249 927 -164 q 529 -334 720 -334 l 468 -334 m 1453 167 l 1453 338 q 1406 487 1453 439 q 1263 534 1360 534 q 939 275 1075 534 l 939 167 l 1453 167 z "},"ﺻ":{"ha":1189,"x_min":-14,"x_max":1084,"o":"m 878 167 l 878 338 q 831 487 878 439 q 688 534 785 534 q 364 275 500 534 l 364 167 l 878 167 m -7 0 q -14 7 -14 0 l -14 161 q -7 167 -14 167 l 157 167 l 157 688 l 364 688 l 364 444 q 741 701 491 701 q 998 611 911 701 q 1084 334 1084 522 l 1084 0 l -7 0 z "},"ﺼ":{"ha":1258,"x_min":-14,"x_max":1272,"o":"m -7 0 q -14 7 -14 0 l -14 161 q -7 167 -14 167 l 157 167 l 157 688 l 364 688 l 364 444 q 741 701 491 701 q 998 611 911 701 q 1084 334 1084 522 l 1084 167 l 1265 167 q 1272 161 1272 167 l 1272 7 q 1265 0 1272 0 l -7 0 m 878 167 l 878 338 q 831 487 878 439 q 688 534 785 534 q 364 275 500 534 l 364 167 l 878 167 z "},"ﺺ":{"ha":1833,"x_min":90,"x_max":1847,"o":"m 1841 167 q 1847 161 1847 167 l 1847 7 q 1841 0 1847 0 l 937 0 q 823 -249 927 -164 q 529 -334 720 -334 l 468 -334 q 266 -285 352 -334 q 135 -148 180 -236 q 90 56 90 -59 q 109 216 90 134 q 161 363 128 298 l 345 363 q 310 207 323 288 q 297 54 297 125 q 348 -107 297 -47 q 482 -167 399 -167 l 524 -167 q 681 -109 631 -167 q 732 54 732 -51 l 732 688 l 939 688 l 939 444 q 1315 701 1065 701 q 1573 611 1486 701 q 1659 334 1659 522 l 1659 167 l 1841 167 m 1453 167 l 1453 338 q 1406 487 1453 439 q 1263 534 1360 534 q 939 275 1075 534 l 939 167 l 1453 167 z "},"ط":{"ha":1189,"x_min":28,"x_max":1084,"o":"m 878 167 l 878 338 q 831 487 878 439 q 688 534 785 534 q 364 275 500 534 l 364 167 l 878 167 m 28 167 l 157 167 l 157 1055 l 364 1055 l 364 444 q 741 701 491 701 q 998 611 911 701 q 1084 334 1084 522 l 1084 0 l 28 0 l 28 167 z "},"ﻃ":{"ha":1231,"x_min":-14,"x_max":1126,"o":"m 920 167 l 920 338 q 873 487 920 439 q 729 534 827 534 q 406 275 542 534 l 406 167 l 920 167 m -7 0 q -14 7 -14 0 l -14 161 q -7 167 -14 167 l 199 167 l 199 1055 l 406 1055 l 406 444 q 782 701 532 701 q 1040 611 953 701 q 1126 334 1126 522 l 1126 0 l -7 0 z "},"ﻄ":{"ha":1258,"x_min":-14,"x_max":1272,"o":"m -7 0 q -14 7 -14 0 l -14 161 q -7 167 -14 167 l 157 167 l 157 1055 l 364 1055 l 364 444 q 741 701 491 701 q 998 611 911 701 q 1084 334 1084 522 l 1084 167 l 1265 167 q 1272 161 1272 167 l 1272 7 q 1265 0 1272 0 l -7 0 m 878 167 l 878 338 q 831 487 878 439 q 688 534 785 534 q 364 275 500 534 l 364 167 l 878 167 z "},"ﻂ":{"ha":1258,"x_min":28,"x_max":1272,"o":"m 28 167 l 157 167 l 157 1055 l 364 1055 l 364 444 q 741 701 491 701 q 998 611 911 701 q 1084 334 1084 522 l 1084 167 l 1265 167 q 1272 161 1272 167 l 1272 7 q 1265 0 1272 0 l 28 0 l 28 167 m 878 167 l 878 338 q 831 487 878 439 q 688 534 785 534 q 364 275 500 534 l 364 167 l 878 167 z "},"ع":{"ha":823,"x_min":90,"x_max":761,"o":"m 407 -453 q 177 -375 264 -453 q 90 -171 90 -298 q 267 106 90 -16 q 181 229 218 155 q 144 367 144 304 q 247 612 144 523 q 528 701 350 701 q 655 688 589 701 q 761 656 722 674 l 703 493 q 606 526 648 517 q 522 534 564 534 q 389 489 435 534 q 343 358 343 443 q 357 259 343 300 q 400 179 372 218 q 642 271 520 233 l 690 114 q 385 -6 477 60 q 293 -160 293 -73 q 333 -251 293 -218 q 449 -283 372 -283 q 653 -254 542 -283 l 676 -406 q 407 -453 541 -453 z "},"ﻋ":{"ha":787,"x_min":-14,"x_max":725,"o":"m -7 0 q -14 7 -14 0 l -14 161 q -7 167 -14 167 l 207 167 q 125 245 155 190 q 94 367 94 300 q 197 612 94 523 q 478 701 300 701 q 606 688 539 701 q 711 656 673 674 l 653 493 q 557 525 600 516 q 472 534 515 534 q 340 489 387 534 q 293 358 293 444 q 341 220 293 274 q 471 167 389 167 l 725 167 l 725 0 l -7 0 z "},"ﻌ":{"ha":839,"x_min":-14,"x_max":852,"o":"m 846 167 q 852 161 852 167 l 852 7 q 846 0 852 0 l 669 0 q 534 22 604 0 q 412 78 463 44 q 154 0 285 0 l -7 0 q -14 7 -14 0 l -14 161 q -7 167 -14 167 l 132 167 q 201 174 163 167 q 262 193 239 182 q 175 294 221 225 q 95 444 129 362 q 49 600 61 525 q 236 707 130 668 q 439 746 341 746 q 787 663 637 746 q 726 387 787 512 q 561 195 665 261 q 686 167 612 167 l 846 167 m 415 279 q 590 554 578 376 q 433 579 530 579 q 337 564 389 579 q 256 526 286 548 q 318 382 276 450 q 415 279 361 315 z "},"ﻊ":{"ha":880,"x_min":90,"x_max":895,"o":"m 96 -171 q 151 5 96 -79 q 322 174 206 90 q 171 372 233 257 q 90 600 108 487 q 277 707 171 667 q 481 746 384 746 q 829 663 678 746 q 771 397 829 519 q 602 183 713 275 q 728 167 657 167 l 888 167 q 895 161 895 167 l 895 7 q 888 0 895 0 l 711 0 q 587 21 656 0 q 456 78 517 42 q 335 -41 372 16 q 298 -160 298 -98 q 338 -251 298 -218 q 454 -283 378 -283 q 659 -254 547 -283 l 682 -406 q 543 -442 607 -431 q 412 -453 479 -453 q 183 -375 270 -453 q 96 -171 96 -298 m 297 526 q 461 265 341 376 q 579 394 534 317 q 632 554 625 470 q 561 574 597 568 q 475 579 524 579 q 378 563 430 579 q 297 526 326 547 z "},"ﻛ":{"ha":847,"x_min":-14,"x_max":743,"o":"m -7 0 q -14 7 -14 0 l -14 161 q -7 167 -14 167 l 536 167 l 536 390 q 479 519 536 474 q 315 564 421 564 l 79 564 l 79 714 q 287 988 153 869 q 597 1169 420 1106 l 673 983 q 448 876 553 947 q 294 730 342 804 l 347 730 q 743 416 743 730 l 743 0 l -7 0 z "},"ﻜ":{"ha":917,"x_min":-14,"x_max":930,"o":"m -7 0 q -14 7 -14 0 l -14 161 q -7 167 -14 167 l 536 167 l 536 390 q 479 519 536 474 q 315 564 421 564 l 79 564 l 79 714 q 287 988 153 869 q 597 1169 420 1106 l 673 983 q 448 876 553 947 q 294 730 342 804 l 347 730 q 743 416 743 730 l 743 167 l 924 167 q 930 161 930 167 l 930 7 q 924 0 930 0 l -7 0 z "},"ك":{"ha":1225,"x_min":90,"x_max":1086,"o":"m 449 501 l 528 514 q 483 552 500 528 q 465 608 465 576 q 506 701 465 667 q 618 734 547 734 q 732 710 684 734 l 704 639 q 629 657 667 657 q 581 638 599 657 q 562 590 562 620 q 604 528 562 549 l 629 532 q 742 546 699 543 l 742 465 q 449 431 652 460 l 449 501 m 367 0 q 164 75 239 0 q 90 279 90 149 q 102 391 90 332 q 135 492 115 450 l 318 492 q 297 310 297 401 q 333 206 297 245 q 428 167 369 167 l 879 167 l 879 1055 l 1086 1055 l 1086 0 l 367 0 z "},"ﻚ":{"ha":1260,"x_min":90,"x_max":1274,"o":"m 367 0 q 164 75 239 0 q 90 279 90 149 q 102 391 90 332 q 135 492 115 450 l 318 492 q 297 310 297 401 q 333 206 297 245 q 428 167 369 167 l 879 167 l 879 1055 l 1086 1055 l 1086 167 l 1267 167 q 1274 161 1274 167 l 1274 7 q 1267 0 1274 0 l 367 0 m 449 501 l 528 514 q 483 552 500 528 q 465 608 465 576 q 506 701 465 667 q 618 734 547 734 q 732 710 684 734 l 704 639 q 629 657 667 657 q 581 638 599 657 q 562 590 562 620 q 604 528 562 549 l 629 532 q 742 546 699 543 l 742 465 q 449 431 652 460 l 449 501 z "},"ل":{"ha":1078,"x_min":90,"x_max":939,"o":"m 468 -334 q 266 -285 352 -334 q 135 -148 180 -236 q 90 56 90 -59 q 109 216 90 134 q 161 363 128 298 l 345 363 q 310 207 323 288 q 297 54 297 125 q 348 -107 297 -47 q 482 -167 399 -167 l 524 -167 q 681 -109 631 -167 q 732 54 732 -51 l 732 1055 l 939 1055 l 939 49 q 529 -334 939 -334 l 468 -334 z "},"ﻟ":{"ha":513,"x_min":-14,"x_max":374,"o":"m -7 0 q -14 7 -14 0 l -14 161 q -7 167 -14 167 l 167 167 l 167 1055 l 374 1055 l 374 0 l -7 0 z "},"ﻠ":{"ha":547,"x_min":-14,"x_max":561,"o":"m -7 0 q -14 7 -14 0 l -14 161 q -7 167 -14 167 l 167 167 l 167 1055 l 374 1055 l 374 167 l 554 167 q 561 161 561 167 l 561 7 q 554 0 561 0 l -7 0 z "},"ﻞ":{"ha":1112,"x_min":90,"x_max":1126,"o":"m 468 -334 q 266 -285 352 -334 q 135 -148 180 -236 q 90 56 90 -59 q 109 216 90 134 q 161 363 128 298 l 345 363 q 310 207 323 288 q 297 54 297 125 q 348 -107 297 -47 q 482 -167 399 -167 l 524 -167 q 681 -109 631 -167 q 732 54 732 -51 l 732 1055 l 939 1055 l 939 167 l 1120 167 q 1126 161 1126 167 l 1126 7 q 1120 0 1126 0 l 937 0 q 529 -334 912 -334 l 468 -334 z "},"م":{"ha":993,"x_min":90,"x_max":917,"o":"m 90 -39 q 138 106 90 52 q 272 165 185 159 q 235 358 235 254 q 256 490 235 419 q 306 608 277 562 q 444 666 368 645 q 581 688 520 688 q 753 647 675 688 q 873 532 830 607 q 917 359 917 457 q 868 172 917 254 q 731 45 819 91 q 538 0 644 0 l 410 0 q 322 -25 347 0 q 297 -107 297 -50 l 297 -444 l 90 -444 l 90 -39 m 427 329 q 458 167 427 258 l 511 167 q 651 223 595 167 q 708 359 708 279 q 672 478 708 435 q 576 521 635 521 q 447 482 514 521 q 427 329 427 409 z "},"ﻣ":{"ha":871,"x_min":-14,"x_max":794,"o":"m 150 167 q 113 358 113 252 q 133 488 113 418 q 183 608 153 558 q 326 667 250 647 q 458 688 401 688 q 631 647 553 688 q 751 532 709 606 q 794 359 794 458 q 745 172 794 254 q 608 45 696 91 q 415 0 521 0 l -7 0 q -14 7 -14 0 l -14 161 q -7 167 -14 167 l 150 167 m 304 329 q 336 167 304 258 l 389 167 q 529 223 473 167 q 586 359 586 279 q 550 477 586 433 q 454 521 514 521 q 325 482 392 521 q 304 329 304 409 z "},"ﻤ":{"ha":907,"x_min":-14,"x_max":921,"o":"m 150 167 q 113 358 113 252 q 133 488 113 418 q 183 608 153 558 q 326 667 250 647 q 458 688 401 688 q 631 647 553 688 q 751 532 709 606 q 794 359 794 458 q 768 216 794 283 q 826 178 793 189 q 907 167 858 167 l 914 167 q 921 161 921 167 l 921 7 q 914 0 921 0 l 907 0 q 780 21 833 0 q 677 93 726 41 q 556 23 625 47 q 415 0 488 0 l -7 0 q -14 7 -14 0 l -14 161 q -7 167 -14 167 l 150 167 m 304 329 q 336 167 304 258 l 389 167 q 529 223 473 167 q 586 359 586 279 q 550 477 586 433 q 454 521 514 521 q 325 482 392 521 q 304 329 304 409 z "},"ﻢ":{"ha":1031,"x_min":90,"x_max":1044,"o":"m 1031 0 q 904 21 957 0 q 802 93 850 42 q 680 23 748 47 q 538 0 611 0 l 410 0 q 322 -25 347 0 q 297 -107 297 -50 l 297 -444 l 90 -444 l 90 -39 q 138 106 90 52 q 272 165 185 159 q 235 358 235 254 q 256 490 235 419 q 306 608 277 562 q 444 666 368 645 q 581 688 520 688 q 753 647 675 688 q 873 532 830 607 q 917 359 917 457 q 890 218 917 286 q 948 178 916 190 q 1031 167 981 167 l 1038 167 q 1044 161 1044 167 l 1044 7 q 1038 0 1044 0 l 1031 0 m 427 329 q 458 167 427 258 l 511 167 q 651 223 595 167 q 708 359 708 279 q 672 478 708 435 q 576 521 635 521 q 447 482 514 521 q 427 329 427 409 z "},"ه":{"ha":876,"x_min":90,"x_max":786,"o":"m 436 -14 q 178 67 267 -14 q 90 306 90 148 q 135 506 90 414 q 258 649 179 597 q 440 701 338 701 q 612 651 534 701 q 738 507 689 601 q 786 306 786 413 q 698 64 786 141 q 436 -14 610 -14 m 435 155 q 543 194 508 155 q 578 313 578 233 q 535 468 578 402 q 433 534 493 534 q 332 470 374 534 q 290 313 290 406 q 326 194 290 233 q 435 155 361 155 z "},"ﻫ":{"ha":1234,"x_min":-14,"x_max":1129,"o":"m 522 167 l 522 355 q 497 460 522 427 q 416 493 471 493 q 339 453 369 493 q 310 353 310 414 q 478 167 310 167 l 522 167 m -7 0 q -14 7 -14 0 l -14 161 q -7 167 -14 167 l 164 167 q 116 241 136 193 q 97 361 97 289 q 140 514 97 442 q 257 626 184 585 q 415 667 331 667 q 581 628 509 667 q 691 519 652 589 q 729 364 729 449 l 729 167 l 922 167 l 922 424 q 836 694 922 600 q 582 789 749 789 q 399 776 478 789 q 244 736 320 764 l 197 895 q 385 942 293 928 q 582 956 477 956 q 992 824 856 956 q 1129 441 1129 692 l 1129 0 l -7 0 z "},"ﻬ":{"ha":1296,"x_min":-14,"x_max":1310,"o":"m 1303 167 q 1310 161 1310 167 l 1310 7 q 1303 0 1310 0 l -7 0 q -14 7 -14 0 l -14 161 q -7 167 -14 167 l 164 167 q 116 241 136 193 q 97 361 97 289 q 140 514 97 442 q 257 626 184 585 q 415 667 331 667 q 581 628 509 667 q 691 519 652 589 q 729 364 729 449 l 729 167 l 922 167 l 922 424 q 836 694 922 600 q 582 789 749 789 q 399 776 478 789 q 244 736 320 764 l 197 895 q 385 942 293 928 q 582 956 477 956 q 992 824 856 956 q 1129 441 1129 692 l 1129 167 l 1303 167 m 522 167 l 522 355 q 497 460 522 427 q 416 493 471 493 q 339 453 369 493 q 310 353 310 414 q 478 167 310 167 l 522 167 z "},"ﻪ":{"ha":909,"x_min":90,"x_max":924,"o":"m 917 167 q 924 161 924 167 l 924 7 q 917 0 924 0 l 496 0 q 197 90 303 0 q 90 340 90 180 q 139 522 90 443 q 279 645 188 602 q 496 688 370 688 l 534 688 l 534 755 l 743 755 l 743 167 l 917 167 m 536 167 l 536 521 l 500 521 q 354 474 405 521 q 302 339 302 427 q 353 212 302 256 q 497 167 403 167 l 536 167 z "},"و":{"ha":871,"x_min":90,"x_max":753,"o":"m 386 -334 q 223 -319 292 -334 q 90 -267 154 -304 l 171 -115 q 277 -156 227 -144 q 382 -168 328 -168 q 503 -125 460 -168 q 546 -7 546 -82 l 546 0 l 408 0 q 180 84 260 0 q 100 323 100 168 q 155 516 100 433 q 310 644 210 600 q 542 688 410 688 l 753 688 l 753 -4 q 657 -248 753 -162 q 386 -334 561 -334 m 546 167 l 546 521 l 501 521 q 362 471 412 521 q 313 329 313 420 q 347 206 313 245 q 450 167 380 167 l 546 167 z "},"ﻮ":{"ha":920,"x_min":90,"x_max":933,"o":"m 926 167 q 933 161 933 167 l 933 7 q 926 0 933 0 l 753 0 q 657 -246 753 -159 q 386 -334 561 -334 q 223 -319 292 -334 q 90 -267 154 -304 l 171 -115 q 277 -156 227 -144 q 382 -168 328 -168 q 503 -125 460 -168 q 546 -7 546 -82 l 546 0 l 408 0 q 180 84 260 0 q 100 323 100 168 q 155 516 100 433 q 310 644 210 600 q 542 688 410 688 l 753 688 l 753 167 l 926 167 m 546 167 l 546 521 l 501 521 q 362 471 412 521 q 313 329 313 420 q 347 206 313 245 q 450 167 380 167 l 546 167 z "},"ى":{"ha":1226,"x_min":90,"x_max":1164,"o":"m 370 -334 q 226 -293 290 -334 q 126 -180 161 -253 q 90 -17 90 -108 q 135 252 90 119 l 319 252 q 296 142 302 194 q 290 14 290 91 q 314 -76 290 -34 q 376 -143 337 -119 q 456 -167 414 -167 l 696 -167 q 853 -147 804 -167 q 903 -83 903 -127 q 884 -32 903 -55 q 821 18 865 -9 q 687 105 763 54 q 583 196 612 157 q 554 282 554 235 q 628 468 554 363 q 804 636 701 572 q 1002 700 907 700 q 1068 687 1034 700 q 1164 635 1101 675 l 1089 484 q 1035 510 1061 499 q 979 521 1008 521 q 883 482 943 521 q 784 397 823 444 q 745 317 745 351 q 776 266 745 295 q 868 198 808 236 q 987 111 924 163 q 1079 13 1049 60 q 1109 -79 1109 -35 q 1003 -270 1109 -207 q 697 -334 897 -334 l 370 -334 z "},"ﻰ":{"ha":1396,"x_min":90,"x_max":1410,"o":"m 1396 0 q 1269 21 1321 0 q 1160 102 1216 42 q 1089 195 1145 117 q 986 318 1023 287 q 916 349 949 349 q 859 326 893 349 q 802 272 825 302 q 779 220 779 241 q 803 170 779 191 q 880 132 827 149 q 1011 75 968 102 q 1075 9 1053 47 q 1096 -82 1096 -30 q 997 -269 1096 -205 q 697 -334 897 -334 l 370 -334 q 226 -293 290 -334 q 126 -180 161 -253 q 90 -17 90 -108 q 135 252 90 119 l 319 252 q 296 142 302 194 q 290 14 290 91 q 314 -76 290 -34 q 376 -143 337 -119 q 456 -167 414 -167 l 696 -167 q 849 -150 808 -167 q 890 -93 890 -133 q 868 -53 890 -69 q 795 -22 845 -36 q 633 57 678 7 q 587 191 587 106 q 640 343 587 263 q 776 477 692 422 q 936 532 859 532 q 1019 514 981 532 q 1092 462 1057 497 q 1208 312 1128 427 q 1311 194 1272 220 q 1396 167 1350 167 l 1402 167 q 1410 161 1410 167 l 1410 7 q 1402 0 1410 0 l 1396 0 z "},"ﻻ":{"ha":991,"x_min":62,"x_max":867,"o":"m 62 167 l 314 167 l 135 868 l 351 868 l 517 167 l 526 167 q 628 205 595 167 q 660 328 660 243 l 660 1055 l 867 1055 l 867 311 q 788 85 867 170 q 572 0 710 0 l 62 0 l 62 167 z "},"ﻼ":{"ha":1040,"x_min":62,"x_max":1054,"o":"m 1047 167 q 1054 161 1054 167 l 1054 7 q 1047 0 1054 0 l 62 0 l 62 167 l 314 167 l 135 868 l 351 868 l 517 167 l 660 167 l 660 1055 l 867 1055 l 867 167 l 1047 167 z "},"ـ":{"ha":237,"x_min":-14,"x_max":252,"o":"m 244 167 q 252 161 252 167 l 252 7 q 244 0 252 0 l -7 0 q -14 7 -14 0 l -14 161 q -7 167 -14 167 l 244 167 z "},"ٮ":{"ha":1204,"x_min":90,"x_max":1086,"o":"m 367 0 q 164 75 239 0 q 90 279 90 149 q 102 391 90 332 q 135 492 115 450 l 318 492 q 297 310 297 401 q 333 206 297 245 q 428 167 369 167 l 879 167 l 879 688 l 1086 688 l 1086 0 l 367 0 z "},"ٯ":{"ha":1336,"x_min":90,"x_max":1218,"o":"m 458 -334 q 270 -283 354 -334 q 138 -143 185 -233 q 90 56 90 -54 q 109 216 90 134 q 161 363 128 298 l 345 363 q 310 207 323 288 q 297 54 297 125 q 354 -109 297 -50 q 521 -167 412 -167 l 755 -167 q 950 -129 890 -167 q 1011 -7 1011 -90 l 1011 0 l 913 0 l 905 0 q 728 42 805 0 q 608 162 651 84 q 566 345 566 240 q 613 526 566 449 q 751 646 660 604 q 972 688 843 688 l 1218 688 l 1218 36 q 1123 -242 1218 -151 q 825 -334 1029 -334 l 458 -334 m 1011 167 l 1011 521 l 975 521 q 778 336 778 521 q 829 209 778 252 q 972 167 881 167 l 1011 167 z "},"٠":{"ha":526,"x_min":139,"x_max":387,"o":"m 139 567 l 387 567 l 387 252 l 139 252 l 139 567 z "},"١":{"ha":485,"x_min":139,"x_max":346,"o":"m 139 936 l 346 936 l 346 0 l 139 0 l 139 936 z "},"٢":{"ha":732,"x_min":62,"x_max":704,"o":"m 62 804 l 62 936 l 704 936 l 704 760 l 290 760 l 574 0 l 354 0 l 62 804 z "},"٣":{"ha":860,"x_min":62,"x_max":825,"o":"m 62 936 l 271 936 l 346 742 q 366 733 354 733 q 387 771 382 733 q 392 936 392 810 l 557 936 q 551 742 557 783 q 590 733 562 733 q 635 750 621 733 q 654 807 649 768 q 660 936 660 846 l 825 936 l 825 917 q 779 674 825 747 q 624 602 732 602 q 513 633 557 602 q 439 603 482 603 q 378 612 397 603 l 615 0 l 400 0 l 62 936 z "},"٤":{"ha":761,"x_min":118,"x_max":713,"o":"m 460 -14 q 290 14 368 -14 q 165 87 212 42 q 118 176 118 132 q 141 254 118 216 q 216 335 165 292 q 387 458 268 378 l 316 516 q 176 672 176 629 q 238 766 176 708 q 399 881 299 825 q 607 972 499 937 l 659 799 q 534 750 596 779 q 428 694 472 722 q 383 659 383 667 q 402 634 383 652 q 616 468 421 617 q 410 319 456 357 q 340 255 363 282 q 317 211 317 228 q 367 173 317 190 q 490 157 417 157 q 713 189 610 157 l 713 20 q 460 -14 614 -14 z "},"٥":{"ha":871,"x_min":90,"x_max":781,"o":"m 433 -14 q 172 79 254 -14 q 90 361 90 172 q 137 652 90 513 q 262 870 183 791 q 437 949 342 949 q 608 873 530 949 q 733 658 685 798 q 781 361 781 519 q 744 146 781 229 q 633 25 707 63 q 433 -14 559 -14 m 432 155 q 571 367 571 155 q 531 662 571 542 q 431 782 492 782 q 362 727 394 782 q 311 574 330 671 q 292 366 292 477 q 432 155 292 155 z "},"٦":{"ha":724,"x_min":0,"x_max":585,"o":"m 378 760 l 0 760 l 0 936 l 585 936 l 585 0 l 378 0 l 378 760 z "},"٧":{"ha":804,"x_min":28,"x_max":777,"o":"m 28 936 l 244 936 l 370 410 q 400 212 393 294 l 404 212 q 417 312 406 243 q 435 410 428 381 l 559 936 l 777 936 l 509 0 l 296 0 l 28 936 z "},"٨":{"ha":804,"x_min":28,"x_max":777,"o":"m 296 936 l 509 936 l 777 0 l 559 0 l 435 526 q 416 624 427 556 q 404 724 406 692 l 400 724 q 370 526 393 642 l 244 0 l 28 0 l 296 936 z "},"٩":{"ha":833,"x_min":41,"x_max":708,"o":"m 501 350 l 390 350 q 41 657 41 350 q 129 872 41 795 q 366 950 216 950 q 624 840 539 950 q 708 510 708 729 l 708 0 l 501 0 l 501 350 m 501 510 q 468 719 501 651 q 366 786 435 786 q 279 750 310 786 q 248 653 248 715 q 286 547 248 583 q 396 510 323 510 l 501 510 z "},"۴":{"ha":873,"x_min":62,"x_max":825,"o":"m 62 936 l 267 936 l 326 782 q 436 739 365 752 q 395 786 409 757 q 380 851 380 816 q 543 972 380 972 q 632 958 593 972 l 612 868 q 554 878 584 878 q 517 864 531 878 q 503 822 503 850 q 571 734 503 753 q 626 758 608 741 q 652 807 644 774 q 660 895 660 840 l 825 895 l 825 878 q 761 673 825 745 q 582 602 696 602 q 471 609 515 602 q 371 644 427 617 l 615 0 l 400 0 l 62 936 z "},"۵":{"ha":871,"x_min":90,"x_max":781,"o":"m 529 155 q 585 372 585 155 q 563 571 585 474 q 506 725 541 669 q 431 782 471 782 q 358 722 394 782 q 300 567 322 663 q 278 372 278 471 q 342 157 278 157 q 373 187 363 157 q 386 275 382 218 l 489 273 q 500 185 492 216 q 529 155 508 155 m 301 -14 q 146 86 202 -14 q 90 361 90 185 q 137 652 90 513 q 262 870 183 791 q 437 949 342 949 q 608 873 530 949 q 733 658 685 798 q 781 361 781 519 q 726 84 781 181 q 572 -14 671 -14 q 492 9 529 -14 q 433 69 455 32 q 380 10 416 34 q 301 -14 344 -14 z "},"۶":{"ha":737,"x_min":90,"x_max":675,"o":"m 96 0 q 326 386 174 233 q 157 487 223 411 q 90 667 90 564 q 174 877 90 803 q 415 950 257 950 q 544 934 475 950 q 653 900 614 918 l 596 742 q 414 783 501 783 q 322 749 355 783 q 289 647 289 714 q 327 541 289 584 q 441 481 366 498 q 523 533 473 503 q 606 578 572 562 l 675 414 q 427 229 513 320 q 285 0 342 137 l 96 0 z "},"ﮨ":{"ha":500,"x_min":-14,"x_max":382,"o":"m 236 -310 q 128 -272 169 -310 q 87 -170 87 -233 q 163 0 87 -89 l -7 0 q -14 7 -14 0 l -14 161 q -7 167 -14 167 l 167 167 l 167 688 l 374 688 l 374 0 l 302 0 q 239 -127 239 -79 q 251 -160 239 -147 q 288 -174 264 -174 l 382 -174 l 382 -310 l 236 -310 z "},"ﮩ":{"ha":878,"x_min":-14,"x_max":892,"o":"m 885 167 q 892 161 892 167 l 892 7 q 885 0 892 0 l 714 0 l 714 -310 l 486 -310 q 104 0 200 -310 l -7 0 q -14 7 -14 0 l -14 161 q -7 167 -14 167 l 249 167 q 317 -26 285 36 q 394 -116 350 -88 q 507 -143 437 -143 l 507 167 l 885 167 z "},"ھ":{"ha":1282,"x_min":90,"x_max":1178,"o":"m 571 167 l 571 355 q 546 460 571 427 q 465 493 520 493 q 388 454 418 493 q 358 353 358 414 q 526 167 358 167 l 571 167 m 90 167 l 212 167 q 165 241 184 193 q 146 361 146 289 q 189 514 146 442 q 306 626 233 585 q 464 667 380 667 q 629 627 558 667 q 739 519 701 588 q 778 364 778 450 l 778 167 l 971 167 l 971 424 q 884 695 971 601 q 631 789 796 789 q 447 776 527 789 q 293 736 368 764 l 245 895 q 433 942 341 928 q 631 956 526 956 q 1041 824 904 956 q 1178 441 1178 692 l 1178 0 l 90 0 l 90 167 z "},"ے":{"ha":802,"x_min":62,"x_max":1003,"o":"m 355 -334 q 139 -275 216 -334 q 62 -111 62 -217 q 88 -5 62 -50 q 166 77 113 40 q 342 164 220 114 q 484 233 446 207 q 537 293 522 260 q 553 386 553 326 l 553 437 l 760 437 l 760 382 q 736 234 760 292 q 659 135 712 177 q 503 54 606 94 q 345 -13 386 9 q 286 -55 303 -35 q 269 -104 269 -76 q 353 -167 269 -167 l 1003 -167 l 1003 -334 l 355 -334 z "},"ﮯ":{"ha":539,"x_min":62,"x_max":966,"o":"m 602 167 q 608 161 608 167 l 608 7 q 602 0 608 0 l 419 0 q 307 -27 345 0 q 269 -98 269 -54 q 292 -148 269 -129 q 358 -167 314 -167 l 966 -167 l 966 -334 l 309 -334 q 132 -269 201 -334 q 62 -102 62 -204 q 109 36 62 -25 q 235 132 155 98 q 411 167 316 167 l 602 167 z "},"ک":{"ha":1232,"x_min":90,"x_max":1128,"o":"m 367 0 q 164 75 237 0 q 90 279 90 149 q 135 492 90 389 l 318 492 q 297 310 297 380 q 333 205 297 243 q 428 167 368 167 l 921 167 l 921 390 q 863 519 921 474 q 700 564 806 564 l 464 564 l 464 714 q 671 988 537 869 q 982 1169 805 1106 l 1059 983 q 832 876 939 947 q 679 730 726 804 l 732 730 q 1128 416 1128 730 l 1128 0 l 367 0 z "},"ﮏ":{"ha":1301,"x_min":90,"x_max":1315,"o":"m 367 0 q 164 75 237 0 q 90 279 90 149 q 135 492 90 389 l 318 492 q 297 310 297 380 q 333 205 297 243 q 428 167 368 167 l 921 167 l 921 390 q 863 519 921 474 q 700 564 806 564 l 464 564 l 464 714 q 671 988 537 869 q 982 1169 805 1106 l 1059 983 q 832 876 939 947 q 679 730 726 804 l 732 730 q 1128 416 1128 730 l 1128 167 l 1308 167 q 1315 161 1315 167 l 1315 7 q 1308 0 1315 0 l 367 0 z "},"گ":{"ha":1232,"x_min":90,"x_max":1128,"o":"m 367 0 q 164 75 237 0 q 90 279 90 149 q 135 492 90 389 l 318 492 q 297 310 297 380 q 333 205 297 243 q 428 167 368 167 l 921 167 l 921 390 q 863 519 921 474 q 700 564 806 564 l 464 564 l 464 714 q 671 988 537 869 q 982 1169 805 1106 l 1059 983 q 832 876 939 947 q 679 730 726 804 l 732 730 q 1128 416 1128 730 l 1128 0 l 367 0 m 414 946 q 607 1177 458 1048 q 904 1368 755 1305 l 944 1261 q 740 1153 842 1223 q 561 1002 637 1082 q 451 850 484 921 l 414 946 z "},"ﮔ":{"ha":847,"x_min":-14,"x_max":743,"o":"m -7 0 q -14 7 -14 0 l -14 161 q -7 167 -14 167 l 536 167 l 536 390 q 479 519 536 474 q 315 564 421 564 l 79 564 l 79 714 q 287 988 153 869 q 597 1169 420 1106 l 673 983 q 448 876 553 947 q 294 730 342 804 l 347 730 q 743 416 743 730 l 743 0 l -7 0 m 29 946 q 222 1177 74 1048 q 519 1368 370 1305 l 559 1261 q 355 1153 458 1223 q 176 1002 252 1082 q 66 850 100 921 l 29 946 z "},"ﮕ":{"ha":917,"x_min":-14,"x_max":930,"o":"m -7 0 q -14 7 -14 0 l -14 161 q -7 167 -14 167 l 536 167 l 536 390 q 479 519 536 474 q 315 564 421 564 l 79 564 l 79 714 q 287 988 153 869 q 597 1169 420 1106 l 673 983 q 448 876 553 947 q 294 730 342 804 l 347 730 q 743 416 743 730 l 743 167 l 924 167 q 930 161 930 167 l 930 7 q 924 0 930 0 l -7 0 m 29 946 q 222 1177 74 1048 q 519 1368 370 1305 l 559 1261 q 355 1153 458 1223 q 176 1002 252 1082 q 66 850 100 921 l 29 946 z "},"ﮓ":{"ha":1301,"x_min":90,"x_max":1315,"o":"m 367 0 q 164 75 237 0 q 90 279 90 149 q 135 492 90 389 l 318 492 q 297 310 297 380 q 333 205 297 243 q 428 167 368 167 l 921 167 l 921 390 q 863 519 921 474 q 700 564 806 564 l 464 564 l 464 714 q 671 988 537 869 q 982 1169 805 1106 l 1059 983 q 832 876 939 947 q 679 730 726 804 l 732 730 q 1128 416 1128 730 l 1128 167 l 1308 167 q 1315 161 1315 167 l 1315 7 q 1308 0 1315 0 l 367 0 m 414 946 q 607 1177 458 1048 q 904 1368 755 1305 l 944 1261 q 740 1153 842 1223 q 561 1002 637 1082 q 451 850 484 921 l 414 946 z "},"ں":{"ha":1057,"x_min":90,"x_max":939,"o":"m 468 -334 q 266 -285 352 -334 q 135 -148 180 -236 q 90 56 90 -59 q 109 216 90 134 q 161 363 128 298 l 345 363 q 310 207 323 288 q 297 54 297 125 q 348 -107 297 -47 q 482 -167 399 -167 l 524 -167 q 681 -109 631 -167 q 732 54 732 -51 l 732 688 l 939 688 l 939 49 q 529 -334 939 -334 l 468 -334 z "},"ﮟ":{"ha":1111,"x_min":90,"x_max":1125,"o":"m 1118 167 q 1125 161 1125 167 l 1125 7 q 1118 0 1125 0 l 937 0 q 529 -334 912 -334 l 468 -334 q 266 -285 352 -334 q 135 -148 180 -236 q 90 56 90 -59 q 109 216 90 134 q 161 363 128 298 l 345 363 q 310 207 323 288 q 297 54 297 125 q 348 -107 297 -47 q 482 -167 399 -167 l 524 -167 q 681 -109 631 -167 q 732 54 732 -51 l 732 688 l 939 688 l 939 167 l 1118 167 z "},"٪":{"ha":822,"x_min":69,"x_max":753,"o":"m 135 859 l 310 859 l 310 684 l 135 684 l 135 859 m 590 936 l 753 936 l 232 0 l 69 0 l 590 936 m 507 272 l 682 272 l 682 97 l 507 97 l 507 272 z "},"؟":{"ha":736,"x_min":90,"x_max":673,"o":"m 332 370 q 314 439 332 412 q 240 509 296 465 q 121 632 153 577 q 90 760 90 686 q 170 940 90 874 q 389 1006 249 1006 q 531 983 456 1006 q 673 921 607 960 l 604 771 q 493 819 547 800 q 392 839 439 839 q 312 814 338 839 q 286 750 286 789 q 294 697 286 720 q 321 655 302 675 q 389 595 339 634 q 484 492 456 541 q 511 379 511 443 l 511 329 l 332 329 l 332 370 m 414 -18 q 327 13 358 -18 q 296 97 296 43 q 327 182 296 153 q 414 212 357 212 q 502 183 471 212 q 533 97 533 154 q 502 12 533 42 q 414 -18 471 -18 z "},"،":{"ha":449,"x_min":90,"x_max":358,"o":"m 90 16 q 210 340 125 153 l 358 340 q 290 0 315 168 l 100 0 l 90 16 z "},"؛":{"ha":454,"x_min":90,"x_max":364,"o":"m 208 0 q 121 30 152 0 q 90 115 90 60 q 122 200 90 170 q 208 231 153 231 q 296 201 265 231 q 328 115 328 171 q 297 29 328 58 q 208 0 267 0 m 96 627 q 215 951 131 764 l 364 951 q 296 611 320 771 l 106 611 l 96 627 z "},"٫":{"ha":449,"x_min":90,"x_max":358,"o":"m 90 -179 q 158 161 133 -6 l 349 161 l 358 146 q 239 -179 323 9 l 90 -179 z "},"٬":{"ha":449,"x_min":90,"x_max":358,"o":"m 90 195 q 158 534 133 369 l 349 534 l 358 519 q 239 195 323 382 l 90 195 z "},"٭":{"ha":782,"x_min":56,"x_max":726,"o":"m 387 618 l 294 407 l 135 488 l 285 689 l 56 707 l 82 876 l 329 806 l 301 1055 l 479 1055 l 452 806 l 704 876 l 726 705 l 496 689 l 647 488 l 493 406 l 387 618 z "},"ً":{"ha":0,"x_min":-163,"x_max":163,"o":"m -163 1168 l 163 1289 l 163 1200 l -163 1078 l -163 1168 m -163 1325 l 163 1446 l 163 1357 l -163 1235 l -163 1325 z "},"ٍ":{"ha":0,"x_min":-163,"x_max":163,"o":"m -163 -475 l 163 -354 l 163 -443 l -163 -566 l -163 -475 m -163 -304 l 163 -183 l 163 -272 l -163 -395 l -163 -304 z "},"َ":{"ha":0,"x_min":-163,"x_max":163,"o":"m -163 1168 l 163 1289 l 163 1200 l -163 1078 l -163 1168 z "},"ُ":{"ha":0,"x_min":-204,"x_max":212,"o":"m -56 1083 q -204 1133 -135 1083 l -157 1202 q -58 1164 -98 1164 q -1 1171 -24 1164 q -40 1283 -40 1230 q -4 1370 -40 1337 q 89 1402 33 1402 q 179 1371 145 1402 q 212 1289 212 1339 q 175 1190 212 1238 q 76 1112 137 1141 q -56 1083 16 1083 m 72 1198 q 115 1239 102 1216 q 127 1283 127 1262 q 116 1312 127 1301 q 86 1324 104 1324 q 55 1312 68 1324 q 41 1276 41 1300 q 72 1198 41 1243 z "},"ٌ":{"ha":0,"x_min":-249,"x_max":265,"o":"m 32 1083 q -30 1090 -3 1083 q -80 1109 -57 1097 q -136 1150 -103 1121 l -197 1099 l -249 1165 l -127 1272 q 26 1164 -50 1164 q 54 1166 43 1164 q 12 1283 12 1226 q 48 1370 12 1337 q 142 1402 85 1402 q 232 1371 198 1402 q 265 1289 265 1339 q 234 1186 265 1233 q 148 1111 202 1139 q 32 1083 93 1083 m 129 1194 q 171 1236 159 1212 q 182 1280 182 1261 q 170 1312 182 1300 q 139 1324 158 1324 q 109 1312 122 1324 q 96 1276 96 1300 q 129 1194 96 1240 z "},"ِ":{"ha":0,"x_min":-163,"x_max":163,"o":"m -163 -304 l 163 -183 l 163 -272 l -163 -395 l -163 -304 z "},"ّ":{"ha":0,"x_min":-221,"x_max":236,"o":"m -100 1120 q -189 1155 -157 1120 q -221 1254 -221 1191 l -221 1341 l -135 1341 l -135 1276 q -125 1219 -135 1238 q -86 1200 -115 1200 q -45 1214 -58 1200 q -32 1264 -32 1227 l -32 1377 l 47 1377 l 47 1292 q 58 1244 47 1261 q 100 1227 68 1227 q 139 1242 128 1227 q 150 1304 150 1257 l 150 1397 l 236 1397 l 236 1282 q 203 1183 236 1218 q 110 1147 170 1147 q 12 1189 46 1147 q -100 1120 -22 1120 z "},"ْ":{"ha":0,"x_min":-153,"x_max":154,"o":"m -1 1133 q -112 1173 -71 1133 q -153 1279 -153 1213 q -112 1385 -153 1345 q -1 1425 -71 1425 q 111 1385 67 1425 q 154 1280 154 1345 q 112 1174 154 1215 q -1 1133 69 1133 m -1 1218 q 43 1234 26 1218 q 60 1279 60 1251 q 43 1324 60 1308 q -1 1340 26 1340 q -45 1324 -28 1340 q -62 1279 -62 1308 q -47 1234 -62 1251 q -1 1218 -32 1218 z "},"ٓ":{"ha":0,"x_min":-220,"x_max":268,"o":"m -220 1059 q -173 1192 -211 1146 q -77 1238 -135 1238 q -21 1226 -48 1238 q 33 1199 7 1214 q 82 1173 58 1185 q 125 1161 105 1161 q 171 1179 155 1161 q 197 1239 186 1197 l 268 1239 q 224 1108 261 1156 q 125 1060 186 1060 q 71 1072 98 1060 q 18 1098 44 1084 q -32 1124 -7 1112 q -77 1136 -56 1136 q -123 1118 -107 1136 q -149 1059 -139 1100 l -220 1059 z "},"ٔ":{"ha":0,"x_min":-138,"x_max":155,"o":"m -138 1132 l -58 1145 q -103 1182 -85 1158 q -121 1239 -121 1206 q -79 1332 -121 1299 q 32 1365 -38 1365 q 146 1340 100 1365 l 118 1270 q 43 1287 83 1287 q -5 1270 13 1287 q -24 1221 -24 1252 q -12 1183 -24 1199 q 18 1158 1 1166 l 43 1162 q 155 1177 113 1173 l 155 1096 q -8 1079 106 1093 q -138 1061 -123 1065 l -138 1132 z "},"ٕ":{"ha":0,"x_min":-151,"x_max":142,"o":"m -151 -339 l -72 -326 q -117 -289 -100 -313 q -135 -232 -135 -264 q -94 -140 -135 -174 q 18 -106 -52 -106 q 132 -131 87 -106 l 104 -201 q 29 -183 66 -183 q -19 -201 -1 -183 q -37 -250 -37 -219 q 4 -313 -37 -292 l 29 -309 q 142 -294 97 -298 l 142 -375 q -22 -392 92 -378 q -151 -410 -136 -406 l -151 -339 z "},"ٰ":{"ha":0,"x_min":-40,"x_max":53,"o":"m -40 1396 l 53 1396 l 53 1126 l -40 1126 l -40 1396 z "},"ٖ":{"ha":0,"x_min":-40,"x_max":53,"o":"m -40 -268 l 53 -268 l 53 -538 l -40 -538 l -40 -268 z "},"ؕ":{"ha":0,"x_min":-161,"x_max":168,"o":"m -161 889 l -140 889 l -140 1141 l -57 1141 l -57 979 q 53 1042 -19 1042 q 141 1009 115 1042 q 168 907 168 977 l 168 802 l -161 802 l -161 889 m 85 889 l 85 896 q 74 950 85 932 q 37 968 63 968 q -19 949 2 968 q -56 904 -41 931 l -57 889 l 85 889 z "},"ﺪ":{"ha":909,"x_min":62,"x_max":924,"o":"m 62 167 l 526 167 q 457 374 498 295 q 352 510 416 453 q 197 606 289 568 l 275 800 q 570 574 458 727 q 734 167 682 420 l 917 167 q 924 161 924 167 l 924 7 q 917 0 924 0 l 62 0 l 62 167 z "},"ہ":{"ha":1104,"x_min":69,"x_max":1118,"o":"m 1111 167 q 1118 161 1118 167 l 1118 7 q 1111 0 1118 0 l 730 0 l 730 504 q 587 419 652 475 q 458 273 522 363 q 301 0 395 182 l 69 0 q 226 276 178 201 q 326 409 275 350 q 435 517 376 469 q 566 606 494 566 q 724 673 637 645 l 937 673 l 937 167 l 1111 167 z "},"چ":{"ha":949,"x_min":62,"x_max":859,"o":"m 379 -453 q 150 -374 237 -453 q 62 -164 62 -295 q 92 -29 62 -90 q 178 82 121 33 q 326 175 235 132 q 568 260 416 218 q 534 372 547 326 q 468 494 513 454 q 349 534 423 534 q 142 471 258 534 l 68 624 q 222 680 135 659 q 392 701 310 701 q 714 433 668 701 q 769 241 738 302 q 859 136 801 180 l 753 0 q 640 117 685 54 q 405 40 473 74 q 301 -41 337 5 q 265 -153 265 -87 q 309 -247 265 -211 q 421 -283 353 -283 l 379 -453 m 616 -429 q 561 -408 583 -429 q 538 -345 538 -387 q 561 -280 538 -300 q 616 -260 583 -260 q 674 -283 653 -260 q 696 -345 696 -307 q 674 -406 696 -382 q 616 -429 653 -429 m 498 -254 q 431 -227 456 -254 q 406 -154 406 -200 q 430 -81 406 -108 q 498 -54 454 -54 q 566 -81 542 -54 q 591 -154 591 -108 q 565 -228 591 -201 q 498 -254 540 -254 m 735 -254 q 667 -228 692 -254 q 642 -154 642 -201 q 666 -81 642 -108 q 735 -54 690 -54 q 802 -81 777 -54 q 827 -154 827 -107 q 801 -228 827 -201 q 735 -254 776 -254 z "},"ﭻ":{"ha":896,"x_min":62,"x_max":909,"o":"m 379 -453 q 150 -374 237 -453 q 62 -164 62 -295 q 92 -28 62 -90 q 179 84 122 34 q 326 176 236 134 q 570 260 416 218 q 534 372 550 315 q 468 495 512 455 q 349 534 423 534 q 142 471 258 534 l 68 624 q 222 680 135 659 q 392 701 310 701 q 714 433 668 701 q 785 238 736 309 q 895 167 833 167 l 903 167 q 909 161 909 167 l 909 7 q 903 0 909 0 l 895 0 q 740 28 798 0 q 640 117 681 57 q 405 40 473 74 q 301 -41 337 5 q 265 -153 265 -87 q 309 -247 265 -211 q 421 -283 353 -283 l 379 -453 m 616 -429 q 561 -408 583 -429 q 538 -345 538 -387 q 561 -280 538 -300 q 616 -260 583 -260 q 674 -283 653 -260 q 696 -345 696 -307 q 674 -406 696 -382 q 616 -429 653 -429 m 498 -254 q 431 -227 456 -254 q 406 -154 406 -200 q 430 -81 406 -108 q 498 -54 454 -54 q 566 -81 542 -54 q 591 -154 591 -108 q 565 -228 591 -201 q 498 -254 540 -254 m 735 -254 q 667 -228 692 -254 q 642 -154 642 -201 q 666 -81 642 -108 q 735 -54 690 -54 q 802 -81 777 -54 q 827 -154 827 -107 q 801 -228 827 -201 q 735 -254 776 -254 z "},"أ":{"ha":485,"x_min":83,"x_max":376,"o":"m 139 972 l 346 972 l 346 0 l 139 0 l 139 972 m 83 1132 l 163 1145 q 118 1182 136 1158 q 100 1239 100 1206 q 142 1332 100 1299 q 253 1365 183 1365 q 367 1340 321 1365 l 339 1270 q 264 1287 304 1287 q 216 1270 234 1287 q 197 1221 197 1252 q 210 1183 197 1199 q 239 1158 222 1166 l 264 1162 q 376 1177 334 1173 l 376 1096 q 213 1079 327 1093 q 83 1061 98 1065 l 83 1132 z "},"ﺄ":{"ha":513,"x_min":83,"x_max":526,"o":"m 519 167 q 526 161 526 167 l 526 7 q 519 0 526 0 l 139 0 l 139 972 l 346 972 l 346 167 l 519 167 m 83 1132 l 163 1145 q 118 1182 136 1158 q 100 1239 100 1206 q 142 1332 100 1299 q 253 1365 183 1365 q 367 1340 321 1365 l 339 1270 q 264 1287 304 1287 q 216 1270 234 1287 q 197 1221 197 1252 q 210 1183 197 1199 q 239 1158 222 1166 l 264 1162 q 376 1177 334 1173 l 376 1096 q 213 1079 327 1093 q 83 1061 98 1065 l 83 1132 z "},"إ":{"ha":485,"x_min":94,"x_max":387,"o":"m 139 1055 l 346 1055 l 346 0 l 139 0 l 139 1055 m 94 -339 l 174 -326 q 128 -289 146 -313 q 111 -232 111 -264 q 152 -140 111 -174 q 264 -106 193 -106 q 378 -131 332 -106 l 350 -201 q 275 -183 311 -183 q 227 -201 245 -183 q 208 -250 208 -219 q 250 -313 208 -292 l 275 -309 q 387 -294 342 -298 l 387 -375 q 223 -392 338 -378 q 94 -410 109 -406 l 94 -339 z "},"ﺈ":{"ha":513,"x_min":94,"x_max":526,"o":"m 519 167 q 526 161 526 167 l 526 7 q 519 0 526 0 l 139 0 l 139 1055 l 346 1055 l 346 167 l 519 167 m 94 -339 l 174 -326 q 128 -289 146 -313 q 111 -232 111 -264 q 152 -140 111 -174 q 264 -106 193 -106 q 378 -131 332 -106 l 350 -201 q 275 -183 311 -183 q 227 -201 245 -183 q 208 -250 208 -219 q 250 -313 208 -292 l 275 -309 q 387 -294 342 -298 l 387 -375 q 223 -392 338 -378 q 94 -410 109 -406 l 94 -339 z "},"آ":{"ha":485,"x_min":4,"x_max":492,"o":"m 139 972 l 346 972 l 346 0 l 139 0 l 139 972 m 4 1059 q 51 1192 13 1146 q 147 1238 89 1238 q 203 1226 176 1238 q 256 1199 231 1214 q 306 1173 282 1185 q 349 1161 329 1161 q 395 1179 379 1161 q 421 1239 410 1197 l 492 1239 q 448 1108 485 1156 q 349 1060 410 1060 q 295 1072 321 1060 q 242 1098 268 1084 q 192 1124 216 1112 q 147 1136 168 1136 q 101 1118 117 1136 q 75 1059 85 1100 l 4 1059 z "},"ﺂ":{"ha":513,"x_min":4,"x_max":526,"o":"m 519 167 q 526 161 526 167 l 526 7 q 519 0 526 0 l 139 0 l 139 972 l 346 972 l 346 167 l 519 167 m 4 1059 q 51 1192 13 1146 q 147 1238 89 1238 q 203 1226 176 1238 q 256 1199 231 1214 q 306 1173 282 1185 q 349 1161 329 1161 q 395 1179 379 1161 q 421 1239 410 1197 l 492 1239 q 448 1108 485 1156 q 349 1060 410 1060 q 295 1072 321 1060 q 242 1098 268 1084 q 192 1124 216 1112 q 147 1136 168 1136 q 101 1118 117 1136 q 75 1059 85 1100 l 4 1059 z "},"ٱ":{"ha":485,"x_min":61,"x_max":399,"o":"m 139 972 l 346 972 l 346 0 l 139 0 l 139 972 m 61 1147 l 125 1147 q 280 1289 174 1289 q 368 1252 336 1289 q 399 1147 399 1214 l 399 1069 l 61 1069 l 61 1147 m 329 1147 q 316 1196 329 1182 q 277 1210 302 1210 q 231 1192 252 1210 q 201 1147 211 1175 l 329 1147 z "},"ﭑ":{"ha":513,"x_min":61,"x_max":526,"o":"m 519 167 q 526 161 526 167 l 526 7 q 519 0 526 0 l 139 0 l 139 972 l 346 972 l 346 167 l 519 167 m 61 1147 l 125 1147 q 280 1289 174 1289 q 368 1252 336 1289 q 399 1147 399 1214 l 399 1069 l 61 1069 l 61 1147 m 329 1147 q 316 1196 329 1182 q 277 1210 302 1210 q 231 1192 252 1210 q 201 1147 211 1175 l 329 1147 z "},"ب":{"ha":1204,"x_min":90,"x_max":1086,"o":"m 367 0 q 164 75 239 0 q 90 279 90 149 q 102 391 90 332 q 135 492 115 450 l 318 492 q 297 310 297 401 q 333 206 297 245 q 428 167 369 167 l 879 167 l 879 688 l 1086 688 l 1086 0 l 367 0 m 618 -347 q 550 -320 575 -347 q 525 -248 525 -294 q 550 -174 525 -201 q 618 -147 574 -147 q 685 -174 661 -147 q 710 -248 710 -200 q 685 -320 710 -294 q 618 -347 659 -347 z "},"ﺑ":{"ha":492,"x_min":-14,"x_max":374,"o":"m -7 0 q -14 7 -14 0 l -14 161 q -7 167 -14 167 l 167 167 l 167 688 l 374 688 l 374 0 l -7 0 m 258 -347 q 190 -320 215 -347 q 165 -248 165 -294 q 190 -174 165 -201 q 258 -147 214 -147 q 325 -174 300 -147 q 350 -248 350 -200 q 325 -320 350 -294 q 258 -347 299 -347 z "},"ﺒ":{"ha":547,"x_min":-14,"x_max":561,"o":"m 554 167 q 561 161 561 167 l 561 7 q 554 0 561 0 l -7 0 q -14 7 -14 0 l -14 161 q -7 167 -14 167 l 167 167 l 167 688 l 374 688 l 374 167 l 554 167 m 266 -347 q 197 -320 222 -347 q 172 -248 172 -294 q 197 -174 172 -201 q 266 -147 222 -147 q 333 -174 308 -147 q 357 -248 357 -200 q 332 -320 357 -294 q 266 -347 307 -347 z "},"ﺐ":{"ha":1260,"x_min":90,"x_max":1274,"o":"m 367 0 q 164 75 239 0 q 90 279 90 149 q 102 391 90 332 q 135 492 115 450 l 318 492 q 297 310 297 401 q 333 206 297 245 q 428 167 369 167 l 879 167 l 879 688 l 1086 688 l 1086 167 l 1267 167 q 1274 161 1274 167 l 1274 7 q 1267 0 1274 0 l 367 0 m 618 -347 q 550 -320 575 -347 q 525 -248 525 -294 q 550 -174 525 -201 q 618 -147 574 -147 q 685 -174 661 -147 q 710 -248 710 -200 q 685 -320 710 -294 q 618 -347 659 -347 z "},"پ":{"ha":1204,"x_min":90,"x_max":1086,"o":"m 367 0 q 164 75 239 0 q 90 279 90 149 q 102 391 90 332 q 135 492 115 450 l 318 492 q 297 310 297 401 q 333 206 297 245 q 428 167 369 167 l 879 167 l 879 688 l 1086 688 l 1086 0 l 367 0 m 643 -457 q 587 -436 610 -457 q 564 -372 564 -415 q 587 -308 564 -328 q 643 -288 610 -288 q 701 -311 680 -288 q 722 -372 722 -334 q 701 -434 722 -410 q 643 -457 680 -457 m 525 -282 q 457 -255 482 -282 q 432 -182 432 -228 q 456 -109 432 -136 q 525 -82 481 -82 q 593 -109 568 -82 q 617 -182 617 -136 q 592 -255 617 -229 q 525 -282 566 -282 m 762 -282 q 693 -256 718 -282 q 668 -182 668 -229 q 692 -109 668 -136 q 762 -82 717 -82 q 828 -109 804 -82 q 853 -182 853 -135 q 828 -255 853 -229 q 762 -282 802 -282 z "},"ﭗ":{"ha":1260,"x_min":90,"x_max":1274,"o":"m 367 0 q 164 75 239 0 q 90 279 90 149 q 102 391 90 332 q 135 492 115 450 l 318 492 q 297 310 297 401 q 333 206 297 245 q 428 167 369 167 l 879 167 l 879 688 l 1086 688 l 1086 167 l 1267 167 q 1274 161 1274 167 l 1274 7 q 1267 0 1274 0 l 367 0 m 643 -457 q 587 -436 610 -457 q 564 -372 564 -415 q 587 -308 564 -328 q 643 -288 610 -288 q 701 -311 680 -288 q 722 -372 722 -334 q 701 -434 722 -410 q 643 -457 680 -457 m 525 -282 q 457 -255 482 -282 q 432 -182 432 -228 q 456 -109 432 -136 q 525 -82 481 -82 q 593 -109 568 -82 q 617 -182 617 -136 q 592 -255 617 -229 q 525 -282 566 -282 m 762 -282 q 693 -256 718 -282 q 668 -182 668 -229 q 692 -109 668 -136 q 762 -82 717 -82 q 828 -109 804 -82 q 853 -182 853 -135 q 828 -255 853 -229 q 762 -282 802 -282 z "},"ﭘ":{"ha":561,"x_min":-14,"x_max":443,"o":"m -7 0 q -14 7 -14 0 l -14 161 q -7 167 -14 167 l 236 167 l 236 688 l 443 688 l 443 0 l -7 0 m 222 -457 q 166 -436 189 -457 q 143 -372 143 -415 q 166 -308 143 -328 q 222 -288 189 -288 q 280 -311 258 -288 q 301 -372 301 -334 q 280 -434 301 -410 q 222 -457 258 -457 m 104 -282 q 36 -255 61 -282 q 11 -182 11 -228 q 35 -109 11 -136 q 104 -82 60 -82 q 172 -109 147 -82 q 196 -182 196 -136 q 171 -255 196 -229 q 104 -282 145 -282 m 340 -282 q 272 -256 297 -282 q 247 -182 247 -229 q 271 -109 247 -136 q 340 -82 296 -82 q 407 -109 382 -82 q 432 -182 432 -135 q 407 -255 432 -229 q 340 -282 381 -282 z "},"ﭙ":{"ha":616,"x_min":-14,"x_max":631,"o":"m -7 0 q -14 7 -14 0 l -14 161 q -7 167 -14 167 l 208 167 l 208 688 l 415 688 l 415 167 l 624 167 q 631 161 631 167 l 631 7 q 624 0 631 0 l -7 0 m 312 -457 q 256 -436 279 -457 q 233 -372 233 -415 q 256 -308 233 -328 q 312 -288 279 -288 q 370 -311 349 -288 q 391 -372 391 -334 q 370 -434 391 -410 q 312 -457 349 -457 m 194 -282 q 126 -255 151 -282 q 101 -182 101 -228 q 125 -109 101 -136 q 194 -82 150 -82 q 262 -109 237 -82 q 286 -182 286 -136 q 261 -255 286 -229 q 194 -282 235 -282 m 431 -282 q 362 -256 387 -282 q 337 -182 337 -229 q 361 -109 337 -136 q 431 -82 386 -82 q 497 -109 473 -82 q 522 -182 522 -135 q 497 -255 522 -229 q 431 -282 471 -282 z "},"ت":{"ha":1204,"x_min":90,"x_max":1086,"o":"m 367 0 q 164 75 239 0 q 90 279 90 149 q 102 391 90 332 q 135 492 115 450 l 318 492 q 297 310 297 401 q 333 206 297 245 q 428 167 369 167 l 879 167 l 879 688 l 1086 688 l 1086 0 l 367 0 m 468 688 q 400 715 425 688 q 375 788 375 742 q 400 862 375 835 q 468 888 425 888 q 535 862 511 888 q 559 788 559 836 q 534 714 559 741 q 468 688 509 688 m 704 688 q 636 715 661 688 q 611 788 611 742 q 636 862 611 835 q 704 888 661 888 q 772 862 747 888 q 796 788 796 835 q 771 715 796 742 q 704 688 745 688 z "},"ﺗ":{"ha":561,"x_min":-14,"x_max":547,"o":"m -7 0 q -14 7 -14 0 l -14 161 q -7 167 -14 167 l 236 167 l 236 688 l 443 688 l 443 0 l -7 0 m 219 807 q 151 834 176 807 q 126 907 126 861 q 151 980 126 954 q 219 1007 176 1007 q 286 981 262 1007 q 311 907 311 954 q 286 833 311 859 q 219 807 260 807 m 455 807 q 387 834 412 807 q 362 907 362 861 q 387 980 362 954 q 455 1007 412 1007 q 523 980 498 1007 q 547 907 547 954 q 522 834 547 861 q 455 807 496 807 z "},"ﺘ":{"ha":616,"x_min":-14,"x_max":631,"o":"m -7 0 q -14 7 -14 0 l -14 161 q -7 167 -14 167 l 208 167 l 208 688 l 415 688 l 415 167 l 624 167 q 631 161 631 167 l 631 7 q 624 0 631 0 l -7 0 m 182 807 q 114 834 139 807 q 89 907 89 861 q 114 980 89 954 q 182 1007 138 1007 q 249 981 224 1007 q 273 907 273 954 q 248 833 273 859 q 182 807 223 807 m 418 807 q 350 834 375 807 q 325 907 325 861 q 350 980 325 954 q 418 1007 374 1007 q 486 980 461 1007 q 510 907 510 954 q 485 834 510 861 q 418 807 459 807 z "},"ﺖ":{"ha":1260,"x_min":90,"x_max":1274,"o":"m 367 0 q 164 75 239 0 q 90 279 90 149 q 102 391 90 332 q 135 492 115 450 l 318 492 q 297 310 297 401 q 333 206 297 245 q 428 167 369 167 l 879 167 l 879 688 l 1086 688 l 1086 167 l 1267 167 q 1274 161 1274 167 l 1274 7 q 1267 0 1274 0 l 367 0 m 468 688 q 400 715 425 688 q 375 788 375 742 q 400 862 375 835 q 468 888 425 888 q 535 862 511 888 q 559 788 559 836 q 534 714 559 741 q 468 688 509 688 m 704 688 q 636 715 661 688 q 611 788 611 742 q 636 862 611 835 q 704 888 661 888 q 772 862 747 888 q 796 788 796 835 q 771 715 796 742 q 704 688 745 688 z "},"ث":{"ha":1204,"x_min":90,"x_max":1086,"o":"m 367 0 q 164 75 239 0 q 90 279 90 149 q 102 391 90 332 q 135 492 115 450 l 318 492 q 297 310 297 401 q 333 206 297 245 q 428 167 369 167 l 879 167 l 879 688 l 1086 688 l 1086 0 l 367 0 m 579 912 q 523 933 546 912 q 500 997 500 954 q 523 1061 500 1041 q 579 1081 546 1081 q 637 1059 615 1081 q 659 997 659 1036 q 637 936 659 959 q 579 912 616 912 m 461 688 q 393 715 418 688 q 368 788 368 742 q 393 862 368 835 q 461 888 418 888 q 529 862 505 888 q 553 788 553 835 q 528 715 553 742 q 461 688 503 688 m 698 688 q 629 715 654 688 q 604 788 604 742 q 629 862 604 835 q 698 888 654 888 q 765 862 740 888 q 789 788 789 836 q 764 715 789 742 q 698 688 739 688 z "},"ﺛ":{"ha":561,"x_min":-14,"x_max":550,"o":"m -7 0 q -14 7 -14 0 l -14 161 q -7 167 -14 167 l 236 167 l 236 688 l 443 688 l 443 0 l -7 0 m 340 1031 q 284 1052 307 1031 q 261 1116 261 1073 q 284 1180 261 1160 q 340 1200 307 1200 q 397 1177 376 1200 q 419 1116 419 1155 q 398 1054 419 1078 q 340 1031 376 1031 m 222 807 q 154 834 179 807 q 129 907 129 861 q 154 980 129 954 q 222 1007 178 1007 q 290 980 265 1007 q 314 907 314 954 q 289 834 314 861 q 222 807 263 807 m 458 807 q 390 834 415 807 q 365 907 365 861 q 390 980 365 954 q 458 1007 414 1007 q 525 981 500 1007 q 550 907 550 954 q 525 834 550 861 q 458 807 499 807 z "},"ﺜ":{"ha":616,"x_min":-14,"x_max":631,"o":"m -7 0 q -14 7 -14 0 l -14 161 q -7 167 -14 167 l 208 167 l 208 688 l 415 688 l 415 167 l 624 167 q 631 161 631 167 l 631 7 q 624 0 631 0 l -7 0 m 298 1031 q 242 1052 265 1031 q 220 1116 220 1073 q 242 1180 220 1160 q 298 1200 265 1200 q 356 1177 334 1200 q 378 1116 378 1155 q 356 1054 378 1078 q 298 1031 335 1031 m 180 807 q 113 834 138 807 q 87 907 87 861 q 112 980 87 954 q 180 1007 137 1007 q 248 980 224 1007 q 273 907 273 954 q 247 834 273 861 q 180 807 222 807 m 417 807 q 349 834 374 807 q 323 907 323 861 q 348 980 323 954 q 417 1007 373 1007 q 484 981 459 1007 q 509 907 509 954 q 483 834 509 861 q 417 807 458 807 z "},"ﺚ":{"ha":1260,"x_min":90,"x_max":1274,"o":"m 367 0 q 164 75 239 0 q 90 279 90 149 q 102 391 90 332 q 135 492 115 450 l 318 492 q 297 310 297 401 q 333 206 297 245 q 428 167 369 167 l 879 167 l 879 688 l 1086 688 l 1086 167 l 1267 167 q 1274 161 1274 167 l 1274 7 q 1267 0 1274 0 l 367 0 m 579 912 q 523 933 546 912 q 500 997 500 954 q 523 1061 500 1041 q 579 1081 546 1081 q 637 1059 615 1081 q 659 997 659 1036 q 637 936 659 959 q 579 912 616 912 m 461 688 q 393 715 418 688 q 368 788 368 742 q 393 862 368 835 q 461 888 418 888 q 529 862 505 888 q 553 788 553 835 q 528 715 553 742 q 461 688 503 688 m 698 688 q 629 715 654 688 q 604 788 604 742 q 629 862 604 835 q 698 888 654 888 q 765 862 740 888 q 789 788 789 836 q 764 715 789 742 q 698 688 739 688 z "},"ٹ":{"ha":1204,"x_min":90,"x_max":1086,"o":"m 367 0 q 164 75 239 0 q 90 279 90 149 q 102 391 90 332 q 135 492 115 450 l 318 492 q 297 310 297 401 q 333 206 297 245 q 428 167 369 167 l 879 167 l 879 688 l 1086 688 l 1086 0 l 367 0 m 418 777 l 439 777 l 439 1029 l 522 1029 l 522 867 q 632 930 560 930 q 721 898 694 930 q 747 795 747 865 l 747 690 l 418 690 l 418 777 m 664 777 l 664 784 q 653 838 664 821 q 616 856 642 856 q 560 838 581 856 q 524 792 538 819 l 522 777 l 664 777 z "},"ﭨ":{"ha":561,"x_min":-14,"x_max":497,"o":"m -7 0 q -14 7 -14 0 l -14 161 q -7 167 -14 167 l 236 167 l 236 688 l 443 688 l 443 0 l -7 0 m 168 889 l 189 889 l 189 1141 l 272 1141 l 272 979 q 382 1042 310 1042 q 470 1009 444 1042 q 497 907 497 977 l 497 802 l 168 802 l 168 889 m 414 889 l 414 896 q 403 950 414 932 q 366 968 392 968 q 310 949 331 968 q 273 904 288 931 l 272 889 l 414 889 z "},"ﭩ":{"ha":616,"x_min":-14,"x_max":631,"o":"m -7 0 q -14 7 -14 0 l -14 161 q -7 167 -14 167 l 208 167 l 208 688 l 415 688 l 415 167 l 624 167 q 631 161 631 167 l 631 7 q 624 0 631 0 l -7 0 m 138 889 l 159 889 l 159 1141 l 243 1141 l 243 979 q 353 1042 281 1042 q 441 1009 414 1042 q 468 907 468 977 l 468 802 l 138 802 l 138 889 m 385 889 l 385 896 q 374 950 385 932 q 337 968 363 968 q 280 949 302 968 q 244 904 259 931 l 243 889 l 385 889 z "},"ﭧ":{"ha":1260,"x_min":90,"x_max":1274,"o":"m 367 0 q 164 75 239 0 q 90 279 90 149 q 102 391 90 332 q 135 492 115 450 l 318 492 q 297 310 297 401 q 333 206 297 245 q 428 167 369 167 l 879 167 l 879 688 l 1086 688 l 1086 167 l 1267 167 q 1274 161 1274 167 l 1274 7 q 1267 0 1274 0 l 367 0 m 418 777 l 439 777 l 439 1029 l 522 1029 l 522 867 q 632 930 560 930 q 721 898 694 930 q 747 795 747 865 l 747 690 l 418 690 l 418 777 m 664 777 l 664 784 q 653 838 664 821 q 616 856 642 856 q 560 838 581 856 q 524 792 538 819 l 522 777 l 664 777 z "},"ة":{"ha":876,"x_min":90,"x_max":786,"o":"m 436 -14 q 178 67 267 -14 q 90 306 90 148 q 135 506 90 414 q 258 649 179 597 q 440 701 338 701 q 612 651 534 701 q 738 507 689 601 q 786 306 786 413 q 698 64 786 141 q 436 -14 610 -14 m 435 155 q 543 194 508 155 q 578 313 578 233 q 535 468 578 402 q 433 534 493 534 q 332 470 374 534 q 290 313 290 406 q 326 194 290 233 q 435 155 361 155 m 301 807 q 233 834 258 807 q 208 907 208 861 q 233 980 208 954 q 301 1007 258 1007 q 368 981 344 1007 q 393 907 393 954 q 368 833 393 859 q 301 807 342 807 m 537 807 q 469 834 494 807 q 444 907 444 861 q 469 980 444 954 q 537 1007 494 1007 q 605 980 581 1007 q 629 907 629 954 q 604 834 629 861 q 537 807 578 807 z "},"ﺔ":{"ha":909,"x_min":90,"x_max":924,"o":"m 917 167 q 924 161 924 167 l 924 7 q 917 0 924 0 l 496 0 q 197 90 303 0 q 90 340 90 180 q 139 522 90 443 q 279 645 188 602 q 496 688 370 688 l 534 688 l 534 755 l 743 755 l 743 167 l 917 167 m 536 167 l 536 521 l 500 521 q 354 474 405 521 q 302 339 302 427 q 353 212 302 256 q 497 167 403 167 l 536 167 m 407 843 q 339 870 364 843 q 314 943 314 897 q 339 1016 314 989 q 407 1043 363 1043 q 474 1017 450 1043 q 498 943 498 990 q 473 869 498 895 q 407 843 448 843 m 643 843 q 575 870 600 843 q 550 943 550 897 q 575 1016 550 989 q 643 1043 600 1043 q 711 1016 686 1043 q 735 943 735 989 q 710 870 735 897 q 643 843 684 843 z "},"ﭼ":{"ha":851,"x_min":-14,"x_max":761,"o":"m -7 0 q -14 7 -14 0 l -14 161 q -7 167 -14 167 l 553 167 l 553 168 q 469 366 498 217 q 413 497 450 459 q 302 534 376 534 q 211 522 254 534 q 118 482 168 510 l 56 635 q 346 701 180 701 q 562 639 485 701 q 664 433 640 576 q 761 167 700 227 l 761 0 l -7 0 m 369 -457 q 313 -436 336 -457 q 290 -372 290 -415 q 313 -308 290 -328 q 369 -288 336 -288 q 427 -311 406 -288 q 448 -372 448 -334 q 427 -434 448 -410 q 369 -457 406 -457 m 251 -282 q 183 -255 208 -282 q 158 -182 158 -228 q 182 -109 158 -136 q 251 -82 207 -82 q 319 -109 294 -82 q 343 -182 343 -136 q 318 -255 343 -229 q 251 -282 292 -282 m 488 -282 q 419 -256 444 -282 q 394 -182 394 -229 q 418 -109 394 -136 q 488 -82 443 -82 q 554 -109 530 -82 q 579 -182 579 -135 q 554 -255 579 -229 q 488 -282 528 -282 z "},"ﭽ":{"ha":844,"x_min":-14,"x_max":859,"o":"m -7 0 q -14 7 -14 0 l -14 161 q -7 167 -14 167 l 554 167 q 469 366 499 218 q 413 497 450 459 q 302 534 376 534 q 211 522 254 534 q 118 482 168 510 l 56 635 q 346 701 180 701 q 562 639 485 701 q 664 433 640 576 q 761 167 700 227 l 851 167 q 859 161 859 167 l 859 7 q 851 0 859 0 l -7 0 m 369 -457 q 313 -436 336 -457 q 290 -372 290 -415 q 313 -308 290 -328 q 369 -288 336 -288 q 427 -311 406 -288 q 448 -372 448 -334 q 427 -434 448 -410 q 369 -457 406 -457 m 251 -282 q 183 -255 208 -282 q 158 -182 158 -228 q 182 -109 158 -136 q 251 -82 207 -82 q 319 -109 294 -82 q 343 -182 343 -136 q 318 -255 343 -229 q 251 -282 292 -282 m 488 -282 q 419 -256 444 -282 q 394 -182 394 -229 q 418 -109 394 -136 q 488 -82 443 -82 q 554 -109 530 -82 q 579 -182 579 -135 q 554 -255 579 -229 q 488 -282 528 -282 z "},"ج":{"ha":949,"x_min":62,"x_max":859,"o":"m 379 -453 q 150 -374 237 -453 q 62 -164 62 -295 q 92 -29 62 -90 q 178 82 121 33 q 326 175 235 132 q 568 260 416 218 q 534 372 547 326 q 468 494 513 454 q 349 534 423 534 q 142 471 258 534 l 68 624 q 222 680 135 659 q 392 701 310 701 q 714 433 668 701 q 769 241 738 302 q 859 136 801 180 l 753 0 q 640 117 685 54 q 405 40 473 74 q 301 -41 337 5 q 265 -153 265 -87 q 309 -247 265 -211 q 421 -283 353 -283 q 625 -254 514 -283 l 648 -406 q 379 -453 513 -453 m 478 -210 q 410 -183 435 -210 q 385 -110 385 -156 q 409 -36 385 -63 q 478 -9 434 -9 q 545 -36 520 -9 q 570 -110 570 -62 q 544 -183 570 -156 q 478 -210 519 -210 z "},"ﺟ":{"ha":851,"x_min":-14,"x_max":761,"o":"m -7 0 q -14 7 -14 0 l -14 161 q -7 167 -14 167 l 553 167 l 553 168 q 469 366 498 217 q 413 497 450 459 q 302 534 376 534 q 211 522 254 534 q 118 482 168 510 l 56 635 q 346 701 180 701 q 562 639 485 701 q 664 433 640 576 q 761 167 700 227 l 761 0 l -7 0 m 331 -347 q 262 -320 288 -347 q 237 -248 237 -294 q 262 -174 237 -201 q 331 -147 287 -147 q 398 -174 373 -147 q 422 -248 422 -200 q 397 -320 422 -294 q 331 -347 372 -347 z "},"ﺠ":{"ha":844,"x_min":-14,"x_max":859,"o":"m -7 0 q -14 7 -14 0 l -14 161 q -7 167 -14 167 l 554 167 q 469 366 499 218 q 413 497 450 459 q 302 534 376 534 q 211 522 254 534 q 118 482 168 510 l 56 635 q 346 701 180 701 q 562 639 485 701 q 664 433 640 576 q 761 167 700 227 l 851 167 q 859 161 859 167 l 859 7 q 851 0 859 0 l -7 0 m 331 -347 q 262 -320 288 -347 q 237 -248 237 -294 q 262 -174 237 -201 q 331 -147 287 -147 q 398 -174 373 -147 q 422 -248 422 -200 q 397 -320 422 -294 q 331 -347 372 -347 z "},"ﺞ":{"ha":896,"x_min":62,"x_max":909,"o":"m 895 0 q 740 28 798 0 q 640 117 681 57 q 405 40 473 74 q 301 -41 337 5 q 265 -153 265 -87 q 309 -247 265 -211 q 421 -283 353 -283 q 625 -254 514 -283 l 648 -406 q 379 -453 513 -453 q 150 -374 237 -453 q 62 -164 62 -295 q 92 -28 62 -90 q 179 84 122 34 q 326 176 236 134 q 570 260 416 218 q 534 372 550 315 q 468 495 512 455 q 349 534 423 534 q 142 471 258 534 l 68 624 q 222 680 135 659 q 392 701 310 701 q 714 433 668 701 q 785 238 736 309 q 895 167 833 167 l 903 167 q 909 161 909 167 l 909 7 q 903 0 909 0 l 895 0 m 478 -210 q 410 -183 435 -210 q 385 -110 385 -156 q 409 -36 385 -63 q 478 -9 434 -9 q 545 -36 520 -9 q 570 -110 570 -62 q 544 -183 570 -156 q 478 -210 519 -210 z "},"خ":{"ha":949,"x_min":62,"x_max":859,"o":"m 379 -453 q 150 -374 237 -453 q 62 -164 62 -295 q 92 -29 62 -90 q 178 82 121 33 q 326 175 235 132 q 568 260 416 218 q 534 372 547 326 q 468 494 513 454 q 349 534 423 534 q 142 471 258 534 l 68 624 q 222 680 135 659 q 392 701 310 701 q 714 433 668 701 q 769 241 738 302 q 859 136 801 180 l 753 0 q 640 117 685 54 q 405 40 473 74 q 301 -41 337 5 q 265 -153 265 -87 q 309 -247 265 -211 q 421 -283 353 -283 q 625 -254 514 -283 l 648 -406 q 379 -453 513 -453 m 360 807 q 292 834 317 807 q 267 907 267 861 q 291 980 267 954 q 360 1007 316 1007 q 427 981 402 1007 q 452 907 452 954 q 426 834 452 861 q 360 807 401 807 z "},"ﺧ":{"ha":851,"x_min":-14,"x_max":761,"o":"m -7 0 q -14 7 -14 0 l -14 161 q -7 167 -14 167 l 553 167 l 553 168 q 469 366 498 217 q 413 497 450 459 q 302 534 376 534 q 211 522 254 534 q 118 482 168 510 l 56 635 q 346 701 180 701 q 562 639 485 701 q 664 433 640 576 q 761 167 700 227 l 761 0 l -7 0 m 360 807 q 292 834 317 807 q 267 907 267 861 q 291 980 267 954 q 360 1007 316 1007 q 427 981 402 1007 q 452 907 452 954 q 426 834 452 861 q 360 807 401 807 z "},"ﺨ":{"ha":844,"x_min":-14,"x_max":859,"o":"m -7 0 q -14 7 -14 0 l -14 161 q -7 167 -14 167 l 554 167 q 469 366 499 218 q 413 497 450 459 q 302 534 376 534 q 211 522 254 534 q 118 482 168 510 l 56 635 q 346 701 180 701 q 562 639 485 701 q 664 433 640 576 q 761 167 700 227 l 851 167 q 859 161 859 167 l 859 7 q 851 0 859 0 l -7 0 m 360 807 q 292 834 317 807 q 267 907 267 861 q 291 980 267 954 q 360 1007 316 1007 q 427 981 402 1007 q 452 907 452 954 q 426 834 452 861 q 360 807 401 807 z "},"ﺦ":{"ha":896,"x_min":62,"x_max":909,"o":"m 895 0 q 740 28 798 0 q 640 117 681 57 q 405 40 473 74 q 301 -41 337 5 q 265 -153 265 -87 q 309 -247 265 -211 q 421 -283 353 -283 q 625 -254 514 -283 l 648 -406 q 379 -453 513 -453 q 150 -374 237 -453 q 62 -164 62 -295 q 92 -28 62 -90 q 179 84 122 34 q 326 176 236 134 q 570 260 416 218 q 534 372 550 315 q 468 495 512 455 q 349 534 423 534 q 142 471 258 534 l 68 624 q 222 680 135 659 q 392 701 310 701 q 714 433 668 701 q 785 238 736 309 q 895 167 833 167 l 903 167 q 909 161 909 167 l 909 7 q 903 0 909 0 l 895 0 m 360 807 q 292 834 317 807 q 267 907 267 861 q 291 980 267 954 q 360 1007 316 1007 q 427 981 402 1007 q 452 907 452 954 q 426 834 452 861 q 360 807 401 807 z "},"ذ":{"ha":827,"x_min":62,"x_max":736,"o":"m 62 167 l 526 167 q 457 374 498 295 q 352 510 416 453 q 197 606 289 568 l 275 800 q 573 570 461 726 q 736 161 686 414 l 736 0 l 62 0 l 62 167 m 275 909 q 207 936 232 909 q 182 1008 182 962 q 207 1082 182 1055 q 275 1109 231 1109 q 342 1082 317 1109 q 367 1008 367 1056 q 341 936 367 962 q 275 909 316 909 z "},"ﺬ":{"ha":909,"x_min":62,"x_max":924,"o":"m 62 167 l 526 167 q 457 374 498 295 q 352 510 416 453 q 197 606 289 568 l 275 800 q 570 574 458 727 q 734 167 682 420 l 917 167 q 924 161 924 167 l 924 7 q 917 0 924 0 l 62 0 l 62 167 m 275 909 q 207 936 232 909 q 182 1008 182 962 q 207 1082 182 1055 q 275 1109 231 1109 q 342 1082 317 1109 q 367 1008 367 1056 q 341 936 367 962 q 275 909 316 909 z "},"ڈ":{"ha":827,"x_min":62,"x_max":736,"o":"m 62 167 l 526 167 q 457 374 498 295 q 352 510 416 453 q 197 606 289 568 l 275 800 q 573 570 461 726 q 736 161 686 414 l 736 0 l 62 0 l 62 167 m 123 1002 l 144 1002 l 144 1254 l 228 1254 l 228 1092 q 338 1154 266 1154 q 426 1122 399 1154 q 453 1019 453 1090 l 453 914 l 123 914 l 123 1002 m 370 1002 l 370 1008 q 359 1063 370 1045 q 322 1080 348 1080 q 266 1062 287 1080 q 229 1017 244 1044 l 228 1002 l 370 1002 z "},"ﮉ":{"ha":909,"x_min":62,"x_max":924,"o":"m 62 167 l 526 167 q 457 374 498 295 q 352 510 416 453 q 197 606 289 568 l 275 800 q 570 574 458 727 q 734 167 682 420 l 917 167 q 924 161 924 167 l 924 7 q 917 0 924 0 l 62 0 l 62 167 m 123 1002 l 144 1002 l 144 1254 l 228 1254 l 228 1092 q 338 1154 266 1154 q 426 1122 399 1154 q 453 1019 453 1090 l 453 914 l 123 914 l 123 1002 m 370 1002 l 370 1008 q 359 1063 370 1045 q 322 1080 348 1080 q 266 1062 287 1080 q 229 1017 244 1044 l 228 1002 l 370 1002 z "},"ز":{"ha":608,"x_min":-56,"x_max":490,"o":"m 200 -334 q 70 -317 129 -334 q -56 -256 10 -300 l 28 -121 q 93 -153 64 -144 q 160 -161 121 -161 q 250 -119 216 -161 q 283 -12 283 -77 l 283 688 l 490 688 l 490 -22 q 411 -250 490 -165 q 200 -334 332 -334 m 376 807 q 308 834 333 807 q 283 907 283 861 q 308 980 283 954 q 376 1007 332 1007 q 443 981 418 1007 q 468 907 468 954 q 443 834 468 861 q 376 807 417 807 z "},"ﺰ":{"ha":664,"x_min":-56,"x_max":677,"o":"m 671 167 q 677 161 677 167 l 677 7 q 671 0 677 0 l 490 0 l 490 -22 q 411 -250 490 -165 q 200 -334 332 -334 q 70 -317 129 -334 q -56 -256 10 -300 l 28 -121 q 93 -153 64 -144 q 160 -161 121 -161 q 250 -119 216 -161 q 283 -12 283 -77 l 283 688 l 490 688 l 490 167 l 671 167 m 404 807 q 336 834 361 807 q 311 907 311 861 q 335 980 311 954 q 404 1007 360 1007 q 471 981 446 1007 q 496 907 496 954 q 470 834 496 861 q 404 807 445 807 z "},"ڑ":{"ha":608,"x_min":-56,"x_max":547,"o":"m 200 -334 q 70 -317 129 -334 q -56 -256 10 -300 l 28 -121 q 93 -153 64 -144 q 160 -161 121 -161 q 250 -119 216 -161 q 283 -12 283 -77 l 283 688 l 490 688 l 490 -22 q 411 -250 490 -165 q 200 -334 332 -334 m 218 889 l 239 889 l 239 1141 l 322 1141 l 322 979 q 432 1042 360 1042 q 520 1009 494 1042 q 547 907 547 977 l 547 802 l 218 802 l 218 889 m 464 889 l 464 896 q 453 950 464 932 q 416 968 442 968 q 360 949 381 968 q 323 904 338 931 l 322 889 l 464 889 z "},"ﮍ":{"ha":664,"x_min":-56,"x_max":677,"o":"m 671 167 q 677 161 677 167 l 677 7 q 671 0 677 0 l 490 0 l 490 -22 q 411 -250 490 -165 q 200 -334 332 -334 q 70 -317 129 -334 q -56 -256 10 -300 l 28 -121 q 93 -153 64 -144 q 160 -161 121 -161 q 250 -119 216 -161 q 283 -12 283 -77 l 283 688 l 490 688 l 490 167 l 671 167 m 245 889 l 267 889 l 267 1141 l 350 1141 l 350 979 q 460 1042 388 1042 q 548 1009 522 1042 q 575 907 575 977 l 575 802 l 245 802 l 245 889 m 492 889 l 492 896 q 481 950 492 932 q 444 968 470 968 q 388 949 409 968 q 351 904 366 931 l 350 889 l 492 889 z "},"ژ":{"ha":608,"x_min":-56,"x_max":583,"o":"m 200 -334 q 70 -317 129 -334 q -56 -256 10 -300 l 28 -121 q 93 -153 64 -144 q 160 -161 121 -161 q 250 -119 216 -161 q 283 -12 283 -77 l 283 688 l 490 688 l 490 -22 q 411 -250 490 -165 q 200 -334 332 -334 m 373 1031 q 317 1052 340 1031 q 294 1116 294 1073 q 317 1180 294 1160 q 373 1200 340 1200 q 431 1177 409 1200 q 452 1116 452 1155 q 431 1054 452 1078 q 373 1031 410 1031 m 255 807 q 187 834 212 807 q 162 907 162 861 q 187 980 162 954 q 255 1007 212 1007 q 323 980 298 1007 q 347 907 347 954 q 322 834 347 861 q 255 807 296 807 m 492 807 q 423 834 448 807 q 398 907 398 861 q 423 980 398 954 q 492 1007 448 1007 q 558 981 534 1007 q 583 907 583 954 q 558 834 583 861 q 492 807 532 807 z "},"ﮋ":{"ha":664,"x_min":-56,"x_max":677,"o":"m 671 167 q 677 161 677 167 l 677 7 q 671 0 677 0 l 490 0 l 490 -22 q 411 -250 490 -165 q 200 -334 332 -334 q 70 -317 129 -334 q -56 -256 10 -300 l 28 -121 q 93 -153 64 -144 q 160 -161 121 -161 q 250 -119 216 -161 q 283 -12 283 -77 l 283 688 l 490 688 l 490 167 l 671 167 m 401 1031 q 345 1052 368 1031 q 322 1116 322 1073 q 345 1180 322 1160 q 401 1200 368 1200 q 458 1177 437 1200 q 480 1116 480 1155 q 459 1054 480 1078 q 401 1031 437 1031 m 283 807 q 215 834 240 807 q 190 907 190 861 q 215 980 190 954 q 283 1007 239 1007 q 351 980 326 1007 q 375 907 375 954 q 350 834 375 861 q 283 807 324 807 m 519 807 q 451 834 476 807 q 426 907 426 861 q 451 980 426 954 q 519 1007 475 1007 q 586 981 562 1007 q 611 907 611 954 q 586 834 611 861 q 519 807 560 807 z "},"ش":{"ha":1960,"x_min":90,"x_max":1842,"o":"m 1057 167 q 1158 205 1126 167 q 1190 328 1190 244 l 1190 579 l 1397 579 l 1397 311 q 1393 249 1397 277 q 1462 185 1428 203 q 1549 167 1496 167 l 1634 167 l 1634 688 l 1842 688 l 1842 0 l 1553 0 q 1335 104 1435 0 q 1103 0 1257 0 l 937 0 q 529 -334 912 -334 l 468 -334 q 266 -285 352 -334 q 135 -148 180 -236 q 90 56 90 -59 q 109 216 90 134 q 161 363 128 298 l 345 363 q 310 207 323 288 q 297 54 297 125 q 348 -107 297 -47 q 482 -167 399 -167 l 524 -167 q 681 -109 631 -167 q 732 54 732 -51 l 732 579 l 939 579 l 939 167 l 1057 167 m 1287 1031 q 1231 1052 1254 1031 q 1208 1116 1208 1073 q 1231 1180 1208 1160 q 1287 1200 1254 1200 q 1345 1177 1323 1200 q 1367 1116 1367 1155 q 1345 1054 1367 1078 q 1287 1031 1324 1031 m 1169 807 q 1101 834 1126 807 q 1076 907 1076 861 q 1101 980 1076 954 q 1169 1007 1126 1007 q 1237 980 1213 1007 q 1261 907 1261 954 q 1236 834 1261 861 q 1169 807 1211 807 m 1406 807 q 1337 834 1362 807 q 1312 907 1312 861 q 1337 980 1312 954 q 1406 1007 1362 1007 q 1473 981 1448 1007 q 1497 907 1497 954 q 1472 834 1497 861 q 1406 807 1447 807 z "},"ﺷ":{"ha":1394,"x_min":-14,"x_max":1276,"o":"m -7 0 q -14 7 -14 0 l -14 161 q -7 167 -14 167 l 167 167 l 167 579 l 374 579 l 374 167 l 492 167 q 593 205 561 167 q 625 328 625 243 l 625 579 l 832 579 l 832 311 q 828 249 832 277 q 896 185 862 203 q 983 167 930 167 l 1069 167 l 1069 688 l 1276 688 l 1276 0 l 987 0 q 770 104 870 0 q 538 0 692 0 l -7 0 m 732 1060 q 676 1081 699 1060 q 653 1145 653 1102 q 676 1209 653 1189 q 732 1229 699 1229 q 789 1206 768 1229 q 811 1145 811 1184 q 790 1083 811 1107 q 732 1060 768 1060 m 614 836 q 546 863 571 836 q 521 936 521 890 q 546 1009 521 983 q 614 1036 570 1036 q 682 1009 657 1036 q 706 936 706 983 q 681 863 706 890 q 614 836 655 836 m 850 836 q 782 863 807 836 q 757 936 757 890 q 782 1009 757 983 q 850 1036 806 1036 q 917 1010 892 1036 q 942 936 942 983 q 917 863 942 890 q 850 836 891 836 z "},"ﺸ":{"ha":1450,"x_min":-14,"x_max":1464,"o":"m 1457 167 q 1464 161 1464 167 l 1464 7 q 1457 0 1464 0 l 987 0 q 770 104 870 0 q 538 0 692 0 l -7 0 q -14 7 -14 0 l -14 161 q -7 167 -14 167 l 167 167 l 167 579 l 374 579 l 374 167 l 492 167 q 593 205 561 167 q 625 328 625 243 l 625 579 l 832 579 l 832 311 q 828 249 832 277 q 896 185 862 203 q 983 167 930 167 l 1069 167 l 1069 688 l 1276 688 l 1276 167 l 1457 167 m 737 1031 q 681 1052 704 1031 q 659 1116 659 1073 q 681 1180 659 1160 q 737 1200 704 1200 q 795 1177 773 1200 q 817 1116 817 1155 q 795 1054 817 1078 q 737 1031 774 1031 m 619 807 q 551 834 576 807 q 526 907 526 861 q 551 980 526 954 q 619 1007 576 1007 q 687 980 663 1007 q 711 907 711 954 q 686 834 711 861 q 619 807 661 807 m 856 807 q 787 834 812 807 q 762 907 762 861 q 787 980 762 954 q 856 1007 812 1007 q 923 981 898 1007 q 947 907 947 954 q 922 834 947 861 q 856 807 897 807 z "},"ﺶ":{"ha":2016,"x_min":90,"x_max":2029,"o":"m 2022 167 q 2029 161 2029 167 l 2029 7 q 2022 0 2029 0 l 1553 0 q 1335 104 1435 0 q 1103 0 1257 0 l 937 0 q 529 -334 912 -334 l 468 -334 q 266 -285 352 -334 q 135 -148 180 -236 q 90 56 90 -59 q 109 216 90 134 q 161 363 128 298 l 345 363 q 310 207 323 288 q 297 54 297 125 q 348 -107 297 -47 q 482 -167 399 -167 l 524 -167 q 681 -109 631 -167 q 732 54 732 -51 l 732 579 l 939 579 l 939 167 l 1057 167 q 1158 205 1126 167 q 1190 328 1190 244 l 1190 579 l 1397 579 l 1397 311 q 1393 249 1397 277 q 1462 185 1428 203 q 1549 167 1496 167 l 1634 167 l 1634 688 l 1842 688 l 1842 167 l 2022 167 m 1287 1031 q 1231 1052 1254 1031 q 1208 1116 1208 1073 q 1231 1180 1208 1160 q 1287 1200 1254 1200 q 1345 1177 1323 1200 q 1367 1116 1367 1155 q 1345 1054 1367 1078 q 1287 1031 1324 1031 m 1169 807 q 1101 834 1126 807 q 1076 907 1076 861 q 1101 980 1076 954 q 1169 1007 1126 1007 q 1237 980 1213 1007 q 1261 907 1261 954 q 1236 834 1261 861 q 1169 807 1211 807 m 1406 807 q 1337 834 1362 807 q 1312 907 1312 861 q 1337 980 1312 954 q 1406 1007 1362 1007 q 1473 981 1448 1007 q 1497 907 1497 954 q 1472 834 1497 861 q 1406 807 1447 807 z "},"ض":{"ha":1764,"x_min":90,"x_max":1659,"o":"m 468 -334 q 266 -285 352 -334 q 135 -148 180 -236 q 90 56 90 -59 q 109 216 90 134 q 161 363 128 298 l 345 363 q 310 207 323 288 q 297 54 297 125 q 348 -107 297 -47 q 482 -167 399 -167 l 524 -167 q 681 -109 631 -167 q 732 54 732 -51 l 732 688 l 939 688 l 939 444 q 1315 701 1065 701 q 1573 611 1486 701 q 1659 334 1659 522 l 1659 0 l 937 0 q 823 -249 927 -164 q 529 -334 720 -334 l 468 -334 m 1453 167 l 1453 338 q 1406 487 1453 439 q 1263 534 1360 534 q 939 275 1075 534 l 939 167 l 1453 167 m 1256 807 q 1187 834 1213 807 q 1162 907 1162 861 q 1187 980 1162 954 q 1256 1007 1212 1007 q 1323 981 1298 1007 q 1348 907 1348 954 q 1322 834 1348 861 q 1256 807 1297 807 z "},"ﺿ":{"ha":1189,"x_min":-14,"x_max":1084,"o":"m 878 167 l 878 338 q 831 487 878 439 q 688 534 785 534 q 364 275 500 534 l 364 167 l 878 167 m -7 0 q -14 7 -14 0 l -14 161 q -7 167 -14 167 l 157 167 l 157 688 l 364 688 l 364 444 q 741 701 491 701 q 998 611 911 701 q 1084 334 1084 522 l 1084 0 l -7 0 m 654 807 q 586 834 611 807 q 561 907 561 861 q 586 980 561 954 q 654 1007 610 1007 q 721 981 696 1007 q 746 907 746 954 q 721 834 746 861 q 654 807 695 807 z "},"ﻀ":{"ha":1258,"x_min":-14,"x_max":1272,"o":"m -7 0 q -14 7 -14 0 l -14 161 q -7 167 -14 167 l 157 167 l 157 688 l 364 688 l 364 444 q 741 701 491 701 q 998 611 911 701 q 1084 334 1084 522 l 1084 167 l 1265 167 q 1272 161 1272 167 l 1272 7 q 1265 0 1272 0 l -7 0 m 878 167 l 878 338 q 831 487 878 439 q 688 534 785 534 q 364 275 500 534 l 364 167 l 878 167 m 671 807 q 603 834 628 807 q 578 907 578 861 q 603 980 578 954 q 671 1007 627 1007 q 738 981 713 1007 q 763 907 763 954 q 738 834 763 861 q 671 807 712 807 z "},"ﺾ":{"ha":1833,"x_min":90,"x_max":1847,"o":"m 1841 167 q 1847 161 1847 167 l 1847 7 q 1841 0 1847 0 l 937 0 q 823 -249 927 -164 q 529 -334 720 -334 l 468 -334 q 266 -285 352 -334 q 135 -148 180 -236 q 90 56 90 -59 q 109 216 90 134 q 161 363 128 298 l 345 363 q 310 207 323 288 q 297 54 297 125 q 348 -107 297 -47 q 482 -167 399 -167 l 524 -167 q 681 -109 631 -167 q 732 54 732 -51 l 732 688 l 939 688 l 939 444 q 1315 701 1065 701 q 1573 611 1486 701 q 1659 334 1659 522 l 1659 167 l 1841 167 m 1453 167 l 1453 338 q 1406 487 1453 439 q 1263 534 1360 534 q 939 275 1075 534 l 939 167 l 1453 167 m 1256 807 q 1187 834 1213 807 q 1162 907 1162 861 q 1187 980 1162 954 q 1256 1007 1212 1007 q 1323 981 1298 1007 q 1348 907 1348 954 q 1322 834 1348 861 q 1256 807 1297 807 z "},"ظ":{"ha":1189,"x_min":28,"x_max":1084,"o":"m 878 167 l 878 338 q 831 487 878 439 q 688 534 785 534 q 364 275 500 534 l 364 167 l 878 167 m 28 167 l 157 167 l 157 1055 l 364 1055 l 364 444 q 741 701 491 701 q 998 611 911 701 q 1084 334 1084 522 l 1084 0 l 28 0 l 28 167 m 685 807 q 616 834 642 807 q 591 907 591 861 q 616 980 591 954 q 685 1007 641 1007 q 752 981 727 1007 q 777 907 777 954 q 751 834 777 861 q 685 807 726 807 z "},"ﻇ":{"ha":1231,"x_min":-14,"x_max":1126,"o":"m 920 167 l 920 338 q 873 487 920 439 q 729 534 827 534 q 406 275 542 534 l 406 167 l 920 167 m -7 0 q -14 7 -14 0 l -14 161 q -7 167 -14 167 l 199 167 l 199 1055 l 406 1055 l 406 444 q 782 701 532 701 q 1040 611 953 701 q 1126 334 1126 522 l 1126 0 l -7 0 m 720 807 q 651 834 676 807 q 626 907 626 861 q 651 980 626 954 q 720 1007 675 1007 q 786 981 762 1007 q 811 907 811 954 q 786 834 811 861 q 720 807 760 807 z "},"ﻈ":{"ha":1258,"x_min":-14,"x_max":1272,"o":"m -7 0 q -14 7 -14 0 l -14 161 q -7 167 -14 167 l 157 167 l 157 1055 l 364 1055 l 364 444 q 741 701 491 701 q 998 611 911 701 q 1084 334 1084 522 l 1084 167 l 1265 167 q 1272 161 1272 167 l 1272 7 q 1265 0 1272 0 l -7 0 m 878 167 l 878 338 q 831 487 878 439 q 688 534 785 534 q 364 275 500 534 l 364 167 l 878 167 m 664 807 q 595 834 621 807 q 570 907 570 861 q 595 980 570 954 q 664 1007 620 1007 q 731 981 706 1007 q 755 907 755 954 q 730 834 755 861 q 664 807 705 807 z "},"ﻆ":{"ha":1258,"x_min":28,"x_max":1272,"o":"m 28 167 l 157 167 l 157 1055 l 364 1055 l 364 444 q 741 701 491 701 q 998 611 911 701 q 1084 334 1084 522 l 1084 167 l 1265 167 q 1272 161 1272 167 l 1272 7 q 1265 0 1272 0 l 28 0 l 28 167 m 878 167 l 878 338 q 831 487 878 439 q 688 534 785 534 q 364 275 500 534 l 364 167 l 878 167 m 688 807 q 619 834 644 807 q 594 907 594 861 q 619 980 594 954 q 688 1007 644 1007 q 754 981 730 1007 q 779 907 779 954 q 754 834 779 861 q 688 807 728 807 z "},"غ":{"ha":823,"x_min":90,"x_max":761,"o":"m 407 -453 q 177 -375 264 -453 q 90 -171 90 -298 q 267 106 90 -16 q 181 229 218 155 q 144 367 144 304 q 247 612 144 523 q 528 701 350 701 q 655 688 589 701 q 761 656 722 674 l 703 493 q 606 526 648 517 q 522 534 564 534 q 389 489 435 534 q 343 358 343 443 q 357 259 343 300 q 400 179 372 218 q 642 271 520 233 l 690 114 q 385 -6 477 60 q 293 -160 293 -73 q 333 -251 293 -218 q 449 -283 372 -283 q 653 -254 542 -283 l 676 -406 q 407 -453 541 -453 m 457 807 q 389 834 414 807 q 363 907 363 861 q 388 980 363 954 q 457 1007 413 1007 q 524 981 499 1007 q 549 907 549 954 q 523 834 549 861 q 457 807 498 807 z "},"ﻏ":{"ha":787,"x_min":-14,"x_max":725,"o":"m -7 0 q -14 7 -14 0 l -14 161 q -7 167 -14 167 l 207 167 q 125 245 155 190 q 94 367 94 300 q 197 612 94 523 q 478 701 300 701 q 606 688 539 701 q 711 656 673 674 l 653 493 q 557 525 600 516 q 472 534 515 534 q 340 489 387 534 q 293 358 293 444 q 341 220 293 274 q 471 167 389 167 l 725 167 l 725 0 l -7 0 m 429 807 q 361 834 386 807 q 336 907 336 861 q 360 980 336 954 q 429 1007 385 1007 q 496 981 471 1007 q 521 907 521 954 q 495 834 521 861 q 429 807 470 807 z "},"ﻐ":{"ha":839,"x_min":-14,"x_max":852,"o":"m 846 167 q 852 161 852 167 l 852 7 q 846 0 852 0 l 669 0 q 534 22 604 0 q 412 78 463 44 q 154 0 285 0 l -7 0 q -14 7 -14 0 l -14 161 q -7 167 -14 167 l 132 167 q 201 174 163 167 q 262 193 239 182 q 175 294 221 225 q 95 444 129 362 q 49 600 61 525 q 236 707 130 668 q 439 746 341 746 q 787 663 637 746 q 726 387 787 512 q 561 195 665 261 q 686 167 612 167 l 846 167 m 415 279 q 590 554 578 376 q 433 579 530 579 q 337 564 389 579 q 256 526 286 548 q 318 382 276 450 q 415 279 361 315 m 416 876 q 347 903 372 876 q 322 976 322 930 q 347 1049 322 1023 q 416 1076 372 1076 q 483 1050 458 1076 q 507 976 507 1023 q 482 903 507 930 q 416 876 456 876 z "},"ﻎ":{"ha":880,"x_min":90,"x_max":895,"o":"m 96 -171 q 151 5 96 -79 q 322 174 206 90 q 171 372 233 257 q 90 600 108 487 q 277 707 171 667 q 481 746 384 746 q 829 663 678 746 q 771 397 829 519 q 602 183 713 275 q 728 167 657 167 l 888 167 q 895 161 895 167 l 895 7 q 888 0 895 0 l 711 0 q 587 21 656 0 q 456 78 517 42 q 335 -41 372 16 q 298 -160 298 -98 q 338 -251 298 -218 q 454 -283 378 -283 q 659 -254 547 -283 l 682 -406 q 543 -442 607 -431 q 412 -453 479 -453 q 183 -375 270 -453 q 96 -171 96 -298 m 297 526 q 461 265 341 376 q 579 394 534 317 q 632 554 625 470 q 561 574 597 568 q 475 579 524 579 q 378 563 430 579 q 297 526 326 547 m 470 876 q 401 903 427 876 q 376 976 376 930 q 401 1049 376 1023 q 470 1076 426 1076 q 537 1050 512 1076 q 562 976 562 1023 q 536 903 562 930 q 470 876 511 876 z "},"ﮐ":{"ha":847,"x_min":-14,"x_max":743,"o":"m -7 0 q -14 7 -14 0 l -14 161 q -7 167 -14 167 l 536 167 l 536 390 q 479 519 536 474 q 315 564 421 564 l 79 564 l 79 714 q 287 988 153 869 q 597 1169 420 1106 l 673 983 q 448 876 553 947 q 294 730 342 804 l 347 730 q 743 416 743 730 l 743 0 l -7 0 z "},"ﮑ":{"ha":917,"x_min":-14,"x_max":930,"o":"m -7 0 q -14 7 -14 0 l -14 161 q -7 167 -14 167 l 536 167 l 536 390 q 479 519 536 474 q 315 564 421 564 l 79 564 l 79 714 q 287 988 153 869 q 597 1169 420 1106 l 673 983 q 448 876 553 947 q 294 730 342 804 l 347 730 q 743 416 743 730 l 743 167 l 924 167 q 930 161 930 167 l 930 7 q 924 0 930 0 l -7 0 z "},"ف":{"ha":1493,"x_min":90,"x_max":1375,"o":"m 367 0 q 164 75 239 0 q 90 279 90 149 q 102 391 90 332 q 135 492 115 450 l 318 492 q 297 310 297 401 q 333 206 297 245 q 428 167 369 167 l 789 167 q 722 350 722 248 q 829 596 722 505 q 1128 688 937 688 l 1375 688 l 1375 0 l 367 0 m 1168 167 l 1168 521 l 1132 521 q 986 474 1037 521 q 935 339 935 427 q 985 212 935 256 q 1129 167 1035 167 l 1168 167 m 1099 807 q 1030 834 1055 807 q 1005 907 1005 861 q 1030 980 1005 954 q 1099 1007 1055 1007 q 1165 981 1141 1007 q 1190 907 1190 954 q 1165 834 1190 861 q 1099 807 1139 807 z "},"ﻓ":{"ha":896,"x_min":-14,"x_max":778,"o":"m 571 167 l 571 521 l 534 521 q 389 474 441 521 q 338 339 338 428 q 388 212 338 256 q 532 167 437 167 l 571 167 m 192 167 q 125 350 125 246 q 232 596 125 505 q 530 688 339 688 l 778 688 l 778 0 l -7 0 q -14 7 -14 0 l -14 161 q -7 167 -14 167 l 192 167 m 515 807 q 447 834 472 807 q 422 907 422 861 q 447 980 422 954 q 515 1007 471 1007 q 582 981 557 1007 q 607 907 607 954 q 582 834 607 861 q 515 807 556 807 z "},"ﻔ":{"ha":945,"x_min":-14,"x_max":958,"o":"m 951 167 q 958 161 958 167 l 958 7 q 951 0 958 0 l -7 0 q -14 7 -14 0 l -14 161 q -7 167 -14 167 l 192 167 q 125 350 125 246 q 232 596 125 505 q 530 688 339 688 l 778 688 l 778 167 l 951 167 m 571 167 l 571 521 l 534 521 q 389 474 441 521 q 338 339 338 428 q 388 212 338 256 q 532 167 437 167 l 571 167 m 515 807 q 447 834 472 807 q 422 907 422 861 q 447 980 422 954 q 515 1007 471 1007 q 582 981 557 1007 q 607 907 607 954 q 582 834 607 861 q 515 807 556 807 z "},"ﻒ":{"ha":1541,"x_min":90,"x_max":1556,"o":"m 1168 167 l 1168 521 l 1132 521 q 986 474 1037 521 q 935 339 935 427 q 985 212 935 256 q 1129 167 1035 167 l 1168 167 m 1549 167 q 1556 161 1556 167 l 1556 7 q 1549 0 1556 0 l 367 0 q 164 75 239 0 q 90 279 90 149 q 102 391 90 332 q 135 492 115 450 l 318 492 q 297 310 297 401 q 333 206 297 245 q 428 167 369 167 l 789 167 q 722 350 722 248 q 829 596 722 505 q 1128 688 937 688 l 1375 688 l 1375 167 l 1549 167 m 1118 807 q 1050 834 1075 807 q 1025 907 1025 861 q 1049 980 1025 954 q 1118 1007 1074 1007 q 1185 981 1160 1007 q 1210 907 1210 954 q 1184 834 1210 861 q 1118 807 1159 807 z "},"ﭪ":{"ha":1493,"x_min":90,"x_max":1375,"o":"m 367 0 q 164 75 239 0 q 90 279 90 149 q 102 391 90 332 q 135 492 115 450 l 318 492 q 297 310 297 401 q 333 206 297 245 q 428 167 369 167 l 789 167 q 722 350 722 248 q 829 596 722 505 q 1128 688 937 688 l 1375 688 l 1375 0 l 367 0 m 1168 167 l 1168 521 l 1132 521 q 986 474 1037 521 q 935 339 935 427 q 985 212 935 256 q 1129 167 1035 167 l 1168 167 m 1101 1072 q 1045 1093 1068 1072 q 1023 1157 1023 1114 q 1045 1221 1023 1201 q 1101 1241 1068 1241 q 1159 1219 1137 1241 q 1181 1157 1181 1196 q 1159 1096 1181 1119 q 1101 1072 1138 1072 m 983 848 q 916 875 941 848 q 890 948 890 902 q 915 1022 890 995 q 983 1048 940 1048 q 1051 1022 1027 1048 q 1076 948 1076 995 q 1050 875 1076 902 q 983 848 1025 848 m 1220 848 q 1152 875 1177 848 q 1126 948 1126 902 q 1151 1022 1126 995 q 1220 1048 1176 1048 q 1287 1022 1262 1048 q 1312 948 1312 996 q 1286 875 1312 902 q 1220 848 1261 848 z "},"ﭬ":{"ha":896,"x_min":-14,"x_max":778,"o":"m 571 167 l 571 521 l 534 521 q 389 474 441 521 q 338 339 338 428 q 388 212 338 256 q 532 167 437 167 l 571 167 m 192 167 q 125 350 125 246 q 232 596 125 505 q 530 688 339 688 l 778 688 l 778 0 l -7 0 q -14 7 -14 0 l -14 161 q -7 167 -14 167 l 192 167 m 511 1072 q 455 1093 477 1072 q 432 1157 432 1114 q 455 1221 432 1201 q 511 1241 477 1241 q 568 1219 547 1241 q 590 1157 590 1196 q 569 1096 590 1119 q 511 1072 547 1072 m 393 848 q 325 875 350 848 q 300 948 300 902 q 325 1022 300 995 q 393 1048 349 1048 q 460 1022 436 1048 q 485 948 485 995 q 459 875 485 902 q 393 848 434 848 m 629 848 q 561 875 586 848 q 536 948 536 902 q 561 1022 536 995 q 629 1048 585 1048 q 696 1022 671 1048 q 721 948 721 996 q 695 875 721 902 q 629 848 670 848 z "},"ﭭ":{"ha":945,"x_min":-14,"x_max":958,"o":"m 951 167 q 958 161 958 167 l 958 7 q 951 0 958 0 l -7 0 q -14 7 -14 0 l -14 161 q -7 167 -14 167 l 192 167 q 125 350 125 246 q 232 596 125 505 q 530 688 339 688 l 778 688 l 778 167 l 951 167 m 571 167 l 571 521 l 534 521 q 389 474 441 521 q 338 339 338 428 q 388 212 338 256 q 532 167 437 167 l 571 167 m 511 1072 q 455 1093 477 1072 q 432 1157 432 1114 q 455 1221 432 1201 q 511 1241 477 1241 q 568 1219 547 1241 q 590 1157 590 1196 q 569 1096 590 1119 q 511 1072 547 1072 m 393 848 q 325 875 350 848 q 300 948 300 902 q 325 1022 300 995 q 393 1048 349 1048 q 460 1022 436 1048 q 485 948 485 995 q 459 875 485 902 q 393 848 434 848 m 629 848 q 561 875 586 848 q 536 948 536 902 q 561 1022 536 995 q 629 1048 585 1048 q 696 1022 671 1048 q 721 948 721 996 q 695 875 721 902 q 629 848 670 848 z "},"ﭫ":{"ha":1541,"x_min":90,"x_max":1556,"o":"m 1168 167 l 1168 521 l 1132 521 q 986 474 1037 521 q 935 339 935 427 q 985 212 935 256 q 1129 167 1035 167 l 1168 167 m 1549 167 q 1556 161 1556 167 l 1556 7 q 1549 0 1556 0 l 367 0 q 164 75 239 0 q 90 279 90 149 q 102 391 90 332 q 135 492 115 450 l 318 492 q 297 310 297 401 q 333 206 297 245 q 428 167 369 167 l 789 167 q 722 350 722 248 q 829 596 722 505 q 1128 688 937 688 l 1375 688 l 1375 167 l 1549 167 m 1101 1072 q 1045 1093 1068 1072 q 1023 1157 1023 1114 q 1045 1221 1023 1201 q 1101 1241 1068 1241 q 1159 1219 1137 1241 q 1181 1157 1181 1196 q 1159 1096 1181 1119 q 1101 1072 1138 1072 m 983 848 q 916 875 941 848 q 890 948 890 902 q 915 1022 890 995 q 983 1048 940 1048 q 1051 1022 1027 1048 q 1076 948 1076 995 q 1050 875 1076 902 q 983 848 1025 848 m 1220 848 q 1152 875 1177 848 q 1126 948 1126 902 q 1151 1022 1126 995 q 1220 1048 1176 1048 q 1287 1022 1262 1048 q 1312 948 1312 996 q 1286 875 1312 902 q 1220 848 1261 848 z "},"ﻗ":{"ha":896,"x_min":-14,"x_max":778,"o":"m 571 167 l 571 521 l 534 521 q 389 474 441 521 q 338 339 338 428 q 388 212 338 256 q 532 167 437 167 l 571 167 m 192 167 q 125 350 125 246 q 232 596 125 505 q 530 688 339 688 l 778 688 l 778 0 l -7 0 q -14 7 -14 0 l -14 161 q -7 167 -14 167 l 192 167 m 395 807 q 328 834 353 807 q 302 907 302 861 q 327 980 302 954 q 395 1007 352 1007 q 463 981 438 1007 q 487 907 487 954 q 462 833 487 859 q 395 807 437 807 m 631 807 q 564 834 589 807 q 538 907 538 861 q 563 980 538 954 q 631 1007 588 1007 q 699 980 675 1007 q 724 907 724 954 q 698 834 724 861 q 631 807 673 807 z "},"ﻘ":{"ha":945,"x_min":-14,"x_max":958,"o":"m 951 167 q 958 161 958 167 l 958 7 q 951 0 958 0 l -7 0 q -14 7 -14 0 l -14 161 q -7 167 -14 167 l 192 167 q 125 350 125 246 q 232 596 125 505 q 530 688 339 688 l 778 688 l 778 167 l 951 167 m 571 167 l 571 521 l 534 521 q 389 474 441 521 q 338 339 338 428 q 388 212 338 256 q 532 167 437 167 l 571 167 m 426 807 q 358 834 383 807 q 333 907 333 861 q 358 980 333 954 q 426 1007 382 1007 q 493 981 469 1007 q 517 907 517 954 q 492 833 517 859 q 426 807 467 807 m 662 807 q 594 834 619 807 q 569 907 569 861 q 594 980 569 954 q 662 1007 618 1007 q 730 980 705 1007 q 754 907 754 954 q 729 834 754 861 q 662 807 703 807 z "},"ق":{"ha":1336,"x_min":90,"x_max":1218,"o":"m 458 -334 q 270 -283 354 -334 q 138 -143 185 -233 q 90 56 90 -54 q 109 216 90 134 q 161 363 128 298 l 345 363 q 310 207 323 288 q 297 54 297 125 q 354 -109 297 -50 q 521 -167 412 -167 l 755 -167 q 950 -129 890 -167 q 1011 -7 1011 -90 l 1011 0 l 913 0 l 905 0 q 728 42 805 0 q 608 162 651 84 q 566 345 566 240 q 613 526 566 449 q 751 646 660 604 q 972 688 843 688 l 1218 688 l 1218 36 q 1123 -242 1218 -151 q 825 -334 1029 -334 l 458 -334 m 1011 167 l 1011 521 l 975 521 q 778 336 778 521 q 829 209 778 252 q 972 167 881 167 l 1011 167 m 861 807 q 793 834 818 807 q 768 907 768 861 q 792 980 768 954 q 861 1007 817 1007 q 928 981 903 1007 q 952 907 952 954 q 927 833 952 859 q 861 807 902 807 m 1097 807 q 1029 834 1054 807 q 1004 907 1004 861 q 1028 980 1004 954 q 1097 1007 1053 1007 q 1164 980 1140 1007 q 1189 907 1189 954 q 1163 834 1189 861 q 1097 807 1138 807 z "},"ﻖ":{"ha":1385,"x_min":90,"x_max":1398,"o":"m 1392 167 q 1398 161 1398 167 l 1398 7 q 1392 0 1398 0 l 1217 0 q 1113 -252 1208 -171 q 825 -334 1018 -334 l 458 -334 q 270 -283 354 -334 q 138 -143 185 -233 q 90 56 90 -54 q 109 216 90 134 q 161 363 128 298 l 345 363 q 310 207 323 288 q 297 54 297 125 q 354 -109 297 -50 q 521 -167 412 -167 l 755 -167 q 950 -129 890 -167 q 1011 -7 1011 -90 l 1011 0 l 913 0 l 905 0 q 728 42 805 0 q 608 162 651 84 q 566 345 566 240 q 613 526 566 449 q 751 646 660 604 q 972 688 843 688 l 1218 688 l 1218 167 l 1392 167 m 1011 167 l 1011 521 l 975 521 q 778 336 778 521 q 829 209 778 252 q 972 167 881 167 l 1011 167 m 861 807 q 793 834 818 807 q 768 907 768 861 q 792 980 768 954 q 861 1007 817 1007 q 928 981 903 1007 q 952 907 952 954 q 927 833 952 859 q 861 807 902 807 m 1097 807 q 1029 834 1054 807 q 1004 907 1004 861 q 1028 980 1004 954 q 1097 1007 1053 1007 q 1164 980 1140 1007 q 1189 907 1189 954 q 1163 834 1189 861 q 1097 807 1138 807 z "},"ﻧ":{"ha":492,"x_min":-14,"x_max":374,"o":"m -7 0 q -14 7 -14 0 l -14 161 q -7 167 -14 167 l 167 167 l 167 688 l 374 688 l 374 0 l -7 0 m 269 807 q 200 834 225 807 q 175 907 175 861 q 200 980 175 954 q 269 1007 224 1007 q 335 981 311 1007 q 360 907 360 954 q 335 834 360 861 q 269 807 309 807 z "},"ﻨ":{"ha":547,"x_min":-14,"x_max":561,"o":"m 554 167 q 561 161 561 167 l 561 7 q 554 0 561 0 l -7 0 q -14 7 -14 0 l -14 161 q -7 167 -14 167 l 167 167 l 167 688 l 374 688 l 374 167 l 554 167 m 269 807 q 200 834 225 807 q 175 907 175 861 q 200 980 175 954 q 269 1007 224 1007 q 335 981 311 1007 q 360 907 360 954 q 335 834 360 861 q 269 807 309 807 z "},"ن":{"ha":1057,"x_min":90,"x_max":939,"o":"m 468 -334 q 266 -285 352 -334 q 135 -148 180 -236 q 90 56 90 -59 q 109 216 90 134 q 161 363 128 298 l 345 363 q 310 207 323 288 q 297 54 297 125 q 348 -107 297 -47 q 482 -167 399 -167 l 524 -167 q 681 -109 631 -167 q 732 54 732 -51 l 732 688 l 939 688 l 939 49 q 529 -334 939 -334 l 468 -334 m 514 688 q 446 715 471 688 q 420 788 420 742 q 445 862 420 835 q 514 888 470 888 q 581 862 556 888 q 606 788 606 836 q 580 715 606 742 q 514 688 555 688 z "},"ﻦ":{"ha":1111,"x_min":90,"x_max":1125,"o":"m 1118 167 q 1125 161 1125 167 l 1125 7 q 1118 0 1125 0 l 937 0 q 529 -334 912 -334 l 468 -334 q 266 -285 352 -334 q 135 -148 180 -236 q 90 56 90 -59 q 109 216 90 134 q 161 363 128 298 l 345 363 q 310 207 323 288 q 297 54 297 125 q 348 -107 297 -47 q 482 -167 399 -167 l 524 -167 q 681 -109 631 -167 q 732 54 732 -51 l 732 688 l 939 688 l 939 167 l 1118 167 m 514 688 q 446 715 471 688 q 420 788 420 742 q 445 862 420 835 q 514 888 470 888 q 581 862 556 888 q 606 788 606 836 q 580 715 606 742 q 514 688 555 688 z "},"ە":{"ha":876,"x_min":90,"x_max":786,"o":"m 436 -14 q 178 67 267 -14 q 90 306 90 148 q 135 506 90 414 q 258 649 179 597 q 440 701 338 701 q 612 651 534 701 q 738 507 689 601 q 786 306 786 413 q 698 64 786 141 q 436 -14 610 -14 m 435 155 q 543 194 508 155 q 578 313 578 233 q 535 468 578 402 q 433 534 493 534 q 332 470 374 534 q 290 313 290 406 q 326 194 290 233 q 435 155 361 155 z "},"ۀ":{"ha":876,"x_min":90,"x_max":786,"o":"m 436 -14 q 178 67 267 -14 q 90 306 90 148 q 135 506 90 414 q 258 649 179 597 q 440 701 338 701 q 612 651 534 701 q 738 507 689 601 q 786 306 786 413 q 698 64 786 141 q 436 -14 610 -14 m 435 155 q 543 194 508 155 q 578 313 578 233 q 535 468 578 402 q 433 534 493 534 q 332 470 374 534 q 290 313 290 406 q 326 194 290 233 q 435 155 361 155 m 248 859 l 328 872 q 283 910 300 886 q 265 966 265 934 q 307 1059 265 1026 q 418 1093 348 1093 q 532 1067 486 1093 l 504 997 q 429 1015 469 1015 q 380 997 399 1015 q 362 948 362 979 q 374 910 362 926 q 404 886 387 894 l 429 890 q 541 904 499 901 l 541 823 q 377 806 492 820 q 248 789 263 793 l 248 859 z "},"ﮥ":{"ha":909,"x_min":90,"x_max":924,"o":"m 917 167 q 924 161 924 167 l 924 7 q 917 0 924 0 l 496 0 q 197 90 303 0 q 90 340 90 180 q 139 522 90 443 q 279 645 188 602 q 496 688 370 688 l 534 688 l 534 755 l 743 755 l 743 167 l 917 167 m 536 167 l 536 521 l 500 521 q 354 474 405 521 q 302 339 302 427 q 353 212 302 256 q 497 167 403 167 l 536 167 m 193 859 l 272 872 q 227 910 245 886 q 210 966 210 934 q 251 1059 210 1026 q 362 1093 292 1093 q 476 1067 431 1093 l 448 997 q 373 1015 413 1015 q 325 997 343 1015 q 307 948 307 979 q 319 910 307 926 q 349 886 331 894 l 373 890 q 486 904 444 901 l 486 823 q 322 806 436 820 q 193 789 208 793 l 193 859 z "},"ؤ":{"ha":871,"x_min":90,"x_max":753,"o":"m 386 -334 q 223 -319 292 -334 q 90 -267 154 -304 l 171 -115 q 277 -156 227 -144 q 382 -168 328 -168 q 503 -125 460 -168 q 546 -7 546 -82 l 546 0 l 408 0 q 180 84 260 0 q 100 323 100 168 q 155 516 100 433 q 310 644 210 600 q 542 688 410 688 l 753 688 l 753 -4 q 657 -248 753 -162 q 386 -334 561 -334 m 546 167 l 546 521 l 501 521 q 362 471 412 521 q 313 329 313 420 q 347 206 313 245 q 450 167 380 167 l 546 167 m 288 838 l 367 851 q 322 889 340 865 q 304 945 304 913 q 346 1038 304 1005 q 457 1072 387 1072 q 571 1046 526 1072 l 543 976 q 468 994 508 994 q 420 976 438 994 q 401 927 401 958 q 414 889 401 905 q 444 865 426 873 l 468 869 q 581 883 538 880 l 581 802 q 417 785 531 799 q 288 768 302 772 l 288 838 z "},"ﺆ":{"ha":920,"x_min":90,"x_max":933,"o":"m 926 167 q 933 161 933 167 l 933 7 q 926 0 933 0 l 753 0 q 657 -246 753 -159 q 386 -334 561 -334 q 223 -319 292 -334 q 90 -267 154 -304 l 171 -115 q 277 -156 227 -144 q 382 -168 328 -168 q 503 -125 460 -168 q 546 -7 546 -82 l 546 0 l 408 0 q 180 84 260 0 q 100 323 100 168 q 155 516 100 433 q 310 644 210 600 q 542 688 410 688 l 753 688 l 753 167 l 926 167 m 546 167 l 546 521 l 501 521 q 362 471 412 521 q 313 329 313 420 q 347 206 313 245 q 450 167 380 167 l 546 167 m 288 838 l 367 851 q 322 889 340 865 q 304 945 304 913 q 346 1038 304 1005 q 457 1072 387 1072 q 571 1046 526 1072 l 543 976 q 468 994 508 994 q 420 976 438 994 q 401 927 401 958 q 414 889 401 905 q 444 865 426 873 l 468 869 q 581 883 538 880 l 581 802 q 417 785 531 799 q 288 768 302 772 l 288 838 z "},"ﯨ":{"ha":492,"x_min":-14,"x_max":374,"o":"m -7 0 q -14 7 -14 0 l -14 161 q -7 167 -14 167 l 167 167 l 167 688 l 374 688 l 374 0 l -7 0 z "},"ﯩ":{"ha":547,"x_min":-14,"x_max":561,"o":"m 554 167 q 561 161 561 167 l 561 7 q 554 0 561 0 l -7 0 q -14 7 -14 0 l -14 161 q -7 167 -14 167 l 167 167 l 167 688 l 374 688 l 374 167 l 554 167 z "},"ﻳ":{"ha":561,"x_min":-14,"x_max":443,"o":"m -7 0 q -14 7 -14 0 l -14 161 q -7 167 -14 167 l 236 167 l 236 688 l 443 688 l 443 0 l -7 0 m 105 -347 q 37 -320 62 -347 q 12 -248 12 -294 q 37 -174 12 -201 q 105 -147 62 -147 q 172 -174 148 -147 q 197 -248 197 -200 q 172 -321 197 -295 q 105 -347 146 -347 m 341 -347 q 273 -320 298 -347 q 248 -248 248 -294 q 273 -174 248 -201 q 341 -147 298 -147 q 409 -174 385 -147 q 433 -248 433 -201 q 408 -320 433 -294 q 341 -347 382 -347 z "},"ﻴ":{"ha":616,"x_min":-14,"x_max":631,"o":"m -7 0 q -14 7 -14 0 l -14 161 q -7 167 -14 167 l 208 167 l 208 688 l 415 688 l 415 167 l 624 167 q 631 161 631 167 l 631 7 q 624 0 631 0 l -7 0 m 179 -347 q 111 -320 136 -347 q 86 -248 86 -294 q 111 -174 86 -201 q 179 -147 136 -147 q 246 -174 222 -147 q 271 -248 271 -200 q 245 -321 271 -295 q 179 -347 220 -347 m 415 -347 q 347 -320 372 -347 q 322 -248 322 -294 q 347 -174 322 -201 q 415 -147 372 -147 q 483 -174 458 -147 q 507 -248 507 -201 q 482 -320 507 -294 q 415 -347 456 -347 z "},"ي":{"ha":1226,"x_min":90,"x_max":1164,"o":"m 370 -334 q 226 -293 290 -334 q 126 -180 161 -253 q 90 -17 90 -108 q 135 252 90 119 l 319 252 q 296 142 302 194 q 290 14 290 91 q 314 -76 290 -34 q 376 -143 337 -119 q 456 -167 414 -167 l 696 -167 q 853 -147 804 -167 q 903 -83 903 -127 q 884 -32 903 -55 q 821 18 865 -9 q 687 105 763 54 q 583 196 612 157 q 554 282 554 235 q 628 468 554 363 q 804 636 701 572 q 1002 700 907 700 q 1068 687 1034 700 q 1164 635 1101 675 l 1089 484 q 1035 510 1061 499 q 979 521 1008 521 q 883 482 943 521 q 784 397 823 444 q 745 317 745 351 q 776 266 745 295 q 868 198 808 236 q 987 111 924 163 q 1079 13 1049 60 q 1109 -79 1109 -35 q 1003 -270 1109 -207 q 697 -334 897 -334 l 370 -334 m 477 -677 q 410 -650 435 -677 q 385 -577 385 -623 q 409 -504 385 -530 q 477 -477 434 -477 q 545 -503 520 -477 q 569 -577 569 -530 q 544 -651 569 -625 q 477 -677 519 -677 m 713 -677 q 646 -650 671 -677 q 621 -577 621 -623 q 645 -504 621 -530 q 713 -477 670 -477 q 781 -504 757 -477 q 806 -577 806 -530 q 780 -650 806 -623 q 713 -677 755 -677 z "},"ﻲ":{"ha":1396,"x_min":90,"x_max":1410,"o":"m 1396 0 q 1269 21 1321 0 q 1160 102 1216 42 q 1089 195 1145 117 q 986 318 1023 287 q 916 349 949 349 q 859 326 893 349 q 802 272 825 302 q 779 220 779 241 q 803 170 779 191 q 880 132 827 149 q 1011 75 968 102 q 1075 9 1053 47 q 1096 -82 1096 -30 q 997 -269 1096 -205 q 697 -334 897 -334 l 370 -334 q 226 -293 290 -334 q 126 -180 161 -253 q 90 -17 90 -108 q 135 252 90 119 l 319 252 q 296 142 302 194 q 290 14 290 91 q 314 -76 290 -34 q 376 -143 337 -119 q 456 -167 414 -167 l 696 -167 q 849 -150 808 -167 q 890 -93 890 -133 q 868 -53 890 -69 q 795 -22 845 -36 q 633 57 678 7 q 587 191 587 106 q 640 343 587 263 q 776 477 692 422 q 936 532 859 532 q 1019 514 981 532 q 1092 462 1057 497 q 1208 312 1128 427 q 1311 194 1272 220 q 1396 167 1350 167 l 1402 167 q 1410 161 1410 167 l 1410 7 q 1402 0 1410 0 l 1396 0 m 477 -677 q 410 -650 435 -677 q 385 -577 385 -623 q 409 -504 385 -530 q 477 -477 434 -477 q 545 -503 520 -477 q 569 -577 569 -530 q 544 -651 569 -625 q 477 -677 519 -677 m 713 -677 q 646 -650 671 -677 q 621 -577 621 -623 q 645 -504 621 -530 q 713 -477 670 -477 q 781 -504 757 -477 q 806 -577 806 -530 q 780 -650 806 -623 q 713 -677 755 -677 z "},"ی":{"ha":1226,"x_min":90,"x_max":1164,"o":"m 370 -334 q 226 -293 290 -334 q 126 -180 161 -253 q 90 -17 90 -108 q 135 252 90 119 l 319 252 q 296 142 302 194 q 290 14 290 91 q 314 -76 290 -34 q 376 -143 337 -119 q 456 -167 414 -167 l 696 -167 q 853 -147 804 -167 q 903 -83 903 -127 q 884 -32 903 -55 q 821 18 865 -9 q 687 105 763 54 q 583 196 612 157 q 554 282 554 235 q 628 468 554 363 q 804 636 701 572 q 1002 700 907 700 q 1068 687 1034 700 q 1164 635 1101 675 l 1089 484 q 1035 510 1061 499 q 979 521 1008 521 q 883 482 943 521 q 784 397 823 444 q 745 317 745 351 q 776 266 745 295 q 868 198 808 236 q 987 111 924 163 q 1079 13 1049 60 q 1109 -79 1109 -35 q 1003 -270 1109 -207 q 697 -334 897 -334 l 370 -334 z "},"ﯾ":{"ha":561,"x_min":-14,"x_max":443,"o":"m -7 0 q -14 7 -14 0 l -14 161 q -7 167 -14 167 l 236 167 l 236 688 l 443 688 l 443 0 l -7 0 m 105 -347 q 37 -320 62 -347 q 12 -248 12 -294 q 37 -174 12 -201 q 105 -147 62 -147 q 172 -174 148 -147 q 197 -248 197 -200 q 172 -321 197 -295 q 105 -347 146 -347 m 341 -347 q 273 -320 298 -347 q 248 -248 248 -294 q 273 -174 248 -201 q 341 -147 298 -147 q 409 -174 385 -147 q 433 -248 433 -201 q 408 -320 433 -294 q 341 -347 382 -347 z "},"ﯿ":{"ha":616,"x_min":-14,"x_max":631,"o":"m -7 0 q -14 7 -14 0 l -14 161 q -7 167 -14 167 l 208 167 l 208 688 l 415 688 l 415 167 l 624 167 q 631 161 631 167 l 631 7 q 624 0 631 0 l -7 0 m 179 -347 q 111 -320 136 -347 q 86 -248 86 -294 q 111 -174 86 -201 q 179 -147 136 -147 q 246 -174 222 -147 q 271 -248 271 -200 q 245 -321 271 -295 q 179 -347 220 -347 m 415 -347 q 347 -320 372 -347 q 322 -248 322 -294 q 347 -174 322 -201 q 415 -147 372 -147 q 483 -174 458 -147 q 507 -248 507 -201 q 482 -320 507 -294 q 415 -347 456 -347 z "},"ﯽ":{"ha":1396,"x_min":90,"x_max":1410,"o":"m 1396 0 q 1269 21 1321 0 q 1160 102 1216 42 q 1089 195 1145 117 q 986 318 1023 287 q 916 349 949 349 q 859 326 893 349 q 802 272 825 302 q 779 220 779 241 q 803 170 779 191 q 880 132 827 149 q 1011 75 968 102 q 1075 9 1053 47 q 1096 -82 1096 -30 q 997 -269 1096 -205 q 697 -334 897 -334 l 370 -334 q 226 -293 290 -334 q 126 -180 161 -253 q 90 -17 90 -108 q 135 252 90 119 l 319 252 q 296 142 302 194 q 290 14 290 91 q 314 -76 290 -34 q 376 -143 337 -119 q 456 -167 414 -167 l 696 -167 q 849 -150 808 -167 q 890 -93 890 -133 q 868 -53 890 -69 q 795 -22 845 -36 q 633 57 678 7 q 587 191 587 106 q 640 343 587 263 q 776 477 692 422 q 936 532 859 532 q 1019 514 981 532 q 1092 462 1057 497 q 1208 312 1128 427 q 1311 194 1272 220 q 1396 167 1350 167 l 1402 167 q 1410 161 1410 167 l 1410 7 q 1402 0 1410 0 l 1396 0 z "},"ۓ":{"ha":802,"x_min":62,"x_max":1003,"o":"m 355 -334 q 139 -275 216 -334 q 62 -111 62 -217 q 88 -5 62 -50 q 166 77 113 40 q 342 164 220 114 q 484 233 446 207 q 537 293 522 260 q 553 386 553 326 l 553 437 l 760 437 l 760 382 q 736 234 760 292 q 659 135 712 177 q 503 54 606 94 q 345 -13 386 9 q 286 -55 303 -35 q 269 -104 269 -76 q 353 -167 269 -167 l 1003 -167 l 1003 -334 l 355 -334 m 101 406 l 180 419 q 136 457 153 433 q 118 513 118 481 q 159 606 118 573 q 271 640 201 640 q 385 614 339 640 l 357 544 q 281 562 321 562 q 233 544 252 562 q 215 495 215 526 q 227 457 215 473 q 257 433 239 441 l 281 437 q 394 451 352 448 l 394 370 q 230 353 345 367 q 101 336 116 340 l 101 406 z "},"ﮱ":{"ha":539,"x_min":62,"x_max":966,"o":"m 602 167 q 608 161 608 167 l 608 7 q 602 0 608 0 l 419 0 q 307 -27 345 0 q 269 -98 269 -54 q 292 -148 269 -129 q 358 -167 314 -167 l 966 -167 l 966 -334 l 309 -334 q 132 -269 201 -334 q 62 -102 62 -204 q 109 36 62 -25 q 235 132 155 98 q 411 167 316 167 l 602 167 m 157 349 l 236 362 q 191 400 209 376 q 174 456 174 424 q 215 549 174 516 q 326 583 256 583 q 440 557 395 583 l 412 487 q 337 505 377 505 q 289 487 307 505 q 271 438 271 469 q 283 400 271 416 q 313 376 295 384 l 337 380 q 450 394 408 391 l 450 313 q 286 296 400 310 q 157 279 172 283 l 157 349 z "},"ئ":{"ha":1226,"x_min":90,"x_max":1164,"o":"m 370 -334 q 226 -293 290 -334 q 126 -180 161 -253 q 90 -17 90 -108 q 135 252 90 119 l 319 252 q 296 142 302 194 q 290 14 290 91 q 314 -76 290 -34 q 376 -143 337 -119 q 456 -167 414 -167 l 696 -167 q 853 -147 804 -167 q 903 -83 903 -127 q 884 -32 903 -55 q 821 18 865 -9 q 687 105 763 54 q 583 196 612 157 q 554 282 554 235 q 628 468 554 363 q 804 636 701 572 q 1002 700 907 700 q 1068 687 1034 700 q 1164 635 1101 675 l 1089 484 q 1035 510 1061 499 q 979 521 1008 521 q 883 482 943 521 q 784 397 823 444 q 745 317 745 351 q 776 266 745 295 q 868 198 808 236 q 987 111 924 163 q 1079 13 1049 60 q 1109 -79 1109 -35 q 1003 -270 1109 -207 q 697 -334 897 -334 l 370 -334 m 219 483 l 298 496 q 254 533 271 509 q 236 590 236 557 q 277 683 236 650 q 389 716 319 716 q 503 691 457 716 l 475 621 q 399 638 439 638 q 351 621 370 638 q 333 572 333 603 q 345 534 333 550 q 375 509 357 517 l 399 513 q 512 528 470 524 l 512 447 q 348 430 463 444 q 219 412 234 416 l 219 483 z "},"ﺋ":{"ha":492,"x_min":-14,"x_max":387,"o":"m -7 0 q -14 7 -14 0 l -14 161 q -7 167 -14 167 l 167 167 l 167 688 l 374 688 l 374 0 l -7 0 m 94 869 l 174 882 q 129 919 146 895 q 111 976 111 943 q 153 1069 111 1036 q 264 1102 194 1102 q 378 1077 332 1102 l 350 1006 q 275 1024 315 1024 q 227 1006 245 1024 q 208 958 208 989 q 220 920 208 936 q 250 895 233 903 l 275 899 q 387 913 345 910 l 387 833 q 223 816 338 829 q 94 798 109 802 l 94 869 z "},"ﺌ":{"ha":547,"x_min":-14,"x_max":561,"o":"m 554 167 q 561 161 561 167 l 561 7 q 554 0 561 0 l -7 0 q -14 7 -14 0 l -14 161 q -7 167 -14 167 l 167 167 l 167 688 l 374 688 l 374 167 l 554 167 m 94 869 l 174 882 q 129 919 146 895 q 111 976 111 943 q 153 1069 111 1036 q 264 1102 194 1102 q 378 1077 332 1102 l 350 1006 q 275 1024 315 1024 q 227 1006 245 1024 q 208 958 208 989 q 220 920 208 936 q 250 895 233 903 l 275 899 q 387 913 345 910 l 387 833 q 223 816 338 829 q 94 798 109 802 l 94 869 z "},"ﺊ":{"ha":1396,"x_min":90,"x_max":1410,"o":"m 1396 0 q 1269 21 1321 0 q 1160 102 1216 42 q 1089 195 1145 117 q 986 318 1023 287 q 916 349 949 349 q 859 326 893 349 q 802 272 825 302 q 779 220 779 241 q 803 170 779 191 q 880 132 827 149 q 1011 75 968 102 q 1075 9 1053 47 q 1096 -82 1096 -30 q 997 -269 1096 -205 q 697 -334 897 -334 l 370 -334 q 226 -293 290 -334 q 126 -180 161 -253 q 90 -17 90 -108 q 135 252 90 119 l 319 252 q 296 142 302 194 q 290 14 290 91 q 314 -76 290 -34 q 376 -143 337 -119 q 456 -167 414 -167 l 696 -167 q 849 -150 808 -167 q 890 -93 890 -133 q 868 -53 890 -69 q 795 -22 845 -36 q 633 57 678 7 q 587 191 587 106 q 640 343 587 263 q 776 477 692 422 q 936 532 859 532 q 1019 514 981 532 q 1092 462 1057 497 q 1208 312 1128 427 q 1311 194 1272 220 q 1396 167 1350 167 l 1402 167 q 1410 161 1410 167 l 1410 7 q 1402 0 1410 0 l 1396 0 m 262 462 l 342 475 q 297 512 315 488 q 279 569 279 536 q 321 662 279 629 q 432 695 362 695 q 546 670 500 695 l 518 600 q 443 617 483 617 q 395 600 413 617 q 376 551 376 582 q 389 513 376 529 q 418 488 401 496 l 443 492 q 555 507 513 503 l 555 426 q 392 409 506 422 q 262 391 277 395 l 262 462 z "},"ﻷ":{"ha":991,"x_min":62,"x_max":867,"o":"m 62 167 l 314 167 l 135 868 l 351 868 l 517 167 l 526 167 q 628 205 595 167 q 660 328 660 243 l 660 1055 l 867 1055 l 867 311 q 788 85 867 170 q 572 0 710 0 l 62 0 l 62 167 m 76 1020 l 155 1033 q 111 1070 128 1046 q 93 1127 93 1095 q 134 1220 93 1187 q 245 1253 176 1253 q 359 1228 314 1253 l 332 1158 q 256 1175 296 1175 q 208 1158 227 1175 q 190 1109 190 1140 q 202 1071 190 1087 q 232 1046 214 1055 l 256 1050 q 369 1065 327 1061 l 369 984 q 205 967 319 981 q 76 949 91 954 l 76 1020 z "},"ﻸ":{"ha":1040,"x_min":62,"x_max":1054,"o":"m 1047 167 q 1054 161 1054 167 l 1054 7 q 1047 0 1054 0 l 62 0 l 62 167 l 314 167 l 135 868 l 351 868 l 517 167 l 660 167 l 660 1055 l 867 1055 l 867 167 l 1047 167 m 76 1020 l 155 1033 q 111 1070 128 1046 q 93 1127 93 1095 q 134 1220 93 1187 q 245 1253 176 1253 q 359 1228 314 1253 l 332 1158 q 256 1175 296 1175 q 208 1158 227 1175 q 190 1109 190 1140 q 202 1071 190 1087 q 232 1046 214 1055 l 256 1050 q 369 1065 327 1061 l 369 984 q 205 967 319 981 q 76 949 91 954 l 76 1020 z "},"ﻹ":{"ha":991,"x_min":62,"x_max":867,"o":"m 62 167 l 314 167 l 135 868 l 351 868 l 517 167 l 526 167 q 628 205 595 167 q 660 328 660 243 l 660 1055 l 867 1055 l 867 311 q 788 85 867 170 q 572 0 710 0 l 62 0 l 62 167 m 257 -339 l 336 -326 q 291 -289 309 -313 q 273 -232 273 -264 q 315 -140 273 -174 q 427 -106 356 -106 q 541 -131 495 -106 l 513 -201 q 437 -183 474 -183 q 389 -201 408 -183 q 371 -250 371 -219 q 412 -313 371 -292 l 437 -309 q 550 -294 505 -298 l 550 -375 q 386 -392 500 -378 q 257 -410 272 -406 l 257 -339 z "},"ﻺ":{"ha":1040,"x_min":62,"x_max":1054,"o":"m 1047 167 q 1054 161 1054 167 l 1054 7 q 1047 0 1054 0 l 62 0 l 62 167 l 314 167 l 135 868 l 351 868 l 517 167 l 660 167 l 660 1055 l 867 1055 l 867 167 l 1047 167 m 257 -339 l 336 -326 q 291 -289 309 -313 q 273 -232 273 -264 q 315 -140 273 -174 q 427 -106 356 -106 q 541 -131 495 -106 l 513 -201 q 437 -183 474 -183 q 389 -201 408 -183 q 371 -250 371 -219 q 412 -313 371 -292 l 437 -309 q 550 -294 505 -298 l 550 -375 q 386 -392 500 -378 q 257 -410 272 -406 l 257 -339 z "},"ﻵ":{"ha":991,"x_min":8,"x_max":867,"o":"m 62 167 l 314 167 l 135 868 l 351 868 l 517 167 l 526 167 q 628 205 595 167 q 660 328 660 243 l 660 1055 l 867 1055 l 867 311 q 788 85 867 170 q 572 0 710 0 l 62 0 l 62 167 m 8 940 q 55 1073 17 1027 q 151 1119 93 1119 q 207 1107 180 1119 q 260 1081 235 1095 q 310 1054 286 1066 q 353 1042 333 1042 q 399 1060 383 1042 q 425 1120 414 1078 l 496 1120 q 452 989 489 1037 q 353 941 414 941 q 299 953 326 941 q 246 979 272 965 q 196 1005 220 994 q 151 1017 172 1017 q 105 999 121 1017 q 79 940 89 981 l 8 940 z "},"ﻶ":{"ha":1040,"x_min":8,"x_max":1054,"o":"m 1047 167 q 1054 161 1054 167 l 1054 7 q 1047 0 1054 0 l 62 0 l 62 167 l 314 167 l 135 868 l 351 868 l 517 167 l 660 167 l 660 1055 l 867 1055 l 867 167 l 1047 167 m 8 940 q 55 1073 17 1027 q 151 1119 93 1119 q 207 1107 180 1119 q 260 1081 235 1095 q 310 1054 286 1066 q 353 1042 333 1042 q 399 1060 383 1042 q 425 1120 414 1078 l 496 1120 q 452 989 489 1037 q 353 941 414 941 q 299 953 326 941 q 246 979 272 965 q 196 1005 220 994 q 151 1017 172 1017 q 105 999 121 1017 q 79 940 89 981 l 8 940 z "},"ۂ":{"ha":1104,"x_min":69,"x_max":1118,"o":"m 1111 167 q 1118 161 1118 167 l 1118 7 q 1111 0 1118 0 l 730 0 l 730 504 q 587 419 652 475 q 458 273 522 363 q 301 0 395 182 l 69 0 q 226 276 178 201 q 326 409 275 350 q 435 517 376 469 q 566 606 494 566 q 724 673 637 645 l 937 673 l 937 167 l 1111 167 m 586 859 l 665 872 q 621 910 638 886 q 603 966 603 934 q 644 1059 603 1026 q 755 1093 686 1093 q 869 1067 824 1093 l 842 997 q 766 1015 806 1015 q 718 997 736 1015 q 700 948 700 979 q 712 910 700 926 q 742 886 724 894 l 766 890 q 879 904 837 901 l 879 823 q 715 806 829 820 q 586 789 601 793 l 586 859 z "},"ﮦ":{"ha":876,"x_min":90,"x_max":786,"o":"m 436 -14 q 178 67 267 -14 q 90 306 90 148 q 135 506 90 414 q 258 649 179 597 q 440 701 338 701 q 612 651 534 701 q 738 507 689 601 q 786 306 786 413 q 698 64 786 141 q 436 -14 610 -14 m 435 155 q 543 194 508 155 q 578 313 578 233 q 535 468 578 402 q 433 534 493 534 q 332 470 374 534 q 290 313 290 406 q 326 194 290 233 q 435 155 361 155 z "},"ۃ":{"ha":1104,"x_min":69,"x_max":1118,"o":"m 1111 167 q 1118 161 1118 167 l 1118 7 q 1111 0 1118 0 l 730 0 l 730 504 q 587 419 652 475 q 458 273 522 363 q 301 0 395 182 l 69 0 q 226 276 178 201 q 326 409 275 350 q 435 517 376 469 q 566 606 494 566 q 724 673 637 645 l 937 673 l 937 167 l 1111 167 m 611 807 q 543 834 568 807 q 518 907 518 861 q 543 980 518 954 q 611 1007 568 1007 q 678 981 654 1007 q 703 907 703 954 q 677 833 703 859 q 611 807 652 807 m 847 807 q 779 834 804 807 q 754 907 754 861 q 779 980 754 954 q 847 1007 804 1007 q 915 980 890 1007 q 939 907 939 954 q 914 834 939 861 q 847 807 888 807 z "},"ﮫ":{"ha":1289,"x_min":90,"x_max":1303,"o":"m 1296 167 q 1303 161 1303 167 l 1303 7 q 1296 0 1303 0 l 90 0 l 90 167 l 212 167 q 165 241 184 193 q 146 361 146 289 q 189 514 146 442 q 306 626 233 585 q 464 667 380 667 q 629 627 558 667 q 739 519 701 588 q 778 364 778 450 l 778 167 l 971 167 l 971 424 q 884 695 971 601 q 631 789 796 789 q 447 776 527 789 q 293 736 368 764 l 245 895 q 433 942 341 928 q 631 956 526 956 q 1041 824 904 956 q 1178 441 1178 692 l 1178 167 l 1296 167 m 571 167 l 571 355 q 546 460 571 427 q 465 493 520 493 q 388 454 418 493 q 358 353 358 414 q 526 167 358 167 l 571 167 z "},"ﮬ":{"ha":1234,"x_min":-14,"x_max":1129,"o":"m 522 167 l 522 355 q 497 460 522 427 q 416 493 471 493 q 339 453 369 493 q 310 353 310 414 q 478 167 310 167 l 522 167 m -7 0 q -14 7 -14 0 l -14 161 q -7 167 -14 167 l 164 167 q 116 241 136 193 q 97 361 97 289 q 140 514 97 442 q 257 626 184 585 q 415 667 331 667 q 581 628 509 667 q 691 519 652 589 q 729 364 729 449 l 729 167 l 922 167 l 922 424 q 836 694 922 600 q 582 789 749 789 q 399 776 478 789 q 244 736 320 764 l 197 895 q 385 942 293 928 q 582 956 477 956 q 992 824 856 956 q 1129 441 1129 692 l 1129 0 l -7 0 z "},"ﮭ":{"ha":1296,"x_min":-14,"x_max":1310,"o":"m 1303 167 q 1310 161 1310 167 l 1310 7 q 1303 0 1310 0 l -7 0 q -14 7 -14 0 l -14 161 q -7 167 -14 167 l 164 167 q 116 241 136 193 q 97 361 97 289 q 140 514 97 442 q 257 626 184 585 q 415 667 331 667 q 581 628 509 667 q 691 519 652 589 q 729 364 729 449 l 729 167 l 922 167 l 922 424 q 836 694 922 600 q 582 789 749 789 q 399 776 478 789 q 244 736 320 764 l 197 895 q 385 942 293 928 q 582 956 477 956 q 992 824 856 956 q 1129 441 1129 692 l 1129 167 l 1303 167 m 522 167 l 522 355 q 497 460 522 427 q 416 493 471 493 q 339 453 369 493 q 310 353 310 414 q 478 167 310 167 l 522 167 z "},"۰":{"ha":526,"x_min":139,"x_max":387,"o":"m 139 567 l 387 567 l 387 252 l 139 252 l 139 567 z "},"۱":{"ha":485,"x_min":139,"x_max":346,"o":"m 139 936 l 346 936 l 346 0 l 139 0 l 139 936 z "},"۲":{"ha":732,"x_min":62,"x_max":704,"o":"m 62 804 l 62 936 l 704 936 l 704 760 l 290 760 l 574 0 l 354 0 l 62 804 z "},"۳":{"ha":860,"x_min":62,"x_max":825,"o":"m 62 936 l 271 936 l 346 742 q 366 733 354 733 q 387 771 382 733 q 392 936 392 810 l 557 936 q 551 742 557 783 q 590 733 562 733 q 635 750 621 733 q 654 807 649 768 q 660 936 660 846 l 825 936 l 825 917 q 779 674 825 747 q 624 602 732 602 q 513 633 557 602 q 439 603 482 603 q 378 612 397 603 l 615 0 l 400 0 l 62 936 z "},"۹":{"ha":833,"x_min":41,"x_max":708,"o":"m 501 350 l 390 350 q 41 657 41 350 q 129 872 41 795 q 366 950 216 950 q 624 840 539 950 q 708 510 708 729 l 708 0 l 501 0 l 501 350 m 501 510 q 468 719 501 651 q 366 786 435 786 q 279 750 310 786 q 248 653 248 715 q 286 547 248 583 q 396 510 323 510 l 501 510 z "},"۷":{"ha":804,"x_min":28,"x_max":777,"o":"m 28 936 l 244 936 l 370 410 q 400 212 393 294 l 404 212 q 417 312 406 243 q 435 410 428 381 l 559 936 l 777 936 l 509 0 l 296 0 l 28 936 z "},"۸":{"ha":804,"x_min":28,"x_max":777,"o":"m 296 936 l 509 936 l 777 0 l 559 0 l 435 526 q 416 624 427 556 q 404 724 406 692 l 400 724 q 370 526 393 642 l 244 0 l 28 0 l 296 936 z "},"ﹰ":{"ha":0,"x_min":-163,"x_max":163,"o":"m -163 1168 l 163 1289 l 163 1200 l -163 1078 l -163 1168 m -163 1325 l 163 1446 l 163 1357 l -163 1235 l -163 1325 z "},"ﹲ":{"ha":0,"x_min":-249,"x_max":265,"o":"m 32 1083 q -30 1090 -3 1083 q -80 1109 -57 1097 q -136 1150 -103 1121 l -197 1099 l -249 1165 l -127 1272 q 26 1164 -50 1164 q 54 1166 43 1164 q 12 1283 12 1226 q 48 1370 12 1337 q 142 1402 85 1402 q 232 1371 198 1402 q 265 1289 265 1339 q 234 1186 265 1233 q 148 1111 202 1139 q 32 1083 93 1083 m 129 1194 q 171 1236 159 1212 q 182 1280 182 1261 q 170 1312 182 1300 q 139 1324 158 1324 q 109 1312 122 1324 q 96 1276 96 1300 q 129 1194 96 1240 z "},"ﹴ":{"ha":0,"x_min":-163,"x_max":163,"o":"m -163 -475 l 163 -354 l 163 -443 l -163 -566 l -163 -475 m -163 -304 l 163 -183 l 163 -272 l -163 -395 l -163 -304 z "},"ﹶ":{"ha":0,"x_min":-163,"x_max":163,"o":"m -163 1168 l 163 1289 l 163 1200 l -163 1078 l -163 1168 z "},"ﹸ":{"ha":0,"x_min":-204,"x_max":212,"o":"m -56 1083 q -204 1133 -135 1083 l -157 1202 q -58 1164 -98 1164 q -1 1171 -24 1164 q -40 1283 -40 1230 q -4 1370 -40 1337 q 89 1402 33 1402 q 179 1371 145 1402 q 212 1289 212 1339 q 175 1190 212 1238 q 76 1112 137 1141 q -56 1083 16 1083 m 72 1198 q 115 1239 102 1216 q 127 1283 127 1262 q 116 1312 127 1301 q 86 1324 104 1324 q 55 1312 68 1324 q 41 1276 41 1300 q 72 1198 41 1243 z "},"ﹺ":{"ha":0,"x_min":-163,"x_max":163,"o":"m -163 -304 l 163 -183 l 163 -272 l -163 -395 l -163 -304 z "},"ﹼ":{"ha":0,"x_min":-221,"x_max":236,"o":"m -100 1120 q -189 1155 -157 1120 q -221 1254 -221 1191 l -221 1341 l -135 1341 l -135 1276 q -125 1219 -135 1238 q -86 1200 -115 1200 q -45 1214 -58 1200 q -32 1264 -32 1227 l -32 1377 l 47 1377 l 47 1292 q 58 1244 47 1261 q 100 1227 68 1227 q 139 1242 128 1227 q 150 1304 150 1257 l 150 1397 l 236 1397 l 236 1282 q 203 1183 236 1218 q 110 1147 170 1147 q 12 1189 46 1147 q -100 1120 -22 1120 z "},"ﹾ":{"ha":0,"x_min":-153,"x_max":154,"o":"m -1 1133 q -112 1173 -71 1133 q -153 1279 -153 1213 q -112 1385 -153 1345 q -1 1425 -71 1425 q 111 1385 67 1425 q 154 1280 154 1345 q 112 1174 154 1215 q -1 1133 69 1133 m -1 1218 q 43 1234 26 1218 q 60 1279 60 1251 q 43 1324 60 1308 q -1 1340 26 1340 q -45 1324 -28 1340 q -62 1279 -62 1308 q -47 1234 -62 1251 q -1 1218 -32 1218 z "},"ﱞ":{"ha":0,"x_min":-249,"x_max":265,"o":"m -100 1120 q -189 1155 -157 1120 q -221 1254 -221 1191 l -221 1341 l -135 1341 l -135 1276 q -125 1219 -135 1238 q -86 1200 -115 1200 q -45 1214 -58 1200 q -32 1264 -32 1227 l -32 1377 l 47 1377 l 47 1292 q 58 1244 47 1261 q 100 1227 68 1227 q 139 1242 128 1227 q 150 1304 150 1257 l 150 1397 l 236 1397 l 236 1282 q 203 1183 236 1218 q 110 1147 170 1147 q 12 1189 46 1147 q -100 1120 -22 1120 m 32 1421 q -30 1428 -3 1421 q -80 1447 -57 1434 q -136 1488 -103 1459 l -197 1436 l -249 1503 l -127 1610 q 26 1501 -50 1501 q 54 1504 43 1501 q 12 1621 12 1564 q 48 1708 12 1675 q 142 1740 85 1740 q 232 1708 198 1740 q 265 1627 265 1676 q 234 1524 265 1571 q 148 1449 202 1476 q 32 1421 93 1421 m 129 1532 q 171 1574 159 1550 q 182 1618 182 1598 q 170 1650 182 1638 q 139 1662 158 1662 q 109 1650 122 1662 q 96 1614 96 1638 q 129 1532 96 1578 z "},"ﱟ":{"ha":0,"x_min":-221,"x_max":239,"o":"m -100 1120 q -189 1155 -157 1120 q -221 1254 -221 1191 l -221 1341 l -135 1341 l -135 1276 q -125 1219 -135 1238 q -86 1200 -115 1200 q -45 1214 -58 1200 q -32 1264 -32 1227 l -32 1377 l 47 1377 l 47 1292 q 58 1244 47 1261 q 100 1227 68 1227 q 139 1242 128 1227 q 150 1304 150 1257 l 150 1397 l 236 1397 l 236 1282 q 203 1183 236 1218 q 110 1147 170 1147 q 12 1189 46 1147 q -100 1120 -22 1120 m -86 817 l 239 938 l 239 849 l -86 726 l -86 817 m -86 987 l 239 1109 l 239 1020 l -86 897 l -86 987 z "},"ﱠ":{"ha":0,"x_min":-221,"x_max":236,"o":"m -100 1120 q -189 1155 -157 1120 q -221 1254 -221 1191 l -221 1341 l -135 1341 l -135 1276 q -125 1219 -135 1238 q -86 1200 -115 1200 q -45 1214 -58 1200 q -32 1264 -32 1227 l -32 1377 l 47 1377 l 47 1292 q 58 1244 47 1261 q 100 1227 68 1227 q 139 1242 128 1227 q 150 1304 150 1257 l 150 1397 l 236 1397 l 236 1282 q 203 1183 236 1218 q 110 1147 170 1147 q 12 1189 46 1147 q -100 1120 -22 1120 m -215 1504 l 111 1626 l 111 1536 l -215 1414 l -215 1504 z "},"ﱡ":{"ha":0,"x_min":-233,"x_max":236,"o":"m -100 1120 q -189 1155 -157 1120 q -221 1254 -221 1191 l -221 1341 l -135 1341 l -135 1276 q -125 1219 -135 1238 q -86 1200 -115 1200 q -45 1214 -58 1200 q -32 1264 -32 1227 l -32 1377 l 47 1377 l 47 1292 q 58 1244 47 1261 q 100 1227 68 1227 q 139 1242 128 1227 q 150 1304 150 1257 l 150 1397 l 236 1397 l 236 1282 q 203 1183 236 1218 q 110 1147 170 1147 q 12 1189 46 1147 q -100 1120 -22 1120 m -84 1461 q -233 1511 -163 1461 l -185 1579 q -87 1541 -127 1541 q -30 1548 -53 1541 q -68 1661 -68 1607 q -32 1748 -68 1715 q 60 1780 4 1780 q 150 1748 117 1780 q 184 1667 184 1716 q 146 1567 184 1616 q 48 1490 109 1518 q -84 1461 -13 1461 m 43 1576 q 86 1617 73 1594 q 99 1661 99 1640 q 87 1690 99 1678 q 58 1702 75 1702 q 26 1690 40 1702 q 13 1654 13 1678 q 43 1576 13 1621 z "},"ﱢ":{"ha":0,"x_min":-221,"x_max":236,"o":"m -100 1120 q -189 1155 -157 1120 q -221 1254 -221 1191 l -221 1341 l -135 1341 l -135 1276 q -125 1219 -135 1238 q -86 1200 -115 1200 q -45 1214 -58 1200 q -32 1264 -32 1227 l -32 1377 l 47 1377 l 47 1292 q 58 1244 47 1261 q 100 1227 68 1227 q 139 1242 128 1227 q 150 1304 150 1257 l 150 1397 l 236 1397 l 236 1282 q 203 1183 236 1218 q 110 1147 170 1147 q 12 1189 46 1147 q -100 1120 -22 1120 m -92 951 l 233 1072 l 233 983 l -92 861 l -92 951 z "},"ﱣ":{"ha":0,"x_min":-221,"x_max":236,"o":"m -100 1120 q -189 1155 -157 1120 q -221 1254 -221 1191 l -221 1341 l -135 1341 l -135 1276 q -125 1219 -135 1238 q -86 1200 -115 1200 q -45 1214 -58 1200 q -32 1264 -32 1227 l -32 1377 l 47 1377 l 47 1292 q 58 1244 47 1261 q 100 1227 68 1227 q 139 1242 128 1227 q 150 1304 150 1257 l 150 1397 l 236 1397 l 236 1282 q 203 1183 236 1218 q 110 1147 170 1147 q 12 1189 46 1147 q -100 1120 -22 1120 m -40 1744 l 53 1744 l 53 1475 l -40 1475 l -40 1744 z "},"ٲ":{"ha":485,"x_min":12,"x_max":412,"o":"m 139 972 l 346 972 l 346 0 l 139 0 l 139 972 m 412 1100 q 210 1072 293 1072 q 135 1086 189 1072 l 115 1089 q 49 1057 85 1089 l 12 1096 q 60 1147 34 1127 q 107 1168 86 1168 q 157 1157 128 1168 q 199 1145 186 1145 q 154 1182 172 1158 q 136 1239 136 1206 q 178 1332 136 1299 q 289 1365 219 1365 q 403 1340 357 1365 l 375 1270 q 300 1287 340 1287 q 252 1270 270 1287 q 233 1221 233 1252 q 245 1183 233 1199 q 275 1158 258 1166 q 347 1168 297 1160 q 412 1181 397 1177 l 412 1100 z "},"ٳ":{"ha":485,"x_min":-3,"x_max":399,"o":"m 139 1055 l 346 1055 l 346 0 l 139 0 l 139 1055 m 399 -332 q 196 -359 279 -359 q 121 -346 172 -359 l 101 -343 q 35 -375 71 -343 l -3 -336 q 93 -264 56 -264 q 142 -275 115 -264 q 184 -288 170 -287 q 140 -250 157 -274 q 122 -193 122 -226 q 163 -101 122 -135 q 275 -66 203 -66 q 389 -92 340 -66 l 361 -163 q 286 -144 328 -144 q 237 -163 256 -144 q 219 -211 219 -182 q 231 -249 219 -233 q 261 -273 243 -265 q 331 -264 278 -272 q 399 -252 384 -256 l 399 -332 z "},"ٵ":{"ha":485,"x_min":139,"x_max":716,"o":"m 139 972 l 346 972 l 346 0 l 139 0 l 139 972 m 423 779 l 503 791 q 458 829 475 805 q 440 886 440 853 q 481 979 440 945 q 593 1012 523 1012 q 707 987 661 1012 l 679 916 q 604 934 644 934 q 555 916 574 934 q 537 867 537 899 q 549 829 537 846 q 579 805 562 813 l 604 809 q 716 823 674 820 l 716 743 q 552 726 667 739 q 423 708 438 712 l 423 779 z "},"ٶ":{"ha":871,"x_min":90,"x_max":822,"o":"m 386 -334 q 223 -319 292 -334 q 90 -267 154 -304 l 171 -115 q 277 -156 227 -144 q 382 -168 328 -168 q 503 -125 460 -168 q 546 -7 546 -82 l 546 0 l 408 0 q 180 84 260 0 q 100 323 100 168 q 155 516 100 433 q 310 644 210 600 q 542 688 410 688 l 753 688 l 753 -4 q 657 -248 753 -162 q 386 -334 561 -334 m 546 167 l 546 521 l 501 521 q 362 471 412 521 q 313 329 313 420 q 347 206 313 245 q 450 167 380 167 l 546 167 m 529 887 l 608 900 q 564 938 581 913 q 546 994 546 962 q 587 1087 546 1054 q 699 1120 629 1120 q 812 1095 767 1120 l 785 1025 q 709 1042 749 1042 q 661 1025 680 1042 q 643 976 643 1007 q 655 938 643 954 q 685 913 667 922 l 709 918 q 822 932 780 928 l 822 851 q 658 834 772 848 q 529 817 544 821 l 529 887 z "},"ٷ":{"ha":871,"x_min":-8,"x_max":822,"o":"m 386 -334 q 223 -319 292 -334 q 90 -267 154 -304 l 171 -115 q 277 -156 227 -144 q 382 -168 328 -168 q 503 -125 460 -168 q 546 -7 546 -82 l 546 0 l 408 0 q 180 84 260 0 q 100 323 100 168 q 155 516 100 433 q 310 644 210 600 q 542 688 410 688 l 753 688 l 753 -4 q 657 -248 753 -162 q 386 -334 561 -334 m 546 167 l 546 521 l 501 521 q 362 471 412 521 q 313 329 313 420 q 347 206 313 245 q 450 167 380 167 l 546 167 m 529 887 l 608 900 q 564 938 581 913 q 546 994 546 962 q 587 1087 546 1054 q 699 1120 629 1120 q 812 1095 767 1120 l 785 1025 q 709 1042 749 1042 q 661 1025 680 1042 q 643 976 643 1007 q 655 938 643 954 q 685 913 667 922 l 709 918 q 822 932 780 928 l 822 851 q 658 834 772 848 q 529 817 544 821 l 529 887 m 140 759 q -8 809 61 759 l 39 878 q 138 840 98 840 q 195 846 172 840 q 156 959 156 905 q 192 1046 156 1013 q 285 1078 229 1078 q 375 1046 341 1078 q 408 965 408 1015 q 371 865 408 914 q 272 788 333 817 q 140 759 212 759 m 268 874 q 311 915 298 892 q 323 959 323 938 q 312 988 323 977 q 282 1000 300 1000 q 251 988 264 1000 q 237 952 237 976 q 268 874 237 919 z "},"ٸ":{"ha":1226,"x_min":90,"x_max":1164,"o":"m 370 -334 q 226 -293 290 -334 q 126 -180 161 -253 q 90 -17 90 -108 q 135 252 90 119 l 319 252 q 296 142 302 194 q 290 14 290 91 q 314 -76 290 -34 q 376 -143 337 -119 q 456 -167 414 -167 l 696 -167 q 853 -147 804 -167 q 903 -83 903 -127 q 884 -32 903 -55 q 821 18 865 -9 q 687 105 763 54 q 583 196 612 157 q 554 282 554 235 q 628 468 554 363 q 804 636 701 572 q 1002 700 907 700 q 1068 687 1034 700 q 1164 635 1101 675 l 1089 484 q 1035 510 1061 499 q 979 521 1008 521 q 883 482 943 521 q 784 397 823 444 q 745 317 745 351 q 776 266 745 295 q 868 198 808 236 q 987 111 924 163 q 1079 13 1049 60 q 1109 -79 1109 -35 q 1003 -270 1109 -207 q 697 -334 897 -334 l 370 -334 m 760 861 l 839 873 q 794 911 812 887 q 777 968 777 935 q 818 1061 777 1027 q 929 1094 859 1094 q 1043 1069 998 1094 l 1015 998 q 940 1016 980 1016 q 892 998 910 1016 q 873 949 873 981 q 886 911 873 928 q 916 887 898 895 l 940 891 q 1053 905 1010 902 l 1053 825 q 889 808 1003 821 q 760 790 774 794 l 760 861 z "},"ٺ":{"ha":1204,"x_min":90,"x_max":1086,"o":"m 367 0 q 164 75 239 0 q 90 279 90 149 q 102 391 90 332 q 135 492 115 450 l 318 492 q 297 310 297 401 q 333 206 297 245 q 428 167 369 167 l 879 167 l 879 688 l 1086 688 l 1086 0 l 367 0 m 606 509 q 538 535 564 509 q 513 609 513 561 q 537 684 513 658 q 606 709 562 709 q 673 683 648 709 q 697 609 697 656 q 672 535 697 562 q 606 509 647 509 m 606 768 q 538 793 564 768 q 513 867 513 819 q 537 942 513 916 q 606 968 562 968 q 673 941 648 968 q 697 867 697 915 q 672 794 697 820 q 606 768 647 768 z "},"ٻ":{"ha":1204,"x_min":90,"x_max":1086,"o":"m 367 0 q 164 75 239 0 q 90 279 90 149 q 102 391 90 332 q 135 492 115 450 l 318 492 q 297 310 297 401 q 333 206 297 245 q 428 167 369 167 l 879 167 l 879 688 l 1086 688 l 1086 0 l 367 0 m 633 -606 q 566 -580 592 -606 q 541 -505 541 -554 q 566 -431 541 -457 q 633 -406 591 -406 q 701 -432 676 -406 q 725 -505 725 -458 q 700 -579 725 -553 q 633 -606 675 -606 m 633 -347 q 566 -321 592 -347 q 541 -248 541 -296 q 565 -173 541 -199 q 633 -147 590 -147 q 701 -174 676 -147 q 725 -248 725 -200 q 700 -321 725 -295 q 633 -347 675 -347 z "},"ټ":{"ha":1204,"x_min":90,"x_max":1086,"o":"m 367 0 q 164 75 239 0 q 90 279 90 149 q 102 391 90 332 q 135 492 115 450 l 318 492 q 297 310 297 401 q 333 206 297 245 q 428 167 369 167 l 879 167 l 879 688 l 1086 688 l 1086 0 l 367 0 m 456 675 q 389 702 414 675 q 363 775 363 729 q 388 849 363 822 q 456 876 413 876 q 524 849 499 876 q 548 775 548 823 q 523 702 548 728 q 456 675 498 675 m 692 675 q 625 702 650 675 q 600 775 600 729 q 624 849 600 822 q 692 876 649 876 q 760 849 736 876 q 785 775 785 822 q 759 702 785 729 q 692 675 734 675 m 603 -206 q 492 -166 533 -206 q 452 -60 452 -127 q 492 46 452 6 q 603 85 533 85 q 715 46 671 85 q 758 -59 758 6 q 716 -165 758 -125 q 603 -206 673 -206 m 603 -121 q 647 -105 630 -121 q 664 -60 664 -89 q 647 -16 664 -32 q 603 1 630 1 q 559 -16 576 1 q 542 -60 542 -32 q 557 -105 542 -89 q 603 -121 572 -121 z "},"ٽ":{"ha":1204,"x_min":90,"x_max":1086,"o":"m 367 0 q 164 75 239 0 q 90 279 90 149 q 102 391 90 332 q 135 492 115 450 l 318 492 q 297 310 297 401 q 333 206 297 245 q 428 167 369 167 l 879 167 l 879 688 l 1086 688 l 1086 0 l 367 0 m 586 671 q 643 650 620 671 q 665 587 665 629 q 643 522 665 543 q 586 502 620 502 q 529 525 550 502 q 507 587 507 548 q 529 648 507 625 q 586 671 550 671 m 704 895 q 772 868 747 895 q 798 795 798 842 q 773 722 798 749 q 704 695 749 695 q 637 722 662 695 q 612 795 612 748 q 637 868 612 841 q 704 895 663 895 m 468 895 q 536 868 511 895 q 562 795 562 842 q 537 722 562 749 q 468 695 513 695 q 401 722 426 695 q 376 795 376 748 q 401 868 376 841 q 468 895 427 895 z "},"ٿ":{"ha":1204,"x_min":90,"x_max":1086,"o":"m 367 0 q 164 75 239 0 q 90 279 90 149 q 102 391 90 332 q 135 492 115 450 l 318 492 q 297 310 297 401 q 333 206 297 245 q 428 167 369 167 l 879 167 l 879 688 l 1086 688 l 1086 0 l 367 0 m 467 519 q 408 541 432 519 q 383 609 383 563 q 408 677 383 656 q 467 699 432 699 q 528 675 505 699 q 550 609 550 651 q 528 544 550 568 q 467 519 505 519 m 679 519 q 620 541 644 519 q 595 609 595 563 q 620 677 595 656 q 679 699 644 699 q 738 677 713 699 q 762 609 762 656 q 738 541 762 563 q 679 519 713 519 m 467 743 q 408 765 432 743 q 383 833 383 787 q 408 901 383 880 q 467 923 432 923 q 528 899 505 923 q 550 833 550 875 q 528 767 550 792 q 467 743 505 743 m 679 743 q 620 765 644 743 q 595 833 595 787 q 620 901 595 880 q 679 923 644 923 q 738 901 713 923 q 762 833 762 880 q 738 765 762 787 q 679 743 713 743 z "},"ڀ":{"ha":1204,"x_min":90,"x_max":1086,"o":"m 367 0 q 164 75 239 0 q 90 279 90 149 q 102 391 90 332 q 135 492 115 450 l 318 492 q 297 310 297 401 q 333 206 297 245 q 428 167 369 167 l 879 167 l 879 688 l 1086 688 l 1086 0 l 367 0 m 510 -551 q 451 -529 475 -551 q 427 -461 427 -507 q 451 -393 427 -414 q 510 -371 475 -371 q 571 -395 549 -371 q 593 -461 593 -419 q 571 -527 593 -502 q 510 -551 549 -551 m 722 -551 q 663 -529 688 -551 q 639 -461 639 -507 q 663 -393 639 -414 q 722 -371 688 -371 q 781 -393 757 -371 q 806 -461 806 -414 q 781 -529 806 -507 q 722 -551 757 -551 m 510 -328 q 451 -306 475 -328 q 427 -237 427 -283 q 451 -169 427 -191 q 510 -147 475 -147 q 571 -171 549 -147 q 593 -237 593 -195 q 571 -303 593 -278 q 510 -328 549 -328 m 722 -328 q 663 -306 688 -328 q 639 -237 639 -283 q 663 -169 639 -191 q 722 -147 688 -147 q 781 -169 757 -147 q 806 -237 806 -191 q 781 -306 806 -283 q 722 -328 757 -328 z "},"ځ":{"ha":949,"x_min":62,"x_max":859,"o":"m 379 -453 q 150 -374 237 -453 q 62 -164 62 -295 q 92 -29 62 -90 q 178 82 121 33 q 326 175 235 132 q 568 260 416 218 q 534 372 547 326 q 468 494 513 454 q 349 534 423 534 q 142 471 258 534 l 68 624 q 222 680 135 659 q 392 701 310 701 q 714 433 668 701 q 769 241 738 302 q 859 136 801 180 l 753 0 q 640 117 685 54 q 405 40 473 74 q 301 -41 337 5 q 265 -153 265 -87 q 309 -247 265 -211 q 421 -283 353 -283 q 625 -254 514 -283 l 648 -406 q 379 -453 513 -453 m 168 892 l 248 905 q 203 943 220 919 q 185 1000 185 967 q 227 1093 185 1059 q 338 1126 268 1126 q 452 1101 406 1126 l 424 1030 q 349 1048 389 1048 q 300 1030 319 1048 q 282 981 282 1013 q 294 943 282 960 q 324 919 307 927 l 349 923 q 461 937 419 934 l 461 857 q 297 840 412 853 q 168 822 183 826 l 168 892 z "},"ڂ":{"ha":949,"x_min":62,"x_max":859,"o":"m 379 -453 q 150 -374 237 -453 q 62 -164 62 -295 q 92 -29 62 -90 q 178 82 121 33 q 326 175 235 132 q 568 260 416 218 q 534 372 547 326 q 468 494 513 454 q 349 534 423 534 q 142 471 258 534 l 68 624 q 222 680 135 659 q 392 701 310 701 q 714 433 668 701 q 769 241 738 302 q 859 136 801 180 l 753 0 q 640 117 685 54 q 405 40 473 74 q 301 -41 337 5 q 265 -153 265 -87 q 309 -247 265 -211 q 421 -283 353 -283 q 625 -254 514 -283 l 648 -406 q 379 -453 513 -453 m 355 807 q 288 833 314 807 q 262 907 262 859 q 287 981 262 956 q 355 1007 312 1007 q 422 981 398 1007 q 447 907 447 954 q 422 833 447 859 q 355 807 397 807 m 355 1065 q 288 1091 314 1065 q 262 1165 262 1117 q 287 1240 262 1214 q 355 1265 312 1265 q 422 1239 398 1265 q 447 1165 447 1213 q 422 1092 447 1118 q 355 1065 397 1065 z "},"ڃ":{"ha":949,"x_min":62,"x_max":859,"o":"m 379 -453 q 150 -374 237 -453 q 62 -164 62 -295 q 92 -29 62 -90 q 178 82 121 33 q 326 175 235 132 q 568 260 416 218 q 534 372 547 326 q 468 494 513 454 q 349 534 423 534 q 142 471 258 534 l 68 624 q 222 680 135 659 q 392 701 310 701 q 714 433 668 701 q 769 241 738 302 q 859 136 801 180 l 753 0 q 640 117 685 54 q 405 40 473 74 q 301 -41 337 5 q 265 -153 265 -87 q 309 -247 265 -211 q 421 -283 353 -283 l 379 -453 m 456 -231 q 389 -204 414 -231 q 363 -131 363 -177 q 388 -57 363 -84 q 456 -31 413 -31 q 524 -57 499 -31 q 548 -131 548 -83 q 523 -204 548 -178 q 456 -231 498 -231 m 692 -231 q 625 -204 650 -231 q 600 -131 600 -177 q 624 -57 600 -84 q 692 -31 649 -31 q 760 -57 736 -31 q 785 -131 785 -84 q 759 -204 785 -177 q 692 -231 734 -231 z "},"ڄ":{"ha":949,"x_min":62,"x_max":859,"o":"m 379 -453 q 150 -374 237 -453 q 62 -164 62 -295 q 92 -29 62 -90 q 178 82 121 33 q 326 175 235 132 q 568 260 416 218 q 534 372 547 326 q 468 494 513 454 q 349 534 423 534 q 142 471 258 534 l 68 624 q 222 680 135 659 q 392 701 310 701 q 714 433 668 701 q 769 241 738 302 q 859 136 801 180 l 753 0 q 640 117 685 54 q 405 40 473 74 q 301 -41 337 5 q 265 -153 265 -87 q 309 -247 265 -211 q 421 -283 353 -283 l 379 -453 m 585 -471 q 517 -445 543 -471 q 492 -370 492 -419 q 517 -296 492 -322 q 585 -271 542 -271 q 652 -297 627 -271 q 676 -370 676 -323 q 651 -445 676 -418 q 585 -471 627 -471 m 585 -212 q 517 -186 543 -212 q 492 -113 492 -161 q 516 -38 492 -64 q 585 -12 541 -12 q 652 -39 627 -12 q 676 -113 676 -65 q 651 -186 676 -160 q 585 -212 626 -212 z "},"څ":{"ha":949,"x_min":62,"x_max":859,"o":"m 379 -453 q 150 -374 237 -453 q 62 -164 62 -295 q 92 -29 62 -90 q 178 82 121 33 q 326 175 235 132 q 568 260 416 218 q 534 372 547 326 q 468 494 513 454 q 349 534 423 534 q 142 471 258 534 l 68 624 q 222 680 135 659 q 392 701 310 701 q 714 433 668 701 q 769 241 738 302 q 859 136 801 180 l 753 0 q 640 117 685 54 q 405 40 473 74 q 301 -41 337 5 q 265 -153 265 -87 q 309 -247 265 -211 q 421 -283 353 -283 q 625 -254 514 -283 l 648 -406 q 379 -453 513 -453 m 332 1031 q 276 1052 298 1031 q 253 1116 253 1073 q 276 1180 253 1160 q 332 1200 298 1200 q 389 1177 368 1200 q 411 1116 411 1155 q 390 1054 411 1078 q 332 1031 368 1031 m 214 807 q 146 834 171 807 q 121 907 121 861 q 145 980 121 954 q 214 1007 170 1007 q 281 980 257 1007 q 306 907 306 954 q 280 834 306 861 q 214 807 255 807 m 450 807 q 382 834 407 807 q 357 907 357 861 q 381 980 357 954 q 450 1007 406 1007 q 517 981 492 1007 q 542 907 542 954 q 516 834 542 861 q 450 807 491 807 z "},"ڇ":{"ha":949,"x_min":62,"x_max":859,"o":"m 379 -453 q 150 -374 237 -453 q 62 -164 62 -295 q 92 -29 62 -90 q 178 82 121 33 q 326 175 235 132 q 568 260 416 218 q 534 372 547 326 q 468 494 513 454 q 349 534 423 534 q 142 471 258 534 l 68 624 q 222 680 135 659 q 392 701 310 701 q 714 433 668 701 q 769 241 738 302 q 859 136 801 180 l 753 0 q 640 117 685 54 q 405 40 473 74 q 301 -41 337 5 q 265 -153 265 -87 q 309 -247 265 -211 q 421 -283 353 -283 l 379 -453 m 559 -456 q 500 -434 524 -456 q 475 -366 475 -412 q 500 -297 475 -319 q 559 -275 524 -275 q 620 -299 597 -275 q 642 -366 642 -323 q 620 -431 642 -406 q 559 -456 597 -456 m 771 -456 q 712 -434 736 -456 q 688 -366 688 -412 q 712 -297 688 -319 q 771 -275 736 -275 q 830 -297 806 -275 q 854 -366 854 -319 q 830 -434 854 -412 q 771 -456 806 -456 m 559 -232 q 500 -210 524 -232 q 475 -142 475 -188 q 500 -73 475 -95 q 559 -52 524 -52 q 620 -76 597 -52 q 642 -142 642 -100 q 620 -207 642 -182 q 559 -232 597 -232 m 771 -232 q 712 -210 736 -232 q 688 -142 688 -188 q 712 -73 688 -95 q 771 -52 736 -52 q 830 -73 806 -52 q 854 -142 854 -95 q 830 -210 854 -188 q 771 -232 806 -232 z "},"ډ":{"ha":827,"x_min":62,"x_max":736,"o":"m 62 167 l 526 167 q 457 374 498 295 q 352 510 416 453 q 197 606 289 568 l 275 800 q 573 570 461 726 q 736 161 686 414 l 736 0 l 62 0 l 62 167 m 350 -206 q 239 -166 280 -206 q 199 -60 199 -127 q 239 46 199 6 q 350 85 280 85 q 462 46 418 85 q 505 -59 505 6 q 463 -165 505 -125 q 350 -206 420 -206 m 350 -121 q 394 -105 377 -121 q 411 -60 411 -89 q 394 -16 411 -32 q 350 1 377 1 q 306 -16 323 1 q 289 -60 289 -32 q 304 -105 289 -89 q 350 -121 319 -121 z "},"ڊ":{"ha":827,"x_min":62,"x_max":736,"o":"m 62 167 l 526 167 q 457 374 498 295 q 352 510 416 453 q 197 606 289 568 l 275 800 q 573 570 461 726 q 736 161 686 414 l 736 0 l 62 0 l 62 167 m 375 -347 q 307 -320 332 -347 q 281 -248 281 -294 q 306 -174 281 -201 q 375 -147 331 -147 q 442 -174 417 -147 q 467 -248 467 -200 q 441 -320 467 -294 q 375 -347 416 -347 z "},"ڋ":{"ha":827,"x_min":62,"x_max":736,"o":"m 62 167 l 526 167 q 457 374 498 295 q 352 510 416 453 q 197 606 289 568 l 275 800 q 573 570 461 726 q 736 161 686 414 l 736 0 l 62 0 l 62 167 m 121 1008 l 142 1008 l 142 1261 l 225 1261 l 225 1099 q 335 1161 263 1161 q 424 1129 397 1161 q 450 1026 450 1097 l 450 921 l 121 921 l 121 1008 m 367 1008 l 367 1015 q 356 1069 367 1052 q 319 1087 345 1087 q 263 1069 284 1087 q 227 1023 241 1050 l 225 1008 l 367 1008 m 375 -347 q 307 -320 332 -347 q 281 -248 281 -294 q 306 -174 281 -201 q 375 -147 331 -147 q 442 -174 417 -147 q 467 -248 467 -200 q 441 -320 467 -294 q 375 -347 416 -347 z "},"ڌ":{"ha":827,"x_min":49,"x_max":736,"o":"m 62 167 l 526 167 q 457 374 498 295 q 352 510 416 453 q 197 606 289 568 l 275 800 q 573 570 461 726 q 736 161 686 414 l 736 0 l 62 0 l 62 167 m 142 918 q 74 945 99 918 q 49 1018 49 972 q 74 1092 49 1065 q 142 1118 98 1118 q 209 1092 184 1118 q 233 1018 233 1065 q 208 944 233 970 q 142 918 183 918 m 378 918 q 310 945 335 918 q 285 1018 285 972 q 310 1092 285 1065 q 378 1118 334 1118 q 446 1092 421 1118 q 470 1018 470 1065 q 445 945 470 972 q 378 918 419 918 z "},"ڍ":{"ha":827,"x_min":62,"x_max":736,"o":"m 62 167 l 526 167 q 457 374 498 295 q 352 510 416 453 q 197 606 289 568 l 275 800 q 573 570 461 726 q 736 161 686 414 l 736 0 l 62 0 l 62 167 m 256 -347 q 188 -320 213 -347 q 163 -248 163 -294 q 188 -174 163 -201 q 256 -147 212 -147 q 323 -174 298 -147 q 347 -248 347 -200 q 322 -321 347 -295 q 256 -347 297 -347 m 492 -347 q 424 -320 449 -347 q 399 -248 399 -294 q 424 -174 399 -201 q 492 -147 448 -147 q 559 -174 535 -147 q 584 -248 584 -201 q 558 -320 584 -294 q 492 -347 533 -347 z "},"ڎ":{"ha":827,"x_min":48,"x_max":736,"o":"m 62 167 l 526 167 q 457 374 498 295 q 352 510 416 453 q 197 606 289 568 l 275 800 q 573 570 461 726 q 736 161 686 414 l 736 0 l 62 0 l 62 167 m 259 1142 q 203 1163 226 1142 q 180 1227 180 1184 q 203 1291 180 1271 q 259 1311 226 1311 q 317 1289 295 1311 q 338 1227 338 1266 q 317 1165 338 1189 q 259 1142 296 1142 m 141 918 q 73 945 98 918 q 48 1018 48 972 q 73 1092 48 1065 q 141 1118 98 1118 q 209 1092 184 1118 q 233 1018 233 1065 q 208 945 233 972 q 141 918 182 918 m 378 918 q 309 945 334 918 q 284 1018 284 972 q 309 1092 284 1065 q 378 1118 334 1118 q 445 1092 420 1118 q 469 1018 469 1065 q 444 945 469 972 q 378 918 418 918 z "},"ڏ":{"ha":827,"x_min":52,"x_max":736,"o":"m 62 167 l 526 167 q 457 374 498 295 q 352 510 416 453 q 197 606 289 568 l 275 800 q 573 570 461 726 q 736 161 686 414 l 736 0 l 62 0 l 62 167 m 261 1053 q 318 1032 295 1053 q 340 968 340 1011 q 318 904 340 924 q 261 884 295 884 q 204 907 225 884 q 182 968 182 930 q 204 1030 182 1006 q 261 1053 225 1053 m 379 1276 q 448 1250 422 1276 q 473 1177 473 1223 q 448 1104 473 1131 q 379 1077 424 1077 q 312 1103 337 1077 q 288 1177 288 1130 q 313 1250 288 1223 q 379 1276 338 1276 m 143 1276 q 212 1250 186 1276 q 237 1177 237 1223 q 212 1104 237 1131 q 143 1077 188 1077 q 76 1103 101 1077 q 52 1177 52 1130 q 77 1250 52 1223 q 143 1276 102 1276 z "},"ڐ":{"ha":827,"x_min":62,"x_max":736,"o":"m 62 167 l 526 167 q 457 374 498 295 q 352 510 416 453 q 197 606 289 568 l 275 800 q 573 570 461 726 q 736 161 686 414 l 736 0 l 62 0 l 62 167 m 153 905 q 94 927 119 905 q 70 996 70 949 q 94 1064 70 1042 q 153 1086 119 1086 q 214 1062 192 1086 q 237 996 237 1038 q 214 930 237 955 q 153 905 192 905 m 366 905 q 307 927 331 905 q 282 996 282 949 q 307 1064 282 1042 q 366 1086 331 1086 q 425 1064 400 1086 q 449 996 449 1042 q 425 927 449 949 q 366 905 400 905 m 153 1129 q 94 1151 119 1129 q 70 1219 70 1173 q 94 1288 70 1266 q 153 1310 119 1310 q 214 1285 192 1310 q 237 1219 237 1261 q 214 1154 237 1179 q 153 1129 192 1129 m 366 1129 q 307 1151 331 1129 q 282 1219 282 1173 q 307 1288 282 1266 q 366 1310 331 1310 q 425 1288 400 1310 q 449 1219 449 1266 q 425 1151 449 1173 q 366 1129 400 1129 z "},"ڒ":{"ha":608,"x_min":-56,"x_max":611,"o":"m 200 -334 q 70 -317 129 -334 q -56 -256 10 -300 l 28 -121 q 93 -153 64 -144 q 160 -161 121 -161 q 250 -119 216 -161 q 283 -12 283 -77 l 283 688 l 490 688 l 490 -22 q 411 -250 490 -165 q 200 -334 332 -334 m 611 1086 l 458 809 l 317 809 l 162 1086 l 298 1086 l 386 907 l 476 1086 l 611 1086 z "},"ړ":{"ha":608,"x_min":-56,"x_max":490,"o":"m 200 -334 q 70 -317 129 -334 q -56 -256 10 -300 l 28 -121 q 93 -153 64 -144 q 160 -161 121 -161 q 250 -119 216 -161 q 283 -12 283 -77 l 283 688 l 490 688 l 490 -22 q 411 -250 490 -165 q 200 -334 332 -334 m 335 -516 q 224 -476 265 -516 q 184 -370 184 -437 q 224 -264 184 -304 q 335 -224 265 -224 q 447 -264 404 -224 q 490 -369 490 -304 q 448 -475 490 -435 q 335 -516 406 -516 m 335 -431 q 379 -415 362 -431 q 396 -370 396 -399 q 379 -326 396 -342 q 335 -309 362 -309 q 291 -326 308 -309 q 274 -370 274 -342 q 289 -415 274 -399 q 335 -431 304 -431 z "},"ڔ":{"ha":608,"x_min":-56,"x_max":490,"o":"m 200 -334 q 70 -317 129 -334 q -56 -256 10 -300 l 28 -121 q 93 -153 64 -144 q 160 -161 121 -161 q 250 -119 216 -161 q 283 -12 283 -77 l 283 688 l 490 688 l 490 -22 q 411 -250 490 -165 q 200 -334 332 -334 m 200 -642 q 132 -615 157 -642 q 106 -543 106 -589 q 131 -469 106 -496 q 200 -442 156 -442 q 267 -469 242 -442 q 292 -543 292 -495 q 266 -615 292 -589 q 200 -642 241 -642 z "},"ڕ":{"ha":608,"x_min":-56,"x_max":490,"o":"m 200 -334 q 70 -317 129 -334 q -56 -256 10 -300 l 28 -121 q 93 -153 64 -144 q 160 -161 121 -161 q 250 -119 216 -161 q 283 -12 283 -77 l 283 688 l 490 688 l 490 -22 q 411 -250 490 -165 q 200 -334 332 -334 m 429 -442 l 276 -719 l 135 -719 l -20 -442 l 117 -442 l 204 -621 l 294 -442 l 429 -442 z "},"ږ":{"ha":608,"x_min":-56,"x_max":490,"o":"m 200 -334 q 70 -317 129 -334 q -56 -256 10 -300 l 28 -121 q 93 -153 64 -144 q 160 -161 121 -161 q 250 -119 216 -161 q 283 -12 283 -77 l 283 688 l 490 688 l 490 -22 q 411 -250 490 -165 q 200 -334 332 -334 m 228 -642 q 159 -615 184 -642 q 134 -543 134 -589 q 159 -469 134 -496 q 228 -442 184 -442 q 295 -469 270 -442 q 319 -543 319 -495 q 294 -615 319 -589 q 228 -642 269 -642 m 144 0 q 76 27 101 0 q 51 100 51 54 q 76 173 51 146 q 144 200 100 200 q 211 174 186 200 q 236 100 236 147 q 211 27 236 54 q 144 0 185 0 z "},"ڗ":{"ha":608,"x_min":-56,"x_max":592,"o":"m 200 -334 q 70 -317 129 -334 q -56 -256 10 -300 l 28 -121 q 93 -153 64 -144 q 160 -161 121 -161 q 250 -119 216 -161 q 283 -12 283 -77 l 283 688 l 490 688 l 490 -22 q 411 -250 490 -165 q 200 -334 332 -334 m 264 807 q 196 834 221 807 q 171 907 171 861 q 196 980 171 954 q 264 1007 220 1007 q 331 981 307 1007 q 355 907 355 954 q 330 833 355 859 q 264 807 305 807 m 500 807 q 432 834 457 807 q 407 907 407 861 q 432 980 407 954 q 500 1007 456 1007 q 568 980 543 1007 q 592 907 592 954 q 567 834 592 861 q 500 807 541 807 z "},"ڙ":{"ha":608,"x_min":-56,"x_max":564,"o":"m 200 -334 q 70 -317 129 -334 q -56 -256 10 -300 l 28 -121 q 93 -153 64 -144 q 160 -161 121 -161 q 250 -119 216 -161 q 283 -12 283 -77 l 283 688 l 490 688 l 490 -22 q 411 -250 490 -165 q 200 -334 332 -334 m 269 792 q 210 814 234 792 q 185 882 185 836 q 210 951 185 929 q 269 972 234 972 q 330 948 307 972 q 352 882 352 924 q 330 817 352 842 q 269 792 307 792 m 481 792 q 422 814 446 792 q 397 882 397 836 q 422 951 397 929 q 481 972 446 972 q 540 951 515 972 q 564 882 564 929 q 540 814 564 836 q 481 792 515 792 m 269 1016 q 210 1038 234 1016 q 185 1106 185 1060 q 210 1175 185 1153 q 269 1196 234 1196 q 330 1172 307 1196 q 352 1106 352 1148 q 330 1041 352 1065 q 269 1016 307 1016 m 481 1016 q 422 1038 446 1016 q 397 1106 397 1060 q 422 1175 397 1153 q 481 1196 446 1196 q 540 1175 515 1196 q 564 1106 564 1153 q 540 1038 564 1060 q 481 1016 515 1016 z "},"ښ":{"ha":1960,"x_min":90,"x_max":1842,"o":"m 1057 167 q 1158 205 1126 167 q 1190 328 1190 244 l 1190 579 l 1397 579 l 1397 311 q 1393 249 1397 277 q 1462 185 1428 203 q 1549 167 1496 167 l 1634 167 l 1634 688 l 1842 688 l 1842 0 l 1553 0 q 1335 104 1435 0 q 1103 0 1257 0 l 937 0 q 529 -334 912 -334 l 468 -334 q 266 -285 352 -334 q 135 -148 180 -236 q 90 56 90 -59 q 109 216 90 134 q 161 363 128 298 l 345 363 q 310 207 323 288 q 297 54 297 125 q 348 -107 297 -47 q 482 -167 399 -167 l 524 -167 q 681 -109 631 -167 q 732 54 732 -51 l 732 579 l 939 579 l 939 167 l 1057 167 m 1296 807 q 1227 834 1253 807 q 1202 907 1202 861 q 1227 980 1202 954 q 1296 1007 1252 1007 q 1363 981 1338 1007 q 1388 907 1388 954 q 1362 834 1388 861 q 1296 807 1337 807 m 1291 -347 q 1222 -320 1247 -347 q 1197 -248 1197 -294 q 1222 -174 1197 -201 q 1291 -147 1246 -147 q 1357 -174 1333 -147 q 1382 -248 1382 -200 q 1357 -320 1382 -294 q 1291 -347 1331 -347 z "},"ڛ":{"ha":1960,"x_min":90,"x_max":1842,"o":"m 1057 167 q 1158 205 1126 167 q 1190 328 1190 244 l 1190 579 l 1397 579 l 1397 311 q 1393 249 1397 277 q 1462 185 1428 203 q 1549 167 1496 167 l 1634 167 l 1634 688 l 1842 688 l 1842 0 l 1553 0 q 1335 104 1435 0 q 1103 0 1257 0 l 937 0 q 529 -334 912 -334 l 468 -334 q 266 -285 352 -334 q 135 -148 180 -236 q 90 56 90 -59 q 109 216 90 134 q 161 363 128 298 l 345 363 q 310 207 323 288 q 297 54 297 125 q 348 -107 297 -47 q 482 -167 399 -167 l 524 -167 q 681 -109 631 -167 q 732 54 732 -51 l 732 579 l 939 579 l 939 167 l 1057 167 m 1282 -508 q 1226 -487 1249 -508 q 1203 -423 1203 -466 q 1226 -359 1203 -379 q 1282 -338 1249 -338 q 1340 -362 1318 -338 q 1361 -423 1361 -385 q 1340 -485 1361 -461 q 1282 -508 1318 -508 m 1164 -333 q 1096 -306 1121 -333 q 1071 -233 1071 -279 q 1095 -160 1071 -186 q 1164 -133 1120 -133 q 1232 -160 1207 -133 q 1256 -233 1256 -186 q 1231 -306 1256 -279 q 1164 -333 1205 -333 m 1400 -333 q 1332 -307 1357 -333 q 1307 -233 1307 -280 q 1331 -160 1307 -186 q 1400 -133 1356 -133 q 1467 -159 1442 -133 q 1492 -233 1492 -186 q 1467 -306 1492 -279 q 1400 -333 1441 -333 z "},"ڜ":{"ha":1960,"x_min":90,"x_max":1842,"o":"m 1057 167 q 1158 205 1126 167 q 1190 328 1190 244 l 1190 579 l 1397 579 l 1397 311 q 1393 249 1397 277 q 1462 185 1428 203 q 1549 167 1496 167 l 1634 167 l 1634 688 l 1842 688 l 1842 0 l 1553 0 q 1335 104 1435 0 q 1103 0 1257 0 l 937 0 q 529 -334 912 -334 l 468 -334 q 266 -285 352 -334 q 135 -148 180 -236 q 90 56 90 -59 q 109 216 90 134 q 161 363 128 298 l 345 363 q 310 207 323 288 q 297 54 297 125 q 348 -107 297 -47 q 482 -167 399 -167 l 524 -167 q 681 -109 631 -167 q 732 54 732 -51 l 732 579 l 939 579 l 939 167 l 1057 167 m 1286 996 q 1230 1017 1253 996 q 1207 1080 1207 1038 q 1230 1144 1207 1124 q 1286 1164 1253 1164 q 1343 1142 1322 1164 q 1365 1080 1365 1120 q 1344 1019 1365 1042 q 1286 996 1322 996 m 1168 772 q 1100 799 1125 772 q 1075 871 1075 825 q 1100 945 1075 918 q 1168 972 1124 972 q 1236 945 1211 972 q 1260 871 1260 918 q 1235 799 1260 825 q 1168 772 1209 772 m 1404 772 q 1336 799 1361 772 q 1311 871 1311 825 q 1336 945 1311 918 q 1404 972 1360 972 q 1471 945 1447 972 q 1496 871 1496 919 q 1471 799 1496 825 q 1404 772 1445 772 m 1282 -508 q 1226 -487 1249 -508 q 1203 -423 1203 -466 q 1226 -359 1203 -379 q 1282 -338 1249 -338 q 1340 -362 1318 -338 q 1361 -423 1361 -385 q 1340 -485 1361 -461 q 1282 -508 1318 -508 m 1164 -333 q 1096 -306 1121 -333 q 1071 -233 1071 -279 q 1095 -160 1071 -186 q 1164 -133 1120 -133 q 1232 -160 1207 -133 q 1256 -233 1256 -186 q 1231 -306 1256 -279 q 1164 -333 1205 -333 m 1400 -333 q 1332 -307 1357 -333 q 1307 -233 1307 -280 q 1331 -160 1307 -186 q 1400 -133 1356 -133 q 1467 -159 1442 -133 q 1492 -233 1492 -186 q 1467 -306 1492 -279 q 1400 -333 1441 -333 z "},"ڝ":{"ha":1764,"x_min":90,"x_max":1659,"o":"m 468 -334 q 266 -285 352 -334 q 135 -148 180 -236 q 90 56 90 -59 q 109 216 90 134 q 161 363 128 298 l 345 363 q 310 207 323 288 q 297 54 297 125 q 348 -107 297 -47 q 482 -167 399 -167 l 524 -167 q 681 -109 631 -167 q 732 54 732 -51 l 732 688 l 939 688 l 939 444 q 1315 701 1065 701 q 1573 611 1486 701 q 1659 334 1659 522 l 1659 0 l 937 0 q 823 -249 927 -164 q 529 -334 720 -334 l 468 -334 m 1453 167 l 1453 338 q 1406 487 1453 439 q 1263 534 1360 534 q 939 275 1075 534 l 939 167 l 1453 167 m 1097 -347 q 1029 -320 1055 -347 q 1004 -248 1004 -294 q 1029 -174 1004 -201 q 1097 -147 1054 -147 q 1164 -174 1140 -147 q 1189 -248 1189 -200 q 1164 -321 1189 -295 q 1097 -347 1139 -347 m 1333 -347 q 1265 -320 1291 -347 q 1240 -248 1240 -294 q 1265 -174 1240 -201 q 1333 -147 1290 -147 q 1401 -174 1377 -147 q 1426 -248 1426 -201 q 1400 -320 1426 -294 q 1333 -347 1375 -347 z "},"ڞ":{"ha":1764,"x_min":90,"x_max":1659,"o":"m 468 -334 q 266 -285 352 -334 q 135 -148 180 -236 q 90 56 90 -59 q 109 216 90 134 q 161 363 128 298 l 345 363 q 310 207 323 288 q 297 54 297 125 q 348 -107 297 -47 q 482 -167 399 -167 l 524 -167 q 681 -109 631 -167 q 732 54 732 -51 l 732 688 l 939 688 l 939 444 q 1315 701 1065 701 q 1573 611 1486 701 q 1659 334 1659 522 l 1659 0 l 937 0 q 823 -249 927 -164 q 529 -334 720 -334 l 468 -334 m 1453 167 l 1453 338 q 1406 487 1453 439 q 1263 534 1360 534 q 939 275 1075 534 l 939 167 l 1453 167 m 1267 1031 q 1212 1052 1234 1031 q 1189 1116 1189 1073 q 1212 1180 1189 1160 q 1267 1200 1234 1200 q 1325 1177 1303 1200 q 1347 1116 1347 1155 q 1325 1054 1347 1078 q 1267 1031 1304 1031 m 1149 807 q 1082 834 1107 807 q 1057 907 1057 861 q 1081 980 1057 954 q 1149 1007 1106 1007 q 1217 980 1193 1007 q 1242 907 1242 954 q 1216 834 1242 861 q 1149 807 1191 807 m 1386 807 q 1318 834 1343 807 q 1293 907 1293 861 q 1317 980 1293 954 q 1386 1007 1342 1007 q 1453 981 1428 1007 q 1478 907 1478 954 q 1452 834 1478 861 q 1386 807 1427 807 z "},"ڟ":{"ha":1189,"x_min":28,"x_max":1084,"o":"m 878 167 l 878 338 q 831 487 878 439 q 688 534 785 534 q 364 275 500 534 l 364 167 l 878 167 m 28 167 l 157 167 l 157 1055 l 364 1055 l 364 444 q 741 701 491 701 q 998 611 911 701 q 1084 334 1084 522 l 1084 0 l 28 0 l 28 167 m 708 1031 q 652 1052 675 1031 q 629 1116 629 1073 q 652 1180 629 1160 q 708 1200 675 1200 q 766 1177 744 1200 q 787 1116 787 1155 q 766 1054 787 1078 q 708 1031 745 1031 m 590 807 q 522 834 547 807 q 497 907 497 861 q 522 980 497 954 q 590 1007 547 1007 q 658 980 633 1007 q 682 907 682 954 q 657 834 682 861 q 590 807 631 807 m 827 807 q 758 834 783 807 q 733 907 733 861 q 758 980 733 954 q 827 1007 783 1007 q 893 981 869 1007 q 918 907 918 954 q 893 834 918 861 q 827 807 867 807 z "},"ڠ":{"ha":823,"x_min":90,"x_max":761,"o":"m 407 -453 q 177 -375 264 -453 q 90 -171 90 -298 q 267 106 90 -16 q 181 229 218 155 q 144 367 144 304 q 247 612 144 523 q 528 701 350 701 q 655 688 589 701 q 761 656 722 674 l 703 493 q 606 526 648 517 q 522 534 564 534 q 389 489 435 534 q 343 358 343 443 q 357 259 343 300 q 400 179 372 218 q 642 271 520 233 l 690 114 q 385 -6 477 60 q 293 -160 293 -73 q 333 -251 293 -218 q 449 -283 372 -283 q 653 -254 542 -283 l 676 -406 q 407 -453 541 -453 m 493 1031 q 437 1052 460 1031 q 414 1116 414 1073 q 437 1180 414 1160 q 493 1200 460 1200 q 551 1177 529 1200 q 572 1116 572 1155 q 551 1054 572 1078 q 493 1031 530 1031 m 375 807 q 307 834 332 807 q 282 907 282 861 q 307 980 282 954 q 375 1007 332 1007 q 443 980 418 1007 q 467 907 467 954 q 442 834 467 861 q 375 807 416 807 m 612 807 q 543 834 568 807 q 518 907 518 861 q 543 980 518 954 q 612 1007 568 1007 q 679 981 654 1007 q 703 907 703 954 q 678 834 703 861 q 612 807 652 807 z "},"ڡ":{"ha":1493,"x_min":90,"x_max":1375,"o":"m 367 0 q 164 75 239 0 q 90 279 90 149 q 102 391 90 332 q 135 492 115 450 l 318 492 q 297 310 297 401 q 333 206 297 245 q 428 167 369 167 l 789 167 q 722 350 722 248 q 829 596 722 505 q 1128 688 937 688 l 1375 688 l 1375 0 l 367 0 m 1168 167 l 1168 521 l 1132 521 q 986 474 1037 521 q 935 339 935 427 q 985 212 935 256 q 1129 167 1035 167 l 1168 167 z "},"ڢ":{"ha":1493,"x_min":90,"x_max":1375,"o":"m 367 0 q 164 75 239 0 q 90 279 90 149 q 102 391 90 332 q 135 492 115 450 l 318 492 q 297 310 297 401 q 333 206 297 245 q 428 167 369 167 l 789 167 q 722 350 722 248 q 829 596 722 505 q 1128 688 937 688 l 1375 688 l 1375 0 l 367 0 m 1168 167 l 1168 521 l 1132 521 q 986 474 1037 521 q 935 339 935 427 q 985 212 935 256 q 1129 167 1035 167 l 1168 167 m 1057 -347 q 989 -320 1014 -347 q 964 -248 964 -294 q 988 -174 964 -201 q 1057 -147 1013 -147 q 1124 -174 1099 -147 q 1149 -248 1149 -200 q 1123 -320 1149 -294 q 1057 -347 1098 -347 z "},"ڣ":{"ha":1493,"x_min":90,"x_max":1375,"o":"m 367 0 q 164 75 239 0 q 90 279 90 149 q 102 391 90 332 q 135 492 115 450 l 318 492 q 297 310 297 401 q 333 206 297 245 q 428 167 369 167 l 789 167 q 722 350 722 248 q 829 596 722 505 q 1128 688 937 688 l 1375 688 l 1375 0 l 367 0 m 1168 167 l 1168 521 l 1132 521 q 986 474 1037 521 q 935 339 935 427 q 985 212 935 256 q 1129 167 1035 167 l 1168 167 m 1077 807 q 1008 834 1034 807 q 983 907 983 861 q 1008 980 983 954 q 1077 1007 1033 1007 q 1144 981 1119 1007 q 1168 907 1168 954 q 1143 834 1168 861 q 1077 807 1118 807 m 1057 -347 q 989 -320 1014 -347 q 964 -248 964 -294 q 988 -174 964 -201 q 1057 -147 1013 -147 q 1124 -174 1099 -147 q 1149 -248 1149 -200 q 1123 -320 1149 -294 q 1057 -347 1098 -347 z "},"ڥ":{"ha":1493,"x_min":90,"x_max":1375,"o":"m 367 0 q 164 75 239 0 q 90 279 90 149 q 102 391 90 332 q 135 492 115 450 l 318 492 q 297 310 297 401 q 333 206 297 245 q 428 167 369 167 l 789 167 q 722 350 722 248 q 829 596 722 505 q 1128 688 937 688 l 1375 688 l 1375 0 l 367 0 m 1168 167 l 1168 521 l 1132 521 q 986 474 1037 521 q 935 339 935 427 q 985 212 935 256 q 1129 167 1035 167 l 1168 167 m 1071 -522 q 1015 -500 1038 -522 q 992 -437 992 -479 q 1015 -372 992 -393 q 1071 -352 1038 -352 q 1129 -375 1107 -352 q 1150 -437 1150 -399 q 1129 -498 1150 -475 q 1071 -522 1107 -522 m 953 -347 q 885 -319 910 -347 q 860 -246 860 -292 q 884 -173 860 -200 q 953 -146 909 -146 q 1021 -173 996 -146 q 1045 -246 1045 -200 q 1020 -320 1045 -293 q 953 -347 994 -347 m 1190 -347 q 1121 -320 1146 -347 q 1096 -246 1096 -294 q 1120 -173 1096 -200 q 1190 -146 1145 -146 q 1256 -173 1232 -146 q 1281 -246 1281 -199 q 1256 -320 1281 -293 q 1190 -347 1230 -347 z "},"ڦ":{"ha":1493,"x_min":90,"x_max":1375,"o":"m 367 0 q 164 75 239 0 q 90 279 90 149 q 102 391 90 332 q 135 492 115 450 l 318 492 q 297 310 297 401 q 333 206 297 245 q 428 167 369 167 l 789 167 q 722 350 722 248 q 829 596 722 505 q 1128 688 937 688 l 1375 688 l 1375 0 l 367 0 m 1168 167 l 1168 521 l 1132 521 q 986 474 1037 521 q 935 339 935 427 q 985 212 935 256 q 1129 167 1035 167 l 1168 167 m 978 808 q 919 830 943 808 q 895 899 895 852 q 919 967 895 945 q 978 989 943 989 q 1039 965 1017 989 q 1061 899 1061 941 q 1039 833 1061 858 q 978 808 1017 808 m 1190 808 q 1131 830 1156 808 q 1107 899 1107 852 q 1131 967 1107 945 q 1190 989 1156 989 q 1249 967 1225 989 q 1274 899 1274 945 q 1249 830 1274 852 q 1190 808 1225 808 m 978 1032 q 919 1054 943 1032 q 895 1122 895 1076 q 919 1191 895 1169 q 978 1213 943 1213 q 1039 1188 1017 1213 q 1061 1122 1061 1164 q 1039 1057 1061 1082 q 978 1032 1017 1032 m 1190 1032 q 1131 1054 1156 1032 q 1107 1122 1107 1076 q 1131 1191 1107 1169 q 1190 1213 1156 1213 q 1249 1191 1225 1213 q 1274 1122 1274 1169 q 1249 1054 1274 1076 q 1190 1032 1225 1032 z "},"ڧ":{"ha":1336,"x_min":90,"x_max":1218,"o":"m 458 -334 q 270 -283 354 -334 q 138 -143 185 -233 q 90 56 90 -54 q 109 216 90 134 q 161 363 128 298 l 345 363 q 310 207 323 288 q 297 54 297 125 q 354 -109 297 -50 q 521 -167 412 -167 l 755 -167 q 950 -129 890 -167 q 1011 -7 1011 -90 l 1011 0 l 913 0 l 905 0 q 728 42 805 0 q 608 162 651 84 q 566 345 566 240 q 613 526 566 449 q 751 646 660 604 q 972 688 843 688 l 1218 688 l 1218 36 q 1123 -242 1218 -151 q 825 -334 1029 -334 l 458 -334 m 1011 167 l 1011 521 l 975 521 q 778 336 778 521 q 829 209 778 252 q 972 167 881 167 l 1011 167 m 931 807 q 863 834 888 807 q 838 907 838 861 q 862 980 838 954 q 931 1007 887 1007 q 998 981 973 1007 q 1023 907 1023 954 q 997 834 1023 861 q 931 807 972 807 z "},"ڨ":{"ha":1336,"x_min":90,"x_max":1218,"o":"m 458 -334 q 270 -283 354 -334 q 138 -143 185 -233 q 90 56 90 -54 q 109 216 90 134 q 161 363 128 298 l 345 363 q 310 207 323 288 q 297 54 297 125 q 354 -109 297 -50 q 521 -167 412 -167 l 755 -167 q 950 -129 890 -167 q 1011 -7 1011 -90 l 1011 0 l 913 0 l 905 0 q 728 42 805 0 q 608 162 651 84 q 566 345 566 240 q 613 526 566 449 q 751 646 660 604 q 972 688 843 688 l 1218 688 l 1218 36 q 1123 -242 1218 -151 q 825 -334 1029 -334 l 458 -334 m 1011 167 l 1011 521 l 975 521 q 778 336 778 521 q 829 209 778 252 q 972 167 881 167 l 1011 167 m 920 1031 q 864 1052 887 1031 q 842 1116 842 1073 q 864 1180 842 1160 q 920 1200 887 1200 q 978 1177 956 1200 q 1000 1116 1000 1155 q 978 1054 1000 1078 q 920 1031 957 1031 m 802 807 q 734 834 760 807 q 709 907 709 861 q 734 980 709 954 q 802 1007 759 1007 q 870 980 846 1007 q 895 907 895 954 q 869 834 895 861 q 802 807 844 807 m 1039 807 q 970 834 996 807 q 945 907 945 861 q 970 980 945 954 q 1039 1007 995 1007 q 1106 981 1081 1007 q 1131 907 1131 954 q 1105 834 1131 861 q 1039 807 1080 807 z "},"ڪ":{"ha":1604,"x_min":28,"x_max":1500,"o":"m 57 211 q 500 167 274 167 l 1293 167 q 1236 296 1293 251 q 1072 340 1178 340 l 334 340 l 334 490 q 541 765 408 647 q 851 946 675 883 l 928 760 q 702 652 808 724 q 549 507 596 581 l 1104 507 q 1400 427 1301 507 q 1500 193 1500 347 l 1500 0 l 567 0 q 273 23 420 0 q 28 89 125 47 l 57 211 z "},"ګ":{"ha":1232,"x_min":90,"x_max":1128,"o":"m 901 677 q 811 701 848 677 q 758 766 774 724 q 679 660 726 729 l 732 660 q 1028 580 928 660 q 1128 346 1128 500 l 1128 0 l 367 0 q 164 75 237 0 q 90 279 90 149 q 135 492 90 389 l 318 492 q 297 310 297 380 q 333 205 297 243 q 428 167 368 167 l 921 167 l 921 319 q 863 448 921 404 q 700 493 806 493 l 464 493 l 464 643 q 692 977 556 839 q 982 1169 827 1114 l 1059 983 q 981 951 1025 973 q 1036 902 1015 935 q 1057 825 1057 870 q 1015 718 1057 758 q 901 677 972 677 m 901 762 q 945 779 928 762 q 962 823 962 795 q 945 868 962 852 q 901 885 928 885 q 857 868 874 885 q 840 823 840 852 q 856 779 840 795 q 901 762 871 762 z "},"ڬ":{"ha":1225,"x_min":90,"x_max":1086,"o":"m 449 501 l 528 514 q 483 552 500 528 q 465 608 465 576 q 506 701 465 667 q 618 734 547 734 q 732 710 684 734 l 704 639 q 629 657 667 657 q 581 638 599 657 q 562 590 562 620 q 604 528 562 549 l 629 532 q 742 546 699 543 l 742 465 q 449 431 652 460 l 449 501 m 367 0 q 164 75 239 0 q 90 279 90 149 q 102 391 90 332 q 135 492 115 450 l 318 492 q 297 310 297 401 q 333 206 297 245 q 428 167 369 167 l 879 167 l 879 1055 l 1086 1055 l 1086 0 l 367 0 m 574 890 q 505 917 530 890 q 480 990 480 944 q 505 1064 480 1037 q 574 1090 530 1090 q 641 1064 616 1090 q 665 990 665 1038 q 640 917 665 944 q 574 890 614 890 z "},"ڭ":{"ha":1225,"x_min":90,"x_max":1086,"o":"m 449 501 l 528 514 q 483 552 500 528 q 465 608 465 576 q 506 701 465 667 q 618 734 547 734 q 732 710 684 734 l 704 639 q 629 657 667 657 q 581 638 599 657 q 562 590 562 620 q 604 528 562 549 l 629 532 q 742 546 699 543 l 742 465 q 449 431 652 460 l 449 501 m 367 0 q 164 75 239 0 q 90 279 90 149 q 102 391 90 332 q 135 492 115 450 l 318 492 q 297 310 297 401 q 333 206 297 245 q 428 167 369 167 l 879 167 l 879 1055 l 1086 1055 l 1086 0 l 367 0 m 583 1064 q 527 1085 550 1064 q 505 1149 505 1106 q 527 1213 505 1193 q 583 1233 550 1233 q 641 1211 619 1233 q 663 1149 663 1188 q 641 1087 663 1111 q 583 1064 620 1064 m 465 840 q 397 867 422 840 q 372 940 372 894 q 397 1014 372 987 q 465 1040 422 1040 q 533 1014 509 1040 q 557 940 557 987 q 532 867 557 894 q 465 840 507 840 m 702 840 q 633 867 659 840 q 608 940 608 894 q 633 1014 608 987 q 702 1040 658 1040 q 769 1014 744 1040 q 793 940 793 987 q 768 867 793 894 q 702 840 743 840 z "},"ڮ":{"ha":1225,"x_min":90,"x_max":1086,"o":"m 449 501 l 528 514 q 483 552 500 528 q 465 608 465 576 q 506 701 465 667 q 618 734 547 734 q 732 710 684 734 l 704 639 q 629 657 667 657 q 581 638 599 657 q 562 590 562 620 q 604 528 562 549 l 629 532 q 742 546 699 543 l 742 465 q 449 431 652 460 l 449 501 m 367 0 q 164 75 239 0 q 90 279 90 149 q 102 391 90 332 q 135 492 115 450 l 318 492 q 297 310 297 401 q 333 206 297 245 q 428 167 369 167 l 879 167 l 879 1055 l 1086 1055 l 1086 0 l 367 0 m 612 -522 q 556 -500 579 -522 q 534 -437 534 -479 q 556 -372 534 -393 q 612 -352 579 -352 q 670 -375 649 -352 q 692 -437 692 -399 q 670 -498 692 -475 q 612 -522 649 -522 m 494 -347 q 427 -319 452 -347 q 401 -246 401 -292 q 426 -173 401 -200 q 494 -146 450 -146 q 562 -173 538 -146 q 587 -246 587 -200 q 561 -320 587 -293 q 494 -347 536 -347 m 731 -347 q 663 -320 688 -347 q 637 -246 637 -294 q 662 -173 637 -200 q 731 -146 686 -146 q 798 -173 773 -146 q 823 -246 823 -199 q 797 -320 823 -293 q 731 -347 772 -347 z "},"ڰ":{"ha":1232,"x_min":90,"x_max":1128,"o":"m 901 677 q 811 701 848 677 q 758 766 774 724 q 679 660 726 729 l 732 660 q 1028 580 928 660 q 1128 346 1128 500 l 1128 0 l 367 0 q 164 75 237 0 q 90 279 90 149 q 135 492 90 389 l 318 492 q 297 310 297 380 q 333 205 297 243 q 428 167 368 167 l 921 167 l 921 319 q 863 448 921 404 q 700 493 806 493 l 464 493 l 464 643 q 692 977 556 839 q 982 1169 827 1114 l 1059 983 q 981 951 1025 973 q 1036 902 1015 935 q 1057 825 1057 870 q 1015 718 1057 758 q 901 677 972 677 m 901 762 q 945 779 928 762 q 962 823 962 795 q 945 868 962 852 q 901 885 928 885 q 857 868 874 885 q 840 823 840 852 q 856 779 840 795 q 901 762 871 762 m 419 890 q 539 1066 452 966 q 725 1242 626 1165 q 909 1354 823 1318 l 949 1247 q 758 1137 859 1213 q 575 967 658 1062 q 456 794 492 872 l 419 890 z "},"ڱ":{"ha":1232,"x_min":90,"x_max":1128,"o":"m 367 0 q 164 75 237 0 q 90 279 90 149 q 135 492 90 389 l 318 492 q 297 310 297 380 q 333 205 297 243 q 428 167 368 167 l 921 167 l 921 390 q 863 519 921 474 q 700 564 806 564 l 464 564 l 464 714 q 671 988 537 869 q 982 1169 805 1106 l 1059 983 q 832 876 939 947 q 679 730 726 804 l 732 730 q 1128 416 1128 730 l 1128 0 l 367 0 m 414 946 q 607 1177 458 1048 q 904 1368 755 1305 l 944 1261 q 740 1153 842 1223 q 561 1002 637 1082 q 451 850 484 921 l 414 946 m 524 1350 q 546 1403 524 1380 q 597 1426 568 1426 q 656 1400 629 1426 q 683 1341 683 1373 q 660 1291 683 1315 q 608 1267 637 1267 q 550 1293 576 1267 q 524 1350 525 1319 m 379 1227 q 401 1281 379 1258 q 452 1304 424 1304 q 512 1278 485 1304 q 538 1219 538 1251 q 515 1169 538 1193 q 464 1145 492 1145 q 406 1170 432 1145 q 379 1227 380 1196 z "},"ڲ":{"ha":1232,"x_min":90,"x_max":1128,"o":"m 367 0 q 164 75 237 0 q 90 279 90 149 q 135 492 90 389 l 318 492 q 297 310 297 380 q 333 205 297 243 q 428 167 368 167 l 921 167 l 921 390 q 863 519 921 474 q 700 564 806 564 l 464 564 l 464 714 q 671 988 537 869 q 982 1169 805 1106 l 1059 983 q 832 876 939 947 q 679 730 726 804 l 732 730 q 1128 416 1128 730 l 1128 0 l 367 0 m 414 946 q 607 1177 458 1048 q 904 1368 755 1305 l 944 1261 q 740 1153 842 1223 q 561 1002 637 1082 q 451 850 484 921 l 414 946 m 515 -347 q 448 -320 473 -347 q 422 -248 422 -294 q 447 -174 422 -201 q 515 -147 472 -147 q 583 -174 558 -147 q 607 -248 607 -200 q 582 -321 607 -295 q 515 -347 557 -347 m 751 -347 q 684 -320 709 -347 q 659 -248 659 -294 q 683 -174 659 -201 q 751 -147 708 -147 q 819 -174 795 -147 q 844 -248 844 -201 q 818 -320 844 -294 q 751 -347 793 -347 z "},"ڳ":{"ha":1232,"x_min":90,"x_max":1128,"o":"m 367 0 q 164 75 237 0 q 90 279 90 149 q 135 492 90 389 l 318 492 q 297 310 297 380 q 333 205 297 243 q 428 167 368 167 l 921 167 l 921 390 q 863 519 921 474 q 700 564 806 564 l 464 564 l 464 714 q 671 988 537 869 q 982 1169 805 1106 l 1059 983 q 832 876 939 947 q 679 730 726 804 l 732 730 q 1128 416 1128 730 l 1128 0 l 367 0 m 414 946 q 607 1177 458 1048 q 904 1368 755 1305 l 944 1261 q 740 1153 842 1223 q 561 1002 637 1082 q 451 850 484 921 l 414 946 m 652 -606 q 585 -580 610 -606 q 559 -505 559 -554 q 584 -431 559 -457 q 652 -406 609 -406 q 719 -432 694 -406 q 743 -505 743 -458 q 719 -579 743 -553 q 652 -606 694 -606 m 652 -347 q 585 -321 610 -347 q 559 -248 559 -296 q 584 -173 559 -199 q 652 -147 608 -147 q 719 -174 694 -147 q 743 -248 743 -200 q 718 -321 743 -295 q 652 -347 693 -347 z "},"ڴ":{"ha":1232,"x_min":90,"x_max":1128,"o":"m 367 0 q 164 75 237 0 q 90 279 90 149 q 135 492 90 389 l 318 492 q 297 310 297 380 q 333 205 297 243 q 428 167 368 167 l 921 167 l 921 390 q 863 519 921 474 q 700 564 806 564 l 464 564 l 464 714 q 671 988 537 869 q 982 1169 805 1106 l 1059 983 q 832 876 939 947 q 679 730 726 804 l 732 730 q 1128 416 1128 730 l 1128 0 l 367 0 m 414 946 q 607 1177 458 1048 q 904 1368 755 1305 l 944 1261 q 740 1153 842 1223 q 561 1002 637 1082 q 451 850 484 921 l 414 946 m 446 1332 q 397 1354 421 1332 q 374 1402 374 1375 q 393 1448 374 1427 q 440 1470 413 1470 q 487 1445 465 1470 q 509 1397 509 1420 q 490 1353 509 1373 q 446 1332 471 1333 m 534 1354 q 556 1407 534 1384 q 608 1430 578 1430 q 667 1403 640 1430 q 694 1346 694 1377 q 671 1295 694 1318 q 619 1271 648 1271 q 561 1298 586 1271 q 534 1354 536 1324 m 393 1227 q 415 1281 393 1258 q 467 1304 437 1304 q 526 1277 498 1304 q 553 1219 553 1251 q 529 1168 553 1192 q 477 1145 505 1145 q 419 1171 445 1145 q 393 1227 394 1198 z "},"ڵ":{"ha":1078,"x_min":90,"x_max":1056,"o":"m 468 -334 q 266 -285 352 -334 q 135 -148 180 -236 q 90 56 90 -59 q 109 216 90 134 q 161 363 128 298 l 345 363 q 310 207 323 288 q 297 54 297 125 q 348 -107 297 -47 q 482 -167 399 -167 l 524 -167 q 681 -109 631 -167 q 732 54 732 -51 l 732 1055 l 939 1055 l 939 49 q 529 -334 939 -334 l 468 -334 m 1056 1410 l 903 1133 l 762 1133 l 607 1410 l 743 1410 l 831 1231 l 921 1410 l 1056 1410 z "},"ڶ":{"ha":1078,"x_min":90,"x_max":939,"o":"m 468 -334 q 266 -285 352 -334 q 135 -148 180 -236 q 90 56 90 -59 q 109 216 90 134 q 161 363 128 298 l 345 363 q 310 207 323 288 q 297 54 297 125 q 348 -107 297 -47 q 482 -167 399 -167 l 524 -167 q 681 -109 631 -167 q 732 54 732 -51 l 732 1055 l 939 1055 l 939 49 q 529 -334 939 -334 l 468 -334 m 831 1142 q 762 1169 787 1142 q 737 1242 737 1196 q 762 1315 737 1289 q 831 1342 787 1342 q 898 1316 873 1342 q 922 1242 922 1289 q 897 1169 922 1196 q 831 1142 871 1142 z "},"ڷ":{"ha":1078,"x_min":90,"x_max":1001,"o":"m 468 -334 q 266 -285 352 -334 q 135 -148 180 -236 q 90 56 90 -59 q 109 216 90 134 q 161 363 128 298 l 345 363 q 310 207 323 288 q 297 54 297 125 q 348 -107 297 -47 q 482 -167 399 -167 l 524 -167 q 681 -109 631 -167 q 732 54 732 -51 l 732 1055 l 939 1055 l 939 49 q 529 -334 939 -334 l 468 -334 m 831 1292 q 878 1275 859 1292 q 896 1224 896 1259 q 878 1172 896 1188 q 831 1156 859 1156 q 785 1175 802 1156 q 768 1224 768 1194 q 787 1275 768 1258 q 831 1292 806 1292 m 926 1471 q 979 1451 958 1471 q 1001 1390 1001 1431 q 979 1329 1001 1348 q 926 1310 958 1310 q 874 1329 896 1310 q 852 1390 852 1348 q 874 1451 852 1431 q 926 1471 896 1471 m 737 1471 q 791 1451 769 1471 q 812 1390 812 1431 q 792 1331 812 1352 q 737 1310 772 1310 q 684 1331 704 1310 q 664 1390 664 1352 q 685 1451 664 1431 q 737 1471 707 1471 z "},"ڸ":{"ha":1078,"x_min":90,"x_max":939,"o":"m 468 -334 q 266 -285 352 -334 q 135 -148 180 -236 q 90 56 90 -59 q 109 216 90 134 q 161 363 128 298 l 345 363 q 310 207 323 288 q 297 54 297 125 q 348 -107 297 -47 q 482 -167 399 -167 l 524 -167 q 681 -109 631 -167 q 732 54 732 -51 l 732 1055 l 939 1055 l 939 49 q 529 -334 939 -334 l 468 -334 m 521 -397 q 567 -413 549 -397 q 585 -465 585 -430 q 567 -516 585 -499 q 521 -533 549 -533 q 476 -516 496 -533 q 457 -465 457 -499 q 476 -414 457 -431 q 521 -397 496 -397 m 616 -537 q 669 -556 647 -537 q 690 -616 690 -576 q 669 -677 690 -659 q 616 -696 647 -696 q 564 -677 585 -696 q 542 -616 542 -659 q 564 -556 542 -576 q 616 -537 585 -537 m 427 -537 q 480 -556 458 -537 q 502 -616 502 -576 q 482 -675 502 -654 q 427 -696 462 -696 q 373 -675 393 -696 q 353 -616 353 -654 q 373 -558 353 -579 q 427 -537 393 -537 z "},"ڹ":{"ha":1057,"x_min":90,"x_max":939,"o":"m 468 -334 q 266 -285 352 -334 q 135 -148 180 -236 q 90 56 90 -59 q 109 216 90 134 q 161 363 128 298 l 345 363 q 310 207 323 288 q 297 54 297 125 q 348 -107 297 -47 q 482 -167 399 -167 l 524 -167 q 681 -109 631 -167 q 732 54 732 -51 l 732 688 l 939 688 l 939 49 q 529 -334 939 -334 l 468 -334 m 507 688 q 439 715 464 688 q 414 788 414 742 q 438 862 414 835 q 507 888 463 888 q 574 862 549 888 q 599 788 599 836 q 573 715 599 742 q 507 688 548 688 m 523 -680 q 454 -653 479 -680 q 429 -581 429 -627 q 454 -507 429 -534 q 523 -480 479 -480 q 590 -507 565 -480 q 614 -581 614 -533 q 589 -653 614 -627 q 523 -680 564 -680 z "},"ڻ":{"ha":1057,"x_min":90,"x_max":939,"o":"m 468 -334 q 266 -285 352 -334 q 135 -148 180 -236 q 90 56 90 -59 q 109 216 90 134 q 161 363 128 298 l 345 363 q 310 207 323 288 q 297 54 297 125 q 348 -107 297 -47 q 482 -167 399 -167 l 524 -167 q 681 -109 631 -167 q 732 54 732 -51 l 732 688 l 939 688 l 939 49 q 529 -334 939 -334 l 468 -334 m 307 687 l 328 687 l 328 939 l 411 939 l 411 777 q 521 840 449 840 q 609 807 583 840 q 636 705 636 775 l 636 600 l 307 600 l 307 687 m 553 687 l 553 694 q 542 748 553 730 q 505 766 531 766 q 449 747 470 766 q 412 702 427 729 l 411 687 l 553 687 z "},"ڼ":{"ha":1057,"x_min":90,"x_max":939,"o":"m 468 -334 q 266 -285 352 -334 q 135 -148 180 -236 q 90 56 90 -59 q 109 216 90 134 q 161 363 128 298 l 345 363 q 310 207 323 288 q 297 54 297 125 q 348 -107 297 -47 q 482 -167 399 -167 l 524 -167 q 681 -109 631 -167 q 732 54 732 -51 l 732 688 l 939 688 l 939 49 q 529 -334 939 -334 l 468 -334 m 507 -540 q 397 -500 437 -540 q 356 -394 356 -460 q 397 -288 356 -328 q 507 -248 437 -248 q 619 -288 576 -248 q 663 -393 663 -328 q 620 -499 663 -458 q 507 -540 578 -540 m 507 -455 q 551 -439 534 -455 q 568 -394 568 -422 q 551 -349 568 -366 q 507 -333 534 -333 q 463 -349 480 -333 q 446 -394 446 -366 q 461 -439 446 -422 q 507 -455 477 -455 m 507 688 q 439 715 464 688 q 414 788 414 742 q 438 862 414 835 q 507 888 463 888 q 574 862 549 888 q 599 788 599 836 q 573 715 599 742 q 507 688 548 688 z "},"ڽ":{"ha":1057,"x_min":90,"x_max":939,"o":"m 468 -334 q 266 -285 352 -334 q 135 -148 180 -236 q 90 56 90 -59 q 109 216 90 134 q 161 363 128 298 l 345 363 q 310 207 323 288 q 297 54 297 125 q 348 -107 297 -47 q 482 -167 399 -167 l 524 -167 q 681 -109 631 -167 q 732 54 732 -51 l 732 688 l 939 688 l 939 49 q 529 -334 939 -334 l 468 -334 m 440 733 q 384 754 407 733 q 361 818 361 775 q 384 882 361 862 q 440 902 407 902 q 498 880 476 902 q 519 818 519 857 q 498 756 519 780 q 440 733 477 733 m 322 509 q 254 536 279 509 q 229 609 229 563 q 254 683 229 656 q 322 709 279 709 q 390 683 366 709 q 414 609 414 656 q 389 536 414 563 q 322 509 363 509 m 559 509 q 490 536 515 509 q 465 609 465 563 q 490 683 465 656 q 559 709 515 709 q 626 683 601 709 q 650 609 650 656 q 625 536 650 563 q 559 509 600 509 z "},"ڿ":{"ha":949,"x_min":62,"x_max":859,"o":"m 379 -453 q 150 -374 237 -453 q 62 -164 62 -295 q 92 -29 62 -90 q 178 82 121 33 q 326 175 235 132 q 568 260 416 218 q 534 372 547 326 q 468 494 513 454 q 349 534 423 534 q 142 471 258 534 l 68 624 q 222 680 135 659 q 392 701 310 701 q 714 433 668 701 q 769 241 738 302 q 859 136 801 180 l 753 0 q 640 117 685 54 q 405 40 473 74 q 301 -41 337 5 q 265 -153 265 -87 q 309 -247 265 -211 q 421 -283 353 -283 l 379 -453 m 375 807 q 307 834 332 807 q 281 907 281 861 q 306 980 281 954 q 375 1007 331 1007 q 442 981 417 1007 q 467 907 467 954 q 441 834 467 861 q 375 807 416 807 m 611 -424 q 555 -403 578 -424 q 532 -339 532 -382 q 555 -275 532 -295 q 611 -254 578 -254 q 669 -278 648 -254 q 690 -339 690 -301 q 669 -400 690 -377 q 611 -424 648 -424 m 493 -249 q 425 -222 450 -249 q 400 -149 400 -195 q 425 -76 400 -102 q 493 -49 449 -49 q 561 -76 536 -49 q 585 -149 585 -102 q 560 -222 585 -195 q 493 -249 534 -249 m 730 -249 q 661 -222 686 -249 q 636 -149 636 -196 q 661 -76 636 -102 q 730 -49 685 -49 q 797 -75 772 -49 q 821 -149 821 -102 q 796 -222 821 -195 q 730 -249 770 -249 z "},"ۄ":{"ha":861,"x_min":90,"x_max":743,"o":"m 743 -35 q 674 -273 743 -156 q 468 -489 604 -389 l 350 -357 l 393 -319 q 315 -272 344 -308 q 286 -179 286 -236 q 327 -73 286 -113 q 437 -33 368 -33 q 534 -61 495 -33 l 534 0 l 399 0 q 170 84 250 0 q 90 323 90 168 q 145 517 90 433 q 300 644 200 600 q 532 688 400 688 l 743 688 l 743 -35 m 536 167 l 536 521 l 492 521 q 353 471 403 521 q 302 329 302 420 q 337 206 302 245 q 440 167 371 167 l 536 167 m 437 -240 q 481 -224 465 -240 q 498 -179 498 -208 q 481 -134 498 -151 q 437 -118 465 -118 q 393 -134 410 -118 q 376 -179 376 -151 q 392 -224 376 -208 q 437 -240 407 -240 z "},"ۅ":{"ha":861,"x_min":90,"x_max":743,"o":"m 743 -35 q 674 -273 743 -156 q 468 -489 604 -389 l 350 -357 q 450 -264 419 -298 l 425 -254 q 343 -237 386 -237 q 253 -252 286 -237 l 203 -138 q 272 -101 233 -115 q 345 -87 311 -87 q 397 -96 368 -87 q 475 -123 425 -104 l 524 -140 q 534 -68 534 -106 l 534 0 l 399 0 q 170 84 250 0 q 90 323 90 168 q 145 517 90 433 q 300 644 200 600 q 532 688 400 688 l 743 688 l 743 -35 m 536 167 l 536 521 l 492 521 q 353 471 403 521 q 302 329 302 420 q 337 206 302 245 q 440 167 371 167 l 536 167 z "},"ۍ":{"ha":1389,"x_min":-28,"x_max":1326,"o":"m 253 -17 q 262 110 253 62 q 294 216 271 158 l 17 134 l -28 249 l 408 432 l 492 283 q 464 143 475 218 q 453 14 453 67 q 502 -113 453 -59 q 618 -167 551 -167 l 859 -167 q 1016 -147 966 -167 q 1065 -83 1065 -127 q 1047 -32 1065 -55 q 984 18 1028 -9 q 854 103 932 50 q 746 195 776 155 q 717 282 717 235 q 790 468 717 363 q 967 636 864 572 q 1164 700 1070 700 q 1231 687 1197 700 q 1326 635 1264 675 l 1251 484 q 1141 521 1186 521 q 1050 485 1107 521 q 950 402 993 450 q 907 317 907 354 q 935 269 907 296 q 1048 186 962 241 q 1152 109 1091 159 q 1243 12 1213 58 q 1272 -79 1272 -35 q 1166 -270 1272 -207 q 860 -334 1060 -334 l 532 -334 q 387 -293 452 -334 q 288 -179 323 -252 q 253 -17 253 -106 z "},"ۖ":{"ha":0,"x_min":-346,"x_max":414,"o":"m -204 806 q -249 795 -233 806 q -264 766 -264 784 q -228 739 -264 739 l 104 739 l 104 672 l -249 672 q -319 698 -292 672 q -346 765 -346 724 q -305 842 -346 812 q -207 872 -264 872 l -103 872 l -103 1207 l -20 1207 l -20 872 l 43 872 l 43 1029 l 126 1029 l 126 953 q 277 1055 176 1055 q 380 1020 346 1055 q 414 908 414 984 l 414 806 l -204 806 m 332 872 l 332 909 q 256 989 332 989 q 126 885 178 989 l 126 872 l 332 872 z "},"ۗ":{"ha":0,"x_min":-346,"x_max":315,"o":"m 81 872 q 54 946 54 906 q 97 1044 54 1008 q 216 1080 140 1080 l 315 1080 l 315 806 l -204 806 q -249 795 -233 806 q -264 766 -264 784 q -228 739 -264 739 l 104 739 l 104 672 l -249 672 q -319 698 -292 672 q -346 765 -346 724 q -305 842 -346 812 q -207 872 -264 872 l -103 872 l -103 1207 l -20 1207 l -20 872 l 81 872 m 232 872 l 232 1014 l 218 1014 q 160 995 180 1014 q 139 942 139 977 q 159 890 139 908 q 216 872 180 872 l 232 872 m 163 1129 q 136 1139 147 1129 q 125 1169 125 1148 q 136 1199 125 1190 q 163 1208 147 1208 q 188 1199 177 1208 q 199 1169 199 1190 q 188 1139 199 1148 q 163 1129 177 1129 m 257 1129 q 231 1139 241 1129 q 220 1169 220 1148 q 257 1208 220 1208 q 293 1169 293 1208 q 282 1139 293 1148 q 257 1129 272 1129 z "},"ۘ":{"ha":0,"x_min":-155,"x_max":167,"o":"m -90 741 q -106 818 -106 777 q -98 867 -106 838 q -78 918 -90 897 q 33 949 -20 949 q 130 913 93 949 q 167 818 167 877 q 123 713 167 753 q 16 673 80 673 l -153 673 q -155 676 -155 673 l -155 737 q -153 741 -155 741 l -90 741 m -29 806 q -16 741 -29 774 l 5 741 q 61 763 39 741 q 83 818 83 785 q 68 866 83 850 q 31 882 54 882 q -21 867 5 882 q -29 806 -29 837 z "},"ۙ":{"ha":0,"x_min":-143,"x_max":178,"o":"m -143 741 l -43 741 l -115 1021 l -28 1021 l 37 741 l 41 741 q 84 758 73 741 q 96 804 96 774 l 96 1096 l 178 1096 l 178 799 q 147 708 178 742 q 60 673 117 673 l -143 673 l -143 741 z "},"ۚ":{"ha":0,"x_min":-127,"x_max":191,"o":"m -1 675 q -93 706 -58 675 q -127 790 -127 738 q -83 888 -127 847 q 74 961 -38 929 l 61 1006 q -14 1071 43 1071 q -96 1044 -50 1071 l -126 1105 q 4 1137 -69 1137 q 132 1029 114 1137 q 154 953 142 977 q 191 911 165 930 l 149 857 q 103 903 121 876 q 6 870 32 884 q -34 839 -20 857 q -47 796 -47 821 q -30 758 -47 772 q 16 743 -13 743 q 97 754 51 743 l 107 694 q -1 675 53 675 m 37 772 q 12 782 23 772 q 1 812 1 791 q 12 843 1 833 q 37 852 23 852 q 64 843 53 852 q 75 812 75 833 q 64 782 75 791 q 37 772 53 772 z "},"ۛ":{"ha":0,"x_min":-157,"x_max":180,"o":"m 11 800 q 57 783 39 800 q 75 732 75 766 q 57 680 75 696 q 11 663 39 663 q -36 682 -18 663 q -53 732 -53 701 q -34 783 -53 766 q 11 800 -14 800 m 106 979 q 159 959 137 979 q 180 898 180 939 q 159 837 180 856 q 106 818 137 818 q 54 837 75 818 q 32 898 32 856 q 54 959 32 939 q 106 979 75 979 m -83 979 q -30 959 -52 979 q -8 898 -8 939 q -28 839 -8 860 q -83 818 -48 818 q -137 839 -117 818 q -157 898 -157 860 q -135 959 -157 939 q -83 979 -114 979 z "},"ۜ":{"ha":0,"x_min":-441,"x_max":260,"o":"m -54 865 q -13 883 -24 865 q -1 930 -1 900 l -1 1031 l 82 1031 l 82 924 q 79 897 82 909 q 107 872 94 880 q 142 865 121 865 l 176 865 l 176 1074 l 260 1074 l 260 799 l 143 799 q 57 840 97 799 q -36 799 24 799 l -103 799 q -265 665 -114 665 l -290 665 q -401 708 -361 665 q -441 821 -441 750 q -412 945 -441 886 l -340 945 q -358 821 -358 870 q -338 756 -358 780 q -285 732 -318 732 l -268 732 q -184 821 -184 732 l -184 1031 l -102 1031 l -102 865 l -54 865 z "},"۟":{"ha":0,"x_min":-94,"x_max":94,"o":"m 0 686 q -70 713 -45 686 q -94 787 -94 739 q -70 863 -94 836 q 0 889 -45 889 q 69 862 44 889 q 94 787 94 834 q 69 714 94 741 q 0 686 44 686 z "},"ۡ":{"ha":0,"x_min":-158,"x_max":153,"o":"m -155 673 q -158 676 -158 673 l -158 737 q -155 741 -158 741 l 69 741 l 69 742 q 36 821 48 758 q 13 873 28 859 q -31 888 -1 888 q -106 867 -66 888 l -131 928 q -14 954 -82 954 q 73 929 43 954 q 114 847 104 905 q 153 741 127 766 l 153 673 l -155 673 z "},"ۢ":{"ha":0,"x_min":-149,"x_max":182,"o":"m -149 836 q -75 918 -149 911 q -90 996 -90 954 q -82 1048 -90 1020 q -62 1096 -75 1077 q 49 1126 -5 1126 q 145 1091 108 1126 q 182 996 182 1055 q 139 892 182 932 q 31 851 97 851 l -21 851 q -54 843 -43 851 q -65 810 -65 835 l -65 673 l -149 673 l -149 836 m -14 983 q 0 918 -14 952 l 21 918 q 76 940 53 918 q 98 996 98 962 q 84 1044 98 1027 q 46 1060 69 1060 q -5 1044 20 1060 q -14 983 -14 1015 z "},"ۣ":{"ha":0,"x_min":-416,"x_max":285,"o":"m -29 -134 q 13 -116 1 -134 q 24 -68 24 -98 l 24 32 l 107 32 l 107 -75 l 104 -100 q 132 -126 119 -119 q 167 -134 146 -134 l 201 -134 l 201 75 l 285 75 l 285 -200 l 168 -200 q 82 -158 123 -200 q -11 -200 49 -200 l -78 -200 q -240 -334 -89 -334 l -265 -334 q -375 -291 -334 -334 q -416 -178 -416 -249 q -387 -54 -416 -111 l -315 -54 q -334 -178 -334 -130 q -314 -242 -334 -218 q -260 -267 -294 -267 l -243 -267 q -160 -178 -160 -267 l -160 32 l -77 32 l -77 -134 l -29 -134 z "},"ۤ":{"ha":0,"x_min":-96,"x_max":100,"o":"m -96 781 q -78 833 -92 813 q -39 852 -64 852 q 5 838 -22 852 q 41 822 33 822 q 60 829 54 822 q 71 852 66 836 l 100 852 q 82 800 96 820 q 41 781 67 781 q -1 796 26 781 q -39 811 -28 811 q -57 804 -50 811 q -66 781 -63 798 l -96 781 z "},"ۥ":{"ha":321,"x_min":28,"x_max":293,"o":"m 146 673 q 81 679 108 673 q 28 701 55 685 l 60 761 q 144 741 98 741 q 210 804 210 741 l 210 807 l 155 807 q 66 839 100 807 q 32 937 32 871 q 79 1042 32 1003 q 208 1082 126 1082 l 293 1082 l 293 806 q 254 708 293 743 q 146 673 214 673 m 210 873 l 210 1015 l 192 1015 q 135 994 154 1015 q 117 939 117 973 q 172 873 117 873 l 210 873 z "},"ۦ":{"ha":432,"x_min":28,"x_max":404,"o":"m 144 673 q 60 696 92 673 q 28 762 28 718 q 50 821 28 797 q 139 873 71 846 q 209 911 193 895 q 224 962 224 927 l 224 982 l 307 982 l 307 960 q 285 880 307 908 q 204 829 262 852 q 131 797 151 810 q 111 765 111 783 q 144 741 111 741 l 404 741 l 404 673 l 144 673 z "},"ۧ":{"ha":0,"x_min":-224,"x_max":153,"o":"m -107 673 q -192 696 -159 673 q -224 762 -224 718 q -202 821 -224 796 q -113 873 -180 845 q -43 911 -58 895 q -28 962 -28 927 l -28 982 l 56 982 l 56 960 q 33 880 56 908 q -47 829 11 852 q -120 797 -100 810 q -140 765 -140 783 q -107 741 -140 741 l 153 741 l 153 673 l -107 673 z "},"ۨ":{"ha":0,"x_min":-160,"x_max":180,"o":"m -8 673 q -119 716 -79 673 q -160 829 -160 759 q -131 951 -160 892 l -58 951 q -77 828 -77 876 q -57 764 -77 787 q -3 741 -37 741 l 14 741 q 97 828 97 741 l 97 1082 l 180 1082 l 180 827 q 17 673 180 673 l -8 673 m 9 1082 q -17 1092 -6 1082 q -28 1121 -28 1101 q -17 1152 -28 1142 q 9 1161 -6 1161 q 36 1152 25 1161 q 47 1121 47 1142 q 36 1092 47 1101 q 9 1082 25 1082 z "},"۪":{"ha":0,"x_min":-143,"x_max":143,"o":"m 143 -332 l 0 -475 l -143 -332 l 0 -189 l 143 -332 m 71 -332 l 0 -261 l -71 -332 l 0 -403 l 71 -332 z "},"۫":{"ha":0,"x_min":-143,"x_max":143,"o":"m 143 785 l 0 642 l -143 785 l 0 928 l 143 785 m 71 785 l 0 856 l -71 785 l 0 714 l 71 785 z "},"ۭ":{"ha":0,"x_min":-176,"x_max":154,"o":"m -176 -359 q -158 -302 -176 -324 q -103 -278 -140 -280 q -118 -200 -118 -243 q -110 -147 -118 -176 q -90 -100 -102 -119 q 21 -69 -33 -69 q 117 -105 80 -69 q 154 -200 154 -140 q 112 -304 154 -263 q 3 -345 69 -345 l -49 -345 q -82 -353 -71 -345 q -93 -386 -93 -361 l -93 -522 l -176 -522 l -176 -359 m -41 -212 q -28 -278 -41 -242 l -7 -278 q 48 -255 26 -278 q 71 -200 71 -233 q 56 -152 71 -168 q 18 -136 41 -136 q -33 -151 -7 -136 q -41 -212 -41 -181 z "},"ۻ":{"ha":1764,"x_min":90,"x_max":1659,"o":"m 468 -334 q 266 -285 352 -334 q 135 -148 180 -236 q 90 56 90 -59 q 109 216 90 134 q 161 363 128 298 l 345 363 q 310 207 323 288 q 297 54 297 125 q 348 -107 297 -47 q 482 -167 399 -167 l 524 -167 q 681 -109 631 -167 q 732 54 732 -51 l 732 688 l 939 688 l 939 444 q 1315 701 1065 701 q 1573 611 1486 701 q 1659 334 1659 522 l 1659 0 l 937 0 q 823 -249 927 -164 q 529 -334 720 -334 l 468 -334 m 1453 167 l 1453 338 q 1406 487 1453 439 q 1263 534 1360 534 q 939 275 1075 534 l 939 167 l 1453 167 m 1174 807 q 1105 834 1131 807 q 1080 907 1080 861 q 1105 980 1080 954 q 1174 1007 1130 1007 q 1241 981 1216 1007 q 1265 907 1265 954 q 1240 834 1265 861 q 1174 807 1215 807 m 1228 -334 q 1160 -307 1185 -334 q 1135 -234 1135 -280 q 1159 -160 1135 -187 q 1228 -134 1184 -134 q 1295 -160 1270 -134 q 1320 -234 1320 -186 q 1294 -307 1320 -280 q 1228 -334 1269 -334 z "},"ۼ":{"ha":823,"x_min":90,"x_max":761,"o":"m 407 -453 q 177 -375 264 -453 q 90 -171 90 -298 q 267 106 90 -16 q 181 229 218 155 q 144 367 144 304 q 247 612 144 523 q 528 701 350 701 q 655 688 589 701 q 761 656 722 674 l 703 493 q 606 526 648 517 q 522 534 564 534 q 389 489 435 534 q 343 358 343 443 q 357 259 343 300 q 400 179 372 218 q 642 271 520 233 l 690 114 q 385 -6 477 60 q 293 -160 293 -73 q 333 -251 293 -218 q 449 -283 372 -283 q 653 -254 542 -283 l 676 -406 q 407 -453 541 -453 m 475 807 q 407 834 432 807 q 382 907 382 861 q 407 980 382 954 q 475 1007 431 1007 q 542 981 517 1007 q 567 907 567 954 q 542 834 567 861 q 475 807 516 807 m 475 -232 q 407 -205 432 -232 q 382 -132 382 -178 q 407 -59 382 -85 q 475 -32 431 -32 q 542 -58 517 -32 q 567 -132 567 -85 q 542 -205 567 -178 q 475 -232 516 -232 z "},"۽":{"ha":730,"x_min":90,"x_max":668,"o":"m 90 121 q 222 149 165 140 q 151 224 178 175 q 125 334 125 274 q 212 527 125 455 q 446 599 298 599 q 558 588 507 599 q 642 558 610 576 l 600 403 q 468 432 548 432 q 365 400 404 432 q 326 301 326 369 q 348 228 326 260 q 406 180 370 195 q 536 198 450 188 q 668 211 621 208 l 668 43 q 383 20 571 43 q 90 -24 195 -3 l 90 121 m 424 -119 l 517 -119 l 517 -389 l 424 -389 l 424 -119 m 254 -119 l 347 -119 l 347 -389 l 254 -389 l 254 -119 z "},"۾":{"ha":993,"x_min":90,"x_max":917,"o":"m 90 -39 q 138 106 90 52 q 272 165 185 159 q 235 358 235 254 q 256 490 235 419 q 306 608 277 562 q 444 666 368 645 q 581 688 520 688 q 753 647 675 688 q 873 532 830 607 q 917 359 917 457 q 868 172 917 254 q 731 45 819 91 q 538 0 644 0 l 410 0 q 322 -25 347 0 q 297 -107 297 -50 l 297 -444 l 90 -444 l 90 -39 m 427 329 q 458 167 427 258 l 511 167 q 651 223 595 167 q 708 359 708 279 q 672 478 708 435 q 576 521 635 521 q 447 482 514 521 q 427 329 427 409 m 575 -119 l 668 -119 l 668 -389 l 575 -389 l 575 -119 m 406 -119 l 498 -119 l 498 -389 l 406 -389 l 406 -119 z "},"؀":{"ha":1200,"x_min":28,"x_max":1173,"o":"m 1173 -334 l 180 -334 q 68 -289 108 -334 q 28 -167 28 -245 l 852 -167 q 939 97 852 -15 l 1078 7 q 1019 -167 1019 -81 l 1173 -167 l 1173 -334 z "},"؁":{"ha":2103,"x_min":28,"x_max":2075,"o":"m 1828 -290 q 1887 -244 1865 -270 q 1910 -197 1910 -219 q 1872 -163 1910 -163 q 1594 -216 1822 -163 q 1156 -310 1288 -288 q 950 -332 1025 -332 q 864 -303 905 -332 q 810 -236 822 -275 q 749 -303 793 -275 q 659 -332 704 -332 q 527 -254 596 -332 q 464 -188 478 -200 q 437 -176 450 -176 q 406 -192 423 -176 q 345 -257 388 -208 q 200 -338 275 -338 q 74 -290 121 -338 q 28 -150 28 -243 q 58 -9 28 -80 l 199 -9 q 171 -114 171 -74 q 186 -157 171 -143 q 222 -171 201 -171 q 253 -157 239 -171 q 303 -90 268 -142 q 443 -9 358 -9 q 574 -87 509 -9 q 633 -153 619 -141 q 661 -165 648 -165 q 713 -145 698 -165 q 728 -77 728 -125 l 728 -9 l 880 -9 l 880 -77 q 965 -170 880 -170 q 1148 -149 1032 -170 q 1449 -83 1263 -127 q 1751 -16 1645 -35 q 1917 4 1857 4 q 2031 -41 1986 4 q 2075 -157 2075 -86 q 2036 -272 2075 -217 q 1894 -395 1997 -328 l 1828 -290 z "},"؂":{"ha":1706,"x_min":90,"x_max":1678,"o":"m 1678 -167 q 1525 -334 1678 -334 l 457 -334 q 90 -81 90 -334 q 155 87 90 25 q 329 149 220 149 q 531 60 439 149 q 657 -167 623 -28 l 1678 -167 m 329 -21 q 283 -35 302 -21 q 265 -78 265 -48 q 313 -143 265 -121 q 489 -167 361 -165 q 421 -54 459 -87 q 329 -21 384 -21 z "},"؃":{"ha":1404,"x_min":28,"x_max":1341,"o":"m 1135 -167 l 1135 -135 q 1086 29 1135 -28 q 945 86 1037 86 q 775 24 863 86 q 621 -142 686 -38 l 621 -167 l 1135 -167 m 414 -167 l 414 215 l 621 215 l 621 28 q 796 195 698 136 q 997 253 895 253 q 1175 204 1095 253 q 1298 67 1254 156 q 1341 -139 1341 -22 l 1341 -334 l 180 -334 q 68 -289 108 -334 q 28 -167 28 -245 l 414 -167 z "},"؎":{"ha":1643,"x_min":28,"x_max":1615,"o":"m 1615 167 q 1463 0 1615 0 l 395 0 q 28 253 28 0 q 93 420 28 359 q 267 482 158 482 q 468 394 376 482 q 595 167 560 305 l 1615 167 m 267 313 q 221 299 239 313 q 203 256 203 285 q 251 191 203 212 q 427 167 298 169 q 359 280 397 247 q 267 313 321 313 z "},"؏":{"ha":940,"x_min":90,"x_max":878,"o":"m 538 -453 q 380 -424 454 -453 q 261 -346 307 -395 q 174 -433 219 -384 l 90 -353 q 201 -240 147 -290 q 193 -171 193 -208 q 378 139 193 -6 q 287 244 326 178 q 248 367 248 311 q 350 612 248 522 q 631 701 452 701 q 759 688 692 701 q 864 656 825 674 l 806 493 q 625 534 711 534 q 492 489 539 534 q 446 358 446 443 q 458 294 446 331 q 503 220 471 257 q 743 321 614 280 l 791 164 q 552 64 652 129 q 415 -78 452 -1 q 624 -9 533 -9 q 808 -67 739 -9 q 878 -220 878 -124 q 831 -337 878 -283 q 705 -422 784 -391 q 538 -453 625 -453 m 596 -153 q 411 -222 513 -153 q 551 -283 446 -283 q 660 -266 623 -283 q 697 -216 697 -248 q 670 -170 697 -188 q 596 -153 643 -153 z "},"ؐ":{"ha":0,"x_min":-168,"x_max":154,"o":"m 89 1104 l 89 1133 q 28 1197 89 1197 q -77 1114 -37 1197 l -77 1104 l 89 1104 m -168 1010 q -150 1054 -157 1028 q -143 1104 -143 1080 l -143 1210 l -77 1229 l -77 1168 q 45 1250 -37 1250 q 127 1221 100 1250 q 154 1132 154 1193 l 154 1050 l -77 1050 q -134 975 -95 1011 l -168 1010 z "},"ؑ":{"ha":0,"x_min":-146,"x_max":129,"o":"m -54 1095 l -18 1093 l 0 1093 q -29 1149 -29 1112 q -4 1208 -29 1188 q 60 1227 22 1227 q 123 1215 93 1227 l 106 1161 q 61 1171 85 1171 q 36 1161 45 1171 q 26 1137 26 1152 q 53 1100 26 1109 q 84 1106 68 1102 q 129 1125 100 1110 l 129 1067 q 59 1047 102 1055 q -18 1039 16 1039 q -62 1048 -39 1039 q -111 975 -83 1006 l -146 1010 q -128 1054 -135 1028 q -121 1104 -121 1080 l -121 1154 l -54 1174 l -54 1095 z "},"ؒ":{"ha":0,"x_min":-232,"x_max":192,"o":"m -221 840 q -232 889 -232 863 q -189 981 -232 943 q -39 1050 -146 1020 q -53 1093 -43 1060 q -123 1154 -69 1154 q -201 1131 -156 1154 l -231 1189 q -176 1209 -209 1200 q -107 1218 -142 1218 q 16 1117 -1 1218 q 34 1048 22 1074 q 71 1003 45 1023 l 31 951 q -12 996 6 970 q -106 965 -82 977 q -142 935 -130 952 q -155 893 -155 917 q -151 873 -155 886 l -221 840 m 82 836 q 25 844 46 836 q -16 865 3 852 l 17 917 q 66 901 37 901 q 99 916 85 901 q 113 958 113 931 l 113 1203 l 192 1223 l 192 954 q 162 869 192 902 q 82 836 132 836 z "},"ؓ":{"ha":0,"x_min":-229,"x_max":205,"o":"m 96 836 q 39 844 60 836 q -1 865 18 852 l 31 917 q 81 901 51 901 q 113 916 100 901 q 126 958 126 931 l 126 1203 l 205 1223 l 205 954 q 175 868 205 900 q 96 836 145 836 m 28 1026 l 28 1055 q -33 1120 28 1120 q -138 1036 -96 1120 l -138 1026 l 28 1026 m -229 932 q -204 1026 -204 977 l -204 1132 l -138 1152 l -138 1090 q -17 1173 -98 1173 q 66 1144 39 1173 q 93 1054 93 1115 l 93 972 l -138 972 q -195 897 -157 932 l -229 932 m -45 1213 q -67 1222 -57 1213 q -78 1250 -78 1231 q -45 1284 -78 1284 q -8 1250 -8 1284 q -19 1222 -8 1231 q -45 1213 -30 1213 z "},"ؔ":{"ha":0,"x_min":-204,"x_max":182,"o":"m -9 1120 l 52 1139 l 52 1097 q 85 1048 52 1048 q 110 1062 102 1048 q 117 1109 117 1076 l 117 1135 l 182 1154 l 182 1093 q 157 1015 182 1043 q 86 986 133 986 q 22 1019 46 986 q -38 980 3 993 q -184 951 -79 967 l -204 994 l -141 1008 q -33 1043 -56 1027 q -9 1092 -9 1059 l -9 1120 z "},"ٗ":{"ha":0,"x_min":-78,"x_max":104,"o":"m -78 953 q -45 1052 -78 1007 q 77 1147 -13 1096 l 104 1105 q 3 1034 43 1074 q 56 1000 35 1023 q 77 950 77 976 q 50 892 77 916 q -9 868 23 868 q -59 892 -41 868 q -78 953 -78 916 m -24 991 q -32 956 -32 977 q -4 921 -32 921 q 15 928 5 921 q 25 949 25 936 q 21 963 25 956 q 11 975 17 969 q -24 991 4 980 z "},"٘":{"ha":0,"x_min":-97,"x_max":83,"o":"m 83 1047 q 60 931 83 971 q -8 892 37 892 q -97 1018 -97 892 l -54 1018 q -8 953 -54 953 q 25 974 14 953 q 36 1046 36 996 l 83 1047 z "},"ۮ":{"ha":827,"x_min":62,"x_max":736,"o":"m 62 167 l 526 167 q 457 374 498 295 q 352 510 416 453 q 197 606 289 568 l 275 800 q 573 570 461 726 q 736 161 686 414 l 736 0 l 62 0 l 62 167 m 70 872 l 222 1149 l 336 1149 l 490 872 l 368 872 l 281 1051 l 191 872 l 70 872 z "},"ۯ":{"ha":608,"x_min":-56,"x_max":587,"o":"m 200 -334 q 70 -317 129 -334 q -56 -256 10 -300 l 28 -121 q 93 -153 64 -144 q 160 -161 121 -161 q 250 -119 216 -161 q 283 -12 283 -77 l 283 688 l 490 688 l 490 -22 q 411 -250 490 -165 q 200 -334 332 -334 m 167 776 l 319 1053 l 433 1053 l 587 776 l 465 776 l 378 955 l 288 776 l 167 776 z "},"ۿ":{"ha":1337,"x_min":91,"x_max":1234,"o":"m 627 167 l 627 355 q 601 460 627 427 q 521 493 576 493 q 444 453 473 493 q 414 353 414 414 q 583 167 414 167 l 627 167 m 98 0 q 91 7 91 0 l 91 161 q 98 167 91 167 l 269 167 q 221 241 240 193 q 201 361 201 289 q 245 514 201 442 q 362 626 288 585 q 519 667 435 667 q 685 628 614 667 q 795 519 757 589 q 833 364 833 449 l 833 167 l 1027 167 l 1027 424 q 940 694 1027 600 q 686 789 853 789 q 504 776 583 789 q 349 736 425 764 l 302 895 q 490 942 397 928 q 686 956 582 956 q 1097 824 960 956 q 1234 441 1234 692 l 1234 0 l 98 0 m 410 1042 l 562 1318 l 676 1318 l 830 1042 l 708 1042 l 621 1221 l 530 1042 l 410 1042 z "},"ﷲ":{"ha":2188,"x_min":90,"x_max":2049,"o":"m 496 0 q 197 90 303 0 q 90 340 90 180 q 139 522 90 443 q 279 645 188 602 q 496 688 370 688 l 534 688 l 534 755 l 743 755 l 743 167 l 975 167 l 975 901 l 1182 901 l 1182 167 l 1451 167 l 1451 901 l 1658 901 l 1658 0 l 496 0 m 1842 1055 l 2049 1055 l 2049 0 l 1842 0 l 1842 1055 m 536 167 l 536 521 l 500 521 q 354 474 405 521 q 302 339 302 427 q 353 212 302 256 q 497 167 403 167 l 536 167 m 935 974 q 845 1009 877 974 q 814 1108 814 1045 l 814 1196 l 900 1196 l 900 1131 q 910 1073 900 1093 q 949 1054 920 1054 q 990 1068 977 1054 q 1003 1118 1003 1082 l 1003 1231 l 1082 1231 l 1082 1146 q 1093 1099 1082 1116 q 1135 1082 1103 1082 q 1174 1097 1163 1082 q 1185 1158 1185 1112 l 1185 1251 l 1271 1251 l 1271 1136 q 1238 1037 1271 1072 q 1145 1002 1205 1002 q 1047 1043 1081 1002 q 935 974 1013 974 m 1003 1556 l 1082 1556 l 1082 1341 l 1003 1341 l 1003 1556 z "},"﷼":{"ha":2554,"x_min":90,"x_max":2436,"o":"m 468 -334 q 266 -285 352 -334 q 135 -148 180 -236 q 90 56 90 -59 q 109 216 90 134 q 161 363 128 298 l 345 363 q 310 207 323 288 q 297 54 297 125 q 348 -107 297 -47 q 482 -167 399 -167 l 524 -167 q 681 -109 631 -167 q 732 54 732 -51 l 732 1055 l 939 1055 l 939 49 q 529 -334 939 -334 l 468 -334 m 1175 1055 l 1382 1055 l 1382 167 l 1723 167 l 1723 688 l 1929 688 l 1929 0 l 1175 0 l 1175 1055 m 2146 -334 q 2016 -317 2075 -334 q 1890 -256 1957 -300 l 1973 -121 q 2038 -153 2010 -144 q 2106 -161 2066 -161 q 2195 -119 2161 -161 q 2229 -12 2229 -77 l 2229 688 l 2436 688 l 2436 -22 q 2357 -250 2436 -165 q 2146 -334 2278 -334 m 1478 -347 q 1411 -321 1436 -347 q 1385 -248 1385 -296 q 1410 -173 1385 -199 q 1478 -147 1434 -147 q 1545 -174 1520 -147 q 1569 -248 1569 -200 q 1544 -321 1569 -295 q 1478 -347 1519 -347 m 1714 -347 q 1647 -321 1672 -347 q 1621 -248 1621 -296 q 1646 -173 1621 -199 q 1714 -147 1670 -147 q 1781 -174 1756 -147 q 1805 -248 1805 -200 q 1780 -321 1805 -295 q 1714 -347 1755 -347 z "},"؋":{"ha":896,"x_min":-14,"x_max":778,"o":"m 571 167 l 571 521 l 534 521 q 389 474 441 521 q 338 339 338 428 q 388 212 338 256 q 532 167 437 167 l 571 167 m 192 167 q 125 350 125 246 q 232 596 125 505 q 530 688 339 688 l 778 688 l 778 0 l -7 0 q -14 7 -14 0 l -14 161 q -7 167 -14 167 l 192 167 m 474 807 q 406 834 431 807 q 380 907 380 861 q 405 980 380 954 q 474 1007 430 1007 q 541 981 516 1007 q 566 907 566 954 q 540 834 566 861 q 474 807 515 807 m 410 -121 l 503 -121 l 503 -391 l 410 -391 l 410 -121 z "},"؞":{"ha":452,"x_min":28,"x_max":449,"o":"m 239 416 q 183 437 205 416 q 160 501 160 458 q 183 565 160 545 q 239 585 205 585 q 296 563 275 585 q 318 501 318 541 q 297 440 318 463 q 239 416 275 416 m 121 193 q 53 219 78 193 q 28 292 28 246 q 53 366 28 339 q 121 393 77 393 q 189 366 164 393 q 213 292 213 339 q 188 219 213 246 q 121 193 162 193 m 357 193 q 289 219 314 193 q 264 292 264 246 q 289 366 264 339 q 357 393 313 393 q 424 366 399 393 q 449 292 449 340 q 424 219 449 246 q 357 193 398 193 z "},"ٙ":{"ha":0,"x_min":-175,"x_max":214,"o":"m 214 1040 l 131 875 l -175 875 l -98 1040 l 214 1040 z "},"ٚ":{"ha":0,"x_min":-224,"x_max":225,"o":"m 225 966 l 72 690 l -69 690 l -224 966 l -87 966 l 0 787 l 90 966 l 225 966 z "},"ٛ":{"ha":0,"x_min":-211,"x_max":210,"o":"m -211 724 l -58 1001 l 56 1001 l 210 724 l 87 724 l 0 903 l -90 724 l -211 724 z "},"ٜ":{"ha":0,"x_min":-78,"x_max":107,"o":"m 16 -54 q -53 -27 -28 -54 q -78 46 -78 0 q -53 120 -78 93 q 16 146 -28 146 q 82 120 58 146 q 107 46 107 94 q 82 -27 107 0 q 16 -54 56 -54 z "},"ٝ":{"ha":0,"x_min":-204,"x_max":212,"o":"m 64 812 q -68 841 -6 812 q -167 919 -130 870 q -204 1018 -204 967 q -169 1100 -204 1069 q -81 1132 -134 1132 q 13 1099 -24 1132 q 49 1013 49 1066 q 9 900 49 958 q 66 893 33 893 q 165 930 107 893 l 212 863 q 64 812 144 812 m -64 928 q -33 1006 -33 972 q -47 1041 -33 1029 q -78 1053 -60 1053 q -107 1041 -96 1053 q -119 1013 -119 1030 q -106 968 -119 991 q -64 928 -94 945 z "},"ٞ":{"ha":0,"x_min":-172,"x_max":175,"o":"m 175 1034 l 119 868 l -172 757 l -123 922 l 175 1034 m -58 993 q -104 1010 -85 993 q -123 1063 -123 1027 q -104 1116 -123 1099 q -58 1132 -85 1132 q -14 1116 -33 1132 q 5 1063 5 1099 q -14 1010 5 1027 q -58 993 -33 993 m 64 650 q 18 667 37 650 q -1 720 -1 684 q 18 772 -1 756 q 64 789 37 789 q 109 772 90 789 q 127 720 127 756 q 109 667 127 684 q 64 650 90 650 z "},"ݐ":{"ha":1358,"x_min":90,"x_max":1240,"o":"m 367 0 q 164 75 239 0 q 90 279 90 149 q 102 391 90 332 q 135 492 115 450 l 318 492 q 297 310 297 401 q 333 206 297 245 q 428 167 369 167 l 1034 167 l 1034 688 l 1240 688 l 1240 0 l 367 0 m 477 -347 q 410 -321 435 -347 q 384 -248 384 -296 q 409 -173 384 -199 q 477 -147 433 -147 q 544 -174 519 -147 q 568 -248 568 -200 q 543 -321 568 -295 q 477 -347 518 -347 m 713 -347 q 646 -321 671 -347 q 620 -248 620 -296 q 645 -173 620 -199 q 713 -147 669 -147 q 780 -174 755 -147 q 804 -248 804 -200 q 779 -321 804 -295 q 713 -347 754 -347 m 947 -347 q 880 -321 906 -347 q 854 -248 854 -296 q 879 -173 854 -199 q 947 -147 904 -147 q 1015 -174 990 -147 q 1039 -248 1039 -200 q 1014 -321 1039 -295 q 947 -347 989 -347 z "},"ݑ":{"ha":1204,"x_min":90,"x_max":1086,"o":"m 367 0 q 164 75 239 0 q 90 279 90 149 q 102 391 90 332 q 135 492 115 450 l 318 492 q 297 310 297 401 q 333 206 297 245 q 428 167 369 167 l 879 167 l 879 688 l 1086 688 l 1086 0 l 367 0 m 589 -347 q 521 -320 546 -347 q 496 -248 496 -294 q 520 -174 496 -201 q 589 -147 545 -147 q 656 -174 631 -147 q 681 -248 681 -200 q 655 -320 681 -294 q 589 -347 630 -347 m 579 912 q 523 933 546 912 q 500 997 500 954 q 523 1061 500 1041 q 579 1081 546 1081 q 637 1059 615 1081 q 659 997 659 1036 q 637 936 659 959 q 579 912 616 912 m 461 688 q 393 715 418 688 q 368 788 368 742 q 393 862 368 835 q 461 888 418 888 q 529 862 505 888 q 553 788 553 835 q 528 715 553 742 q 461 688 503 688 m 698 688 q 629 715 654 688 q 604 788 604 742 q 629 862 604 835 q 698 888 654 888 q 765 862 740 888 q 789 788 789 836 q 764 715 789 742 q 698 688 739 688 z "},"ݒ":{"ha":1204,"x_min":90,"x_max":1086,"o":"m 367 0 q 164 75 239 0 q 90 279 90 149 q 102 391 90 332 q 135 492 115 450 l 318 492 q 297 310 297 401 q 333 206 297 245 q 428 167 369 167 l 879 167 l 879 688 l 1086 688 l 1086 0 l 367 0 m 629 -82 q 685 -103 663 -82 q 708 -167 708 -124 q 685 -231 708 -211 q 629 -252 663 -252 q 571 -229 593 -252 q 550 -167 550 -205 q 571 -105 550 -129 q 629 -82 593 -82 m 747 -257 q 815 -283 790 -257 q 840 -357 840 -310 q 815 -430 840 -404 q 747 -457 791 -457 q 680 -431 705 -457 q 655 -357 655 -404 q 680 -284 655 -311 q 747 -257 705 -257 m 511 -257 q 579 -283 554 -257 q 604 -357 604 -310 q 579 -430 604 -404 q 511 -457 555 -457 q 444 -431 469 -457 q 419 -357 419 -404 q 444 -284 419 -311 q 511 -257 469 -257 z "},"ݓ":{"ha":1204,"x_min":90,"x_max":1086,"o":"m 367 0 q 164 75 239 0 q 90 279 90 149 q 102 391 90 332 q 135 492 115 450 l 318 492 q 297 310 297 401 q 333 206 297 245 q 428 167 369 167 l 879 167 l 879 688 l 1086 688 l 1086 0 l 367 0 m 582 -82 q 638 -103 616 -82 q 661 -167 661 -124 q 638 -231 661 -211 q 582 -252 616 -252 q 525 -229 546 -252 q 503 -167 503 -205 q 525 -105 503 -129 q 582 -82 546 -82 m 700 -257 q 768 -283 743 -257 q 793 -357 793 -310 q 769 -430 793 -404 q 700 -457 744 -457 q 633 -431 658 -457 q 608 -357 608 -404 q 633 -284 608 -311 q 700 -257 659 -257 m 464 -257 q 532 -283 507 -257 q 557 -357 557 -310 q 533 -430 557 -404 q 464 -457 508 -457 q 397 -431 422 -457 q 372 -357 372 -404 q 397 -284 372 -311 q 464 -257 422 -257 m 468 688 q 400 715 425 688 q 375 788 375 742 q 400 862 375 835 q 468 888 425 888 q 535 862 511 888 q 559 788 559 836 q 534 714 559 741 q 468 688 509 688 m 704 688 q 636 715 661 688 q 611 788 611 742 q 636 862 611 835 q 704 888 661 888 q 772 862 747 888 q 796 788 796 835 q 771 715 796 742 q 704 688 745 688 z "},"ݔ":{"ha":1204,"x_min":90,"x_max":1086,"o":"m 367 0 q 164 75 239 0 q 90 279 90 149 q 102 391 90 332 q 135 492 115 450 l 318 492 q 297 310 297 401 q 333 206 297 245 q 428 167 369 167 l 879 167 l 879 688 l 1086 688 l 1086 0 l 367 0 m 489 -347 q 421 -320 446 -347 q 396 -248 396 -294 q 421 -174 396 -201 q 489 -147 446 -147 q 556 -174 532 -147 q 581 -248 581 -200 q 555 -321 581 -295 q 489 -347 530 -347 m 725 -347 q 657 -320 682 -347 q 632 -248 632 -294 q 657 -174 632 -201 q 725 -147 682 -147 q 793 -174 768 -147 q 817 -248 817 -201 q 792 -320 817 -294 q 725 -347 766 -347 m 599 688 q 530 715 555 688 q 505 788 505 742 q 530 862 505 835 q 599 888 555 888 q 666 862 641 888 q 690 788 690 836 q 665 715 690 742 q 599 688 640 688 z "},"ݕ":{"ha":1204,"x_min":90,"x_max":1086,"o":"m 367 0 q 164 75 239 0 q 90 279 90 149 q 102 391 90 332 q 135 492 115 450 l 318 492 q 297 310 297 401 q 333 206 297 245 q 428 167 369 167 l 879 167 l 879 688 l 1086 688 l 1086 0 l 367 0 m 401 -389 l 554 -112 l 668 -112 l 822 -389 l 700 -389 l 612 -210 l 522 -389 l 401 -389 z "},"ݖ":{"ha":1204,"x_min":90,"x_max":1086,"o":"m 367 0 q 164 75 239 0 q 90 279 90 149 q 102 391 90 332 q 135 492 115 450 l 318 492 q 297 310 297 401 q 333 206 297 245 q 428 167 369 167 l 879 167 l 879 688 l 1086 688 l 1086 0 l 367 0 m 823 880 l 669 604 l 528 604 l 374 880 l 510 880 l 597 701 l 688 880 l 823 880 z "},"ݗ":{"ha":949,"x_min":62,"x_max":859,"o":"m 379 -453 q 150 -374 237 -453 q 62 -164 62 -295 q 92 -29 62 -90 q 178 82 121 33 q 326 175 235 132 q 568 260 416 218 q 534 372 547 326 q 468 494 513 454 q 349 534 423 534 q 142 471 258 534 l 68 624 q 222 680 135 659 q 392 701 310 701 q 714 433 668 701 q 769 241 738 302 q 859 136 801 180 l 753 0 q 640 117 685 54 q 405 40 473 74 q 301 -41 337 5 q 265 -153 265 -87 q 309 -247 265 -211 q 421 -283 353 -283 q 625 -254 514 -283 l 648 -406 q 379 -453 513 -453 m 251 807 q 183 834 208 807 q 158 907 158 861 q 183 980 158 954 q 251 1007 208 1007 q 318 981 294 1007 q 342 907 342 954 q 317 833 342 859 q 251 807 292 807 m 487 807 q 419 834 444 807 q 394 907 394 861 q 419 980 394 954 q 487 1007 444 1007 q 555 980 530 1007 q 579 907 579 954 q 554 834 579 861 q 487 807 528 807 z "},"ݘ":{"ha":949,"x_min":62,"x_max":863,"o":"m 379 -453 q 150 -374 237 -453 q 62 -164 62 -295 q 92 -29 62 -90 q 178 82 121 33 q 326 175 235 132 q 568 260 416 218 q 534 372 547 326 q 468 494 513 454 q 349 534 423 534 q 142 471 258 534 l 68 624 q 222 680 135 659 q 392 701 310 701 q 714 433 668 701 q 769 241 738 302 q 859 136 801 180 l 753 0 q 640 117 685 54 q 405 40 473 74 q 301 -41 337 5 q 265 -153 265 -87 q 309 -247 265 -211 q 421 -283 353 -283 l 379 -453 m 771 -289 q 696 -254 730 -289 q 663 -180 663 -220 q 692 -118 663 -146 q 755 -89 722 -89 q 828 -123 793 -89 q 863 -195 863 -157 q 835 -258 863 -228 q 771 -289 808 -288 m 550 -224 q 488 -195 517 -224 q 460 -134 460 -167 q 484 -79 460 -104 q 539 -54 508 -54 q 601 -81 572 -54 q 629 -143 629 -109 q 605 -198 629 -173 q 550 -224 581 -222 m 604 -457 q 530 -422 564 -457 q 496 -349 496 -388 q 526 -286 496 -315 q 589 -257 555 -257 q 661 -291 627 -257 q 696 -363 696 -326 q 668 -427 696 -397 q 604 -457 640 -456 z "},"ݙ":{"ha":827,"x_min":62,"x_max":736,"o":"m 62 167 l 526 167 q 457 374 498 295 q 352 510 416 453 q 197 606 289 568 l 275 800 q 573 570 461 726 q 736 161 686 414 l 736 0 l 62 0 l 62 167 m 121 981 l 142 981 l 142 1233 l 225 1233 l 225 1071 q 335 1133 263 1133 q 424 1101 397 1133 q 450 998 450 1069 l 450 893 l 121 893 l 121 981 m 367 981 l 367 987 q 356 1042 367 1024 q 319 1059 345 1059 q 263 1041 284 1059 q 227 996 241 1023 l 225 981 l 367 981 m 323 -606 q 256 -580 282 -606 q 231 -505 231 -554 q 256 -431 231 -457 q 323 -406 281 -406 q 391 -432 366 -406 q 415 -505 415 -458 q 390 -579 415 -553 q 323 -606 366 -606 m 323 -347 q 256 -321 282 -347 q 231 -248 231 -296 q 255 -173 231 -199 q 323 -147 280 -147 q 391 -174 366 -147 q 415 -248 415 -200 q 390 -321 415 -295 q 323 -347 365 -347 z "},"ݚ":{"ha":827,"x_min":62,"x_max":736,"o":"m 62 167 l 526 167 q 457 374 498 295 q 352 510 416 453 q 197 606 289 568 l 275 800 q 573 570 461 726 q 736 161 686 414 l 736 0 l 62 0 l 62 167 m 135 -389 l 288 -112 l 401 -112 l 555 -389 l 433 -389 l 346 -210 l 256 -389 l 135 -389 z "},"ݛ":{"ha":608,"x_min":47,"x_max":536,"o":"m 47 -71 l 240 -71 q 244 -25 244 -48 l 244 688 l 452 688 l 452 -22 l 449 -71 l 536 -71 l 536 -205 l 415 -205 q 333 -347 387 -277 q 184 -500 279 -418 l 60 -357 q 193 -205 146 -283 l 47 -205 l 47 -71 z "},"ݜ":{"ha":1960,"x_min":90,"x_max":1842,"o":"m 1057 167 q 1158 205 1126 167 q 1190 328 1190 244 l 1190 579 l 1397 579 l 1397 311 q 1393 249 1397 277 q 1462 185 1428 203 q 1549 167 1496 167 l 1634 167 l 1634 688 l 1842 688 l 1842 0 l 1553 0 q 1335 104 1435 0 q 1103 0 1257 0 l 937 0 q 529 -334 912 -334 l 468 -334 q 266 -285 352 -334 q 135 -148 180 -236 q 90 56 90 -59 q 109 216 90 134 q 161 363 128 298 l 345 363 q 310 207 323 288 q 297 54 297 125 q 348 -107 297 -47 q 482 -167 399 -167 l 524 -167 q 681 -109 631 -167 q 732 54 732 -51 l 732 579 l 939 579 l 939 167 l 1057 167 m 1175 753 q 1116 775 1141 753 q 1092 844 1092 798 q 1116 912 1092 890 q 1175 934 1141 934 q 1236 910 1214 934 q 1259 844 1259 886 q 1236 778 1259 803 q 1175 753 1214 753 m 1388 753 q 1329 775 1353 753 q 1304 844 1304 798 q 1329 912 1304 890 q 1388 934 1353 934 q 1447 912 1422 934 q 1471 844 1471 890 q 1447 775 1471 798 q 1388 753 1422 753 m 1175 977 q 1116 999 1141 977 q 1092 1067 1092 1021 q 1116 1136 1092 1114 q 1175 1158 1141 1158 q 1236 1134 1214 1158 q 1259 1067 1259 1109 q 1236 1002 1259 1027 q 1175 977 1214 977 m 1388 977 q 1329 999 1353 977 q 1304 1067 1304 1021 q 1329 1136 1304 1114 q 1388 1158 1353 1158 q 1447 1136 1422 1158 q 1471 1067 1471 1114 q 1447 999 1471 1021 q 1388 977 1422 977 z "},"ݝ":{"ha":823,"x_min":90,"x_max":761,"o":"m 407 -453 q 177 -375 264 -453 q 90 -171 90 -298 q 267 106 90 -16 q 181 229 218 155 q 144 367 144 304 q 247 612 144 523 q 528 701 350 701 q 655 688 589 701 q 761 656 722 674 l 703 493 q 606 526 648 517 q 522 534 564 534 q 389 489 435 534 q 343 358 343 443 q 357 259 343 300 q 400 179 372 218 q 642 271 520 233 l 690 114 q 385 -6 477 60 q 293 -160 293 -73 q 333 -251 293 -218 q 449 -283 372 -283 q 653 -254 542 -283 l 676 -406 q 407 -453 541 -453 m 323 807 q 256 834 281 807 q 231 907 231 861 q 255 980 231 954 q 323 1007 280 1007 q 391 981 366 1007 q 415 907 415 954 q 390 833 415 859 q 323 807 365 807 m 559 807 q 492 834 517 807 q 467 907 467 861 q 491 980 467 954 q 559 1007 516 1007 q 627 980 603 1007 q 652 907 652 954 q 626 834 652 861 q 559 807 601 807 z "}}}
